<?xml version="1.0" encoding="UTF-8"?>
<svg width="230px" height="60px" viewBox="0 0 230 60" version="1.1" xmlns="http://www.w3.org/2000/svg" xmlns:xlink="http://www.w3.org/1999/xlink">
    <title>ac-bouton-bleu@3x</title>
    <g id="Page-1" stroke="none" stroke-width="1" fill="none" fill-rule="evenodd">
        <g id="Artboard" transform="translate(-2914.000000, -381.000000)">
            <g id="ac-bouton-bleu" transform="translate(2914.000000, 381.000000)">
                <path d="M2.23461677,0 C0.82763584,0 -1.70530257e-13,1.25 -1.70530257e-13,2.66666667 L-1.70530257e-13,57.5 C-1.70530257e-13,58.9166667 0.82763584,60 2.23461677,60 L227.68262,60 C229.089601,60 230,58.9166667 230,57.5 L230,2.66666667 C230,1.25 229.089601,0 227.68262,0 L38.3195394,0 L2.23461677,0 Z" id="Fond" fill="#2E94FA" fill-rule="nonzero"></path>
                <text id="S’identifier-avec-Ag" font-family="Marianne-Regular, Marianne" font-size="18" font-weight="normal" line-spacing="19" letter-spacing="-0.7" fill="#FFFFFF">
                    <tspan x="76.522" y="26">S’identifier avec </tspan>
                    <tspan x="76" y="45" font-family="Marianne-Bold, Marianne" font-weight="bold">AgentConnect</tspan>
                </text>
                <g id="Symbole" transform="translate(15.000000, 3.000000)" fill-rule="nonzero">
                    <polygon id="Hexagone" fill="#FFFFFF" points="0 14.18598 0 41.1473534 23.9603306 54.6666667 48 41.1473534 48 14.18598 23.9603306 0.666666667"></polygon>
                    <g id="Mosaique" transform="translate(5.000000, 5.666667)">
                        <polygon id="Path" fill="#034EA2" points="31.7217391 21.9585687 24.8652174 10.1092279 19 0 19 13.8380414 19 44 38 32.9792844 38 32.9792844"></polygon>
                        <polygon id="Path" fill="#0069CC" points="24.8652174 10.1283019 31.7217391 22 38 11.0415094 38 11.0415094 30.3173913 6.55849057"></polygon>
                        <polygon id="Path" fill="#ED1C24" points="30.3173913 6.55849057 19 2.22044605e-14 24.8652174 10.1283019"></polygon>
                        <polygon id="Path" fill="#0069CC" points="24.8652174 10.1283019 19 2.22044605e-14"></polygon>
                        <polygon id="Path" fill="#ED1C24" points="38 33.0415094 38 11.0415094 31.7217391 22"></polygon>
                        <polygon id="Path" fill="#0069CC" points="6.36086957 21.9585687 13.2173913 10.1092279 19 0 19 13.8380414 19 44 0 32.9792844 0 32.9792844"></polygon>
                        <polygon id="Path" fill="#ED1C24" points="13.2173913 10.1283019 6.36086957 22 0 11.0415094 0 11.0415094 7.6826087 6.55849057"></polygon>
                        <polygon id="Path" fill="#034EA2" points="7.6826087 6.55849057 19 2.22044605e-14 13.2173913 10.1283019"></polygon>
                        <polygon id="Path" fill="#034EA2" points="-9.23705556e-14 33.0415094 -9.23705556e-14 11.0415094 6.36086957 22"></polygon>
                    </g>
                    <g id="Marianne" transform="translate(3.000000, 16.666667)">
                        <path d="M26.2461538,13.2102875 C26.5846154,13.2102875 26.9230769,13.1252875 27.2615385,13.2102875 C27.5153846,13.2952875 27.8538462,13.2952875 27.8538462,13.3802875 C27.7692308,13.8902875 27.0076923,13.9752875 26.6692308,14.4852875 C26.5846154,14.4852875 26.5846154,14.4852875 26.5,14.4852875 C26.3307692,14.5702875 26.4153846,14.9102875 26.2461538,14.9102875 C26.0769231,14.8252875 25.9076923,14.9102875 25.6538462,14.9952875 C25.9076923,15.2502875 26.2461538,15.4202875 26.5846154,15.3352875 C26.6692308,15.3352875 26.7538462,15.4202875 26.7538462,15.5902875 C26.7538462,15.5902875 26.8384615,15.5902875 26.8384615,15.5052875 C26.9230769,15.5052875 26.9230769,15.5052875 26.9230769,15.5902875 C26.9230769,15.6752875 26.9230769,15.7602875 26.9230769,15.8452875 C26.7538462,16.1002875 26.4153846,16.0152875 26.1615385,16.0152875 C26.6692308,16.1002875 27.1769231,16.1002875 27.6,16.0152875 C27.9384615,15.8452875 27.6,15.2502875 27.8538462,14.9952875 C27.7692308,14.9952875 27.8538462,14.8252875 27.6846154,14.8252875 C27.7692308,14.7402875 27.9384615,14.4852875 28.0230769,14.4852875 C28.1076923,14.4852875 28.3615385,14.4002875 28.3615385,14.3152875 C28.3615385,14.2302875 28.1076923,14.1452875 28.1923077,13.9752875 C28.5307692,13.7202875 28.8692308,13.3802875 28.7,12.9552875 C28.6153846,12.7852875 28.1076923,12.7852875 27.8538462,12.7002875 C27.5153846,12.6152875 27.1769231,12.7002875 26.8384615,12.7852875 C26.5,12.7852875 26.2461538,12.9552875 25.9076923,13.0402875 C25.4846154,13.2102875 25.1461538,13.4652875 24.7230769,13.7202875 C25.3153846,13.4652875 25.7384615,13.3802875 26.2461538,13.2102875 Z" id="Path" fill="#034EA2"></path>
                        <path d="M32.2321709,16.7697396 C32.0616303,16.4333612 31.8058195,16.1810774 31.5500086,15.8446989 C31.2941977,15.4242258 30.9531165,15.0878474 30.8678462,14.5832797 C30.6973056,14.078712 30.8678462,13.658239 30.8678462,13.1536713 C30.8678462,12.2286305 30.6120353,11.3035898 30.3562245,10.4626437 C30.1856839,10.0421706 30.1004136,9.53760291 29.929873,9.11712984 C29.8446027,8.864846 29.7593324,8.61256216 29.5887918,8.36027832 C29.5035215,8.27618371 29.5035215,8.02389987 29.5887918,7.93980525 C29.8446027,7.77161603 30.1004136,7.51933219 30.2709542,7.35114296 C30.4414948,7.01476451 30.2709542,6.59429144 30.0151433,6.42610222 C29.5887918,6.25791299 29.6740621,6.84657528 29.3329809,7.01476451 C29.2477107,7.01476451 29.2477107,7.01476451 29.1624404,7.01476451 C29.0771701,6.84657528 29.2477107,6.76248067 29.3329809,6.67838605 C29.3329809,6.59429144 29.3329809,6.51019683 29.2477107,6.51019683 C28.9918998,6.51019683 28.7360889,6.42610222 28.6508186,6.3420076 C27.9686563,5.50106147 27.1159533,5.0805884 26.1779801,4.74420995 C26.433791,4.82830456 26.6896019,4.82830456 26.9454127,4.82830456 C27.3717642,4.91239918 27.883386,4.82830456 28.2244671,4.66011534 C28.5655483,4.49192611 28.5655483,4.07145304 28.6508186,3.73507459 C28.7360889,3.65097998 28.6508186,3.56688536 28.6508186,3.39869614 C28.6508186,3.23050691 28.480278,3.06231769 28.3950077,2.89412846 C28.3950077,2.89412846 28.3097374,2.81003385 28.2244671,2.64184462 C27.5423048,1.8849931 24.8989257,-0.301466844 19.9532487,0.0349116086 C17.8214913,0.203100835 15.1781122,0.791763128 12.1083817,2.30546617 C12.0231114,2.30546617 11.9378411,2.38956078 11.7673005,2.38956078 C11.2556787,2.64184462 10.5735164,3.06231769 10.1471649,3.56688536 C9.63554316,4.15554766 9.20919169,4.82830456 9.03865111,5.58515608 C8.27121846,6.08972376 7.7595967,6.84657528 7.33324524,7.6034268 C6.82162348,8.61256216 6.13946113,9.45350829 6.13946113,10.5467383 C6.13946113,10.6308329 6.13946113,10.7149275 6.13946113,10.7149275 C6.22473142,11.0513059 6.22473142,11.3035898 6.31000172,11.6399682 C6.4805423,12.3127251 6.65108289,12.985482 6.73635318,13.658239 C6.82162348,13.9946174 6.90689377,14.3309959 6.99216406,14.6673743 C7.16270465,15.0037528 6.99216406,15.4242258 7.24797494,15.7606043 C7.33324524,15.9287935 7.33324524,16.1810774 7.58905612,16.265172 C7.58905612,16.3492666 7.58905612,16.4333612 7.58905612,16.5174558 C7.67432641,16.6015504 7.67432641,16.6015504 7.7595967,16.6015504 C7.7595967,16.685645 7.7595967,16.7697396 7.7595967,16.8538343 C8.27121846,17.4424965 8.86811052,17.9470642 9.20919169,18.6198211 C9.37973228,18.9561996 8.61229964,18.7880104 8.27121846,18.7039157 C7.67432641,18.4516319 7.24797494,17.9470642 6.73635318,17.5265912 C6.73635318,17.5265912 6.65108289,17.6106858 6.65108289,17.6106858 C6.90689377,18.0311588 7.844867,18.5357265 7.33324524,18.872105 C7.07743436,19.0402942 6.73635318,18.7039157 6.5658126,18.9561996 C6.4805423,19.0402942 6.5658126,19.2084834 6.5658126,19.292578 C6.22473142,19.0402942 5.79837995,19.2084834 5.45729878,19.0402942 C5.2014879,18.9561996 5.11621761,18.5357265 4.86040673,18.5357265 C4.09297409,18.3675373 3.32554144,18.1993481 2.47283851,18.1993481 C2.38756822,18.1993481 2.30229792,18.1993481 2.30229792,18.1993481 C1.53486528,18.1152535 0.767432641,18.0311588 0.0852702935,18.1152535 L0.0852702935,18.9561996 C0.767432641,18.7880104 1.44959499,18.6198211 2.13175734,18.6198211 C2.21702763,18.6198211 2.30229792,18.6198211 2.30229792,18.6198211 C2.47283851,18.6198211 2.72864939,18.5357265 2.89918998,18.6198211 C2.6433791,18.6198211 2.30229792,18.6198211 2.04648704,18.7039157 C1.3643247,18.7880104 0.682162348,19.0402942 0,19.292578 L0,20.1335242 C0.341081174,20.2176188 0.767432641,20.2176188 1.10851381,20.3017134 C1.53486528,20.385808 1.96121675,20.4699026 2.38756822,20.6380919 C2.98446027,20.8062811 3.41081174,21.0585649 3.9224335,21.3108488 C4.17824438,21.479038 4.26351467,21.6472272 4.51932555,21.8154164 C4.86040673,21.9836057 5.28675819,21.9836057 5.54256907,21.8154164 C5.62783937,21.8154164 5.79837995,21.8154164 5.88365025,21.8154164 C6.82162348,21.5631326 7.7595967,21.3108488 8.35648876,20.5539972 C8.35648876,20.6380919 8.44175905,20.6380919 8.44175905,20.6380919 C8.27121846,21.1426595 8.27121846,21.6472272 7.93013729,22.1517949 C7.93013729,22.2358895 7.844867,22.3199841 8.01540758,22.4040787 C8.10067788,22.4040787 8.10067788,22.4040787 8.10067788,22.4040787 C8.01540758,22.4040787 8.01540758,22.4040787 8.01540758,22.4881733 C8.01540758,22.572268 8.18594817,22.4881733 8.27121846,22.572268 C7.93013729,22.6563626 7.67432641,22.7404572 7.50378582,22.992741 C7.50378582,23.0768356 7.58905612,23.0768356 7.67432641,23.0768356 C7.58905612,23.1609303 7.33324524,23.1609303 7.33324524,23.2450249 C7.33324524,23.2450249 7.41851553,23.3291195 7.41851553,23.3291195 C7.33324524,23.3291195 7.33324524,23.3291195 7.33324524,23.4132141 C7.33324524,23.4973087 7.33324524,23.4973087 7.33324524,23.5814033 C7.16270465,23.5814033 7.07743436,23.7495925 6.99216406,23.7495925 C7.24797494,23.9177818 7.41851553,23.7495925 7.67432641,23.7495925 C6.99216406,24.0018764 6.4805423,24.4223494 5.79837995,24.5905387 C5.71310966,24.5905387 5.79837995,24.7587279 5.71310966,24.7587279 C5.88365025,24.8428225 6.05419084,24.6746333 6.22473142,24.6746333 C5.88365025,24.9269171 5.54256907,25.0951064 5.2014879,25.2632956 L7.24797494,26.4406202 C8.10067788,25.9360525 8.86811052,25.3473902 9.55027287,24.5905387 C9.55027287,24.5905387 9.63554316,24.6746333 9.63554316,24.6746333 C9.46500257,25.2632956 9.1239214,25.6837686 8.61229964,26.1042417 C8.27121846,26.2724309 8.01540758,26.6088094 7.7595967,26.692904 L9.29446199,27.5338501 C9.63554316,27.2815663 9.89135404,27.1133771 10.3177055,26.9451878 C10.4029758,26.9451878 10.4882461,27.0292825 10.6587867,27.0292825 C11.1704084,26.5247148 11.7673005,25.9360525 12.6200034,26.1042417 C12.6200034,26.1883363 12.6200034,26.1883363 12.7052737,26.1883363 C12.7052737,26.1883363 12.7052737,26.1883363 12.7052737,26.1883363 C12.7052737,26.1883363 12.790544,26.1883363 12.790544,26.1042417 C12.790544,26.1883363 12.790544,26.1883363 12.7052737,26.1883363 C12.4494628,26.3565256 12.2789223,26.5247148 12.0231114,26.692904 C11.9378411,26.7769986 12.0231114,26.7769986 12.1083817,26.7769986 C12.4494628,26.6088094 12.6200034,26.4406202 12.8758143,26.2724309 C12.790544,26.3565256 12.790544,26.4406202 12.790544,26.5247148 C12.0231114,27.1133771 11.4262193,27.7020394 10.8293273,28.3747963 L18.9300051,33 C19.185816,32.6636215 19.5268972,32.1590539 19.8679784,31.7385808 C21.4028437,29.5521209 23.6198713,26.6088094 24.3020336,25.9360525 C24.5578445,25.7678633 24.8136554,25.7678633 25.1547366,25.6837686 C26.1779801,25.6837686 27.2864939,25.9360525 28.3097374,26.0201471 C28.3950077,26.0201471 28.5655483,26.1042417 28.6508186,26.1042417 C28.9918998,26.1883363 29.4182512,26.1042417 29.8446027,26.0201471 C30.2709542,25.8519579 30.7825759,25.599674 30.9531165,25.0951064 C31.1236571,24.6746333 31.2089274,24.1700656 30.9531165,23.7495925 C30.5267651,23.2450249 31.2941977,22.992741 31.5500086,22.6563626 C31.7205492,22.3199841 31.379468,22.1517949 31.379468,21.8995111 C31.2941977,21.8154164 31.0383868,21.8154164 30.9531165,21.6472272 C31.379468,21.479038 32.0616303,21.0585649 31.7205492,20.5539972 C31.5500086,20.2176188 31.2089274,19.7971457 31.5500086,19.4607673 C31.97636,19.2084834 32.6585224,19.2084834 32.829063,18.7880104 C33.3406847,17.9470642 32.5732521,17.3584019 32.2321709,16.7697396 Z M29.5887918,13.7423336 C29.5035215,13.8264282 29.7593324,13.9105228 29.7593324,14.078712 C29.6740621,14.1628066 29.5035215,14.2469012 29.4182512,14.2469012 C29.3329809,14.3309959 29.1624404,14.4991851 29.0771701,14.5832797 C29.1624404,14.5832797 29.0771701,14.7514689 29.2477107,14.7514689 C28.9918998,15.0878474 29.4182512,15.6765097 28.9918998,15.7606043 C28.5655483,15.9287935 28.0539265,15.9287935 27.5423048,15.7606043 C27.7981157,15.6765097 28.1391968,15.8446989 28.3097374,15.5924151 C28.3097374,15.5083204 28.3097374,15.4242258 28.3097374,15.3401312 C28.3097374,15.2560366 28.2244671,15.2560366 28.2244671,15.2560366 C28.1391968,15.3401312 28.1391968,15.3401312 28.1391968,15.3401312 C28.1391968,15.2560366 27.9686563,15.0878474 27.9686563,15.0878474 C27.6275751,15.171942 27.2864939,15.0037528 27.030683,14.7514689 C27.2012236,14.6673743 27.3717642,14.5832797 27.6275751,14.6673743 C27.7981157,14.6673743 27.7128454,14.3309959 27.883386,14.2469012 C27.9686563,14.2469012 27.9686563,14.2469012 28.0539265,14.2469012 C28.3950077,13.7423336 29.1624404,13.5741443 29.2477107,13.1536713 C29.2477107,13.0695767 28.9066295,13.0695767 28.6508186,12.985482 C28.3097374,12.9013874 27.9686563,12.985482 27.6275751,12.985482 C27.1159533,13.1536713 26.6896019,13.1536713 26.2632504,13.4059551 C26.6043316,13.1536713 27.030683,12.9013874 27.4570345,12.7331982 C27.7981157,12.6491036 28.0539265,12.4809144 28.3950077,12.4809144 C28.7360889,12.3968198 29.1624404,12.3127251 29.4182512,12.3968198 C29.7593324,12.4809144 30.1856839,12.4809144 30.2709542,12.6491036 C30.1856839,13.1536713 29.929873,13.4900497 29.5887918,13.7423336 Z" id="Shape" fill="#FFFFFF"></path>
                    </g>
                </g>
            </g>
        </g>
    </g>
</svg>