<?xml version="1.0" encoding="UTF-8"?>
<svg width="232px" height="62px" viewBox="0 0 232 62" version="1.1" xmlns="http://www.w3.org/2000/svg" xmlns:xlink="http://www.w3.org/1999/xlink">
    <title>ac-bouton-blanc-hover@3x</title>
    <g id="Page-1" stroke="none" stroke-width="1" fill="none" fill-rule="evenodd">
        <g id="Artboard" transform="translate(-3176.000000, -511.000000)">
            <g id="ac-bouton-blanc-hover" transform="translate(3177.000000, 512.000000)">
                <path d="M2.23461677,0 C0.82763584,0 -2.27373675e-13,1.25 -2.27373675e-13,2.66666667 L-2.27373675e-13,57.5 C-2.27373675e-13,58.9166667 0.82763584,60 2.23461677,60 L227.68262,60 C229.089601,60 230,58.9166667 230,57.5 L230,2.66666667 C230,1.25 229.089601,0 227.68262,0 L38.3195394,0 L2.23461677,0 Z" id="Fond" stroke="#1E82F0" stroke-width="2" fill="#E5EDF5" fill-rule="nonzero"></path>
                <text id="S’identifier-avec-Ag" font-family="Marianne-Regular, Marianne" font-size="18" font-weight="normal" line-spacing="19" letter-spacing="-0.7" fill="#1E82F0">
                    <tspan x="76.522" y="26">S’identifier avec </tspan>
                    <tspan x="76" y="45" font-family="Marianne-Bold, Marianne" font-weight="bold">AgentConnect</tspan>
                </text>
                <g id="Symbole" transform="translate(15.000000, 3.333333)" fill-rule="nonzero">
                    <polygon id="Hexagone" stroke="#1E82F0" points="0 13.5610396 0 40.6056271 24.1267218 54.1666667 48.3333333 40.6056271 48.3333333 13.5610396 24.1267218 0"></polygon>
                    <g id="Mosaique" transform="translate(5.000000, 5.000000)">
                        <polygon id="Path" fill="#034EA2" points="32 22.0417451 25.0833333 10.1475204 19.1666667 0 19.1666667 13.8904583 19.1666667 44.1666667 38.3333333 33.1042059 38.3333333 33.1042059"></polygon>
                        <polygon id="Path" fill="#0069CC" points="25.0833333 10.1666667 32 22.0833333 38.3333333 11.0833333 38.3333333 11.0833333 30.5833333 6.58333333"></polygon>
                        <polygon id="Path" fill="#ED1C24" points="30.5833333 6.58333333 19.1666667 2.22044605e-14 25.0833333 10.1666667"></polygon>
                        <polygon id="Path" fill="#0069CC" points="25.0833333 10.1666667 19.1666667 2.22044605e-14"></polygon>
                        <polygon id="Path" fill="#ED1C24" points="38.3333333 33.1666667 38.3333333 11.0833333 32 22.0833333"></polygon>
                        <polygon id="Path" fill="#0069CC" points="6.41666667 22.0417451 13.3333333 10.1475204 19.1666667 0 19.1666667 13.8904583 19.1666667 44.1666667 0 33.1042059 0 33.1042059"></polygon>
                        <polygon id="Path" fill="#ED1C24" points="13.3333333 10.1666667 6.41666667 22.0833333 0 11.0833333 0 11.0833333 7.75 6.58333333"></polygon>
                        <polygon id="Path" fill="#034EA2" points="7.75 6.58333333 19.1666667 2.22044605e-14 13.3333333 10.1666667"></polygon>
                        <polygon id="Path" fill="#034EA2" points="-9.23705556e-14 33.1666667 -9.23705556e-14 11.0833333 6.41666667 22.0833333"></polygon>
                    </g>
                    <g id="Marianne" transform="translate(4.333333, 16.215404)">
                        <path d="M26.8333333,12.9512622 C27.1666667,12.9512622 27.5,12.8679289 27.8333333,12.9512622 C28.0833333,13.0345956 28.4166667,13.0345956 28.4166667,13.1179289 C28.3333333,13.6179289 27.5833333,13.7012622 27.25,14.2012622 C27.1666667,14.2012622 27.1666667,14.2012622 27.0833333,14.2012622 C26.9166667,14.2845956 27,14.6179289 26.8333333,14.6179289 C26.6666667,14.5345956 26.5,14.6179289 26.25,14.7012622 C26.5,14.9512622 26.8333333,15.1179289 27.1666667,15.0345956 C27.25,15.0345956 27.3333333,15.1179289 27.3333333,15.2845956 C27.3333333,15.2845956 27.4166667,15.2845956 27.4166667,15.2012622 C27.5,15.2012622 27.5,15.2012622 27.5,15.2845956 C27.5,15.3679289 27.5,15.4512622 27.5,15.5345956 C27.3333333,15.7845956 27,15.7012622 26.75,15.7012622 C27.25,15.7845956 27.75,15.7845956 28.1666667,15.7012622 C28.5,15.5345956 28.1666667,14.9512622 28.4166667,14.7012622 C28.3333333,14.7012622 28.4166667,14.5345956 28.25,14.5345956 C28.3333333,14.4512622 28.5,14.2012622 28.5833333,14.2012622 C28.6666667,14.2012622 28.9166667,14.1179289 28.9166667,14.0345956 C28.9166667,13.9512622 28.6666667,13.8679289 28.75,13.7012622 C29.0833333,13.4512622 29.4166667,13.1179289 29.25,12.7012622 C29.1666667,12.5345956 28.6666667,12.5345956 28.4166667,12.4512622 C28.0833333,12.3679289 27.75,12.4512622 27.4166667,12.5345956 C27.0833333,12.5345956 26.8333333,12.7012622 26.5,12.7845956 C26.0833333,12.9512622 25.75,13.2012622 25.3333333,13.4512622 C25.9166667,13.2012622 26.3333333,13.1179289 26.8333333,12.9512622 Z" id="Path" fill="#034EA2"></path>
                        <path d="M31.5,16.6179289 C31.3333333,16.2845956 31.0833333,16.0345956 30.8333333,15.7012622 C30.5833333,15.2845956 30.25,14.9512622 30.1666667,14.4512622 C30,13.9512622 30.1666667,13.5345956 30.1666667,13.0345956 C30.1666667,12.1179289 29.9166667,11.2012622 29.6666667,10.3679289 C29.5,9.95126223 29.4166667,9.45126223 29.25,9.03459557 C29.1666667,8.78459557 29.0833333,8.53459557 28.9166667,8.28459557 C28.8333333,8.20126223 28.8333333,7.95126223 28.9166667,7.8679289 C29.1666667,7.70126223 29.4166667,7.45126223 29.5833333,7.28459557 C29.75,6.95126223 29.5833333,6.53459557 29.3333333,6.3679289 C28.9166667,6.20126223 29,6.78459557 28.6666667,6.95126223 C28.5833333,6.95126223 28.5833333,6.95126223 28.5,6.95126223 C28.4166667,6.78459557 28.5833333,6.70126223 28.6666667,6.6179289 C28.6666667,6.53459557 28.6666667,6.45126223 28.5833333,6.45126223 C28.3333333,6.45126223 28.0833333,6.3679289 28,6.28459557 C27.3333333,5.45126223 26.5,5.03459557 25.5833333,4.70126223 C25.8333333,4.78459557 26.0833333,4.78459557 26.3333333,4.78459557 C26.75,4.8679289 27.25,4.78459557 27.5833333,4.6179289 C27.9166667,4.45126223 27.9166667,4.03459557 28,3.70126223 C28.0833333,3.6179289 28,3.53459557 28,3.3679289 C28,3.20126223 27.8333333,3.03459557 27.75,2.8679289 C27.75,2.8679289 27.6666667,2.78459557 27.5833333,2.6179289 C26.9166667,1.8679289 24.3333333,-0.298737768 19.5,0.0345955657 C17.4166667,0.201262232 14.8333333,0.784595566 11.8333333,2.28459557 C11.75,2.28459557 11.6666667,2.3679289 11.5,2.3679289 C11,2.6179289 10.3333333,3.03459557 9.91666667,3.53459557 C9.41666667,4.1179289 9,4.78459557 8.83333333,5.53459557 C8.08333333,6.03459557 7.58333333,6.78459557 7.16666667,7.53459557 C6.66666667,8.53459557 6,9.3679289 6,10.4512622 C6,10.5345956 6,10.6179289 6,10.6179289 C6.08333333,10.9512622 6.08333333,11.2012622 6.16666667,11.5345956 C6.33333333,12.2012622 6.5,12.8679289 6.58333333,13.5345956 C6.66666667,13.8679289 6.75,14.2012622 6.83333333,14.5345956 C7,14.8679289 6.83333333,15.2845956 7.08333333,15.6179289 C7.16666667,15.7845956 7.16666667,16.0345956 7.41666667,16.1179289 C7.41666667,16.2012622 7.41666667,16.2845956 7.41666667,16.3679289 C7.5,16.4512622 7.5,16.4512622 7.58333333,16.4512622 C7.58333333,16.5345956 7.58333333,16.6179289 7.58333333,16.7012622 C8.08333333,17.2845956 8.66666667,17.7845956 9,18.4512622 C9.16666667,18.7845956 8.41666667,18.6179289 8.08333333,18.5345956 C7.5,18.2845956 7.08333333,17.7845956 6.58333333,17.3679289 C6.58333333,17.3679289 6.5,17.4512622 6.5,17.4512622 C6.75,17.8679289 7.66666667,18.3679289 7.16666667,18.7012622 C6.91666667,18.8679289 6.58333333,18.5345956 6.41666667,18.7845956 C6.33333333,18.8679289 6.41666667,19.0345956 6.41666667,19.1179289 C6.08333333,18.8679289 5.66666667,19.0345956 5.33333333,18.8679289 C5.08333333,18.7845956 5,18.3679289 4.75,18.3679289 C4,18.2012622 3.25,18.0345956 2.41666667,18.0345956 C2.33333333,18.0345956 2.25,18.0345956 2.25,18.0345956 C1.5,17.9512622 0.75,17.8679289 0.0833333333,17.9512622 L0.0833333333,18.7845956 C0.75,18.6179289 1.41666667,18.4512622 2.08333333,18.4512622 C2.16666667,18.4512622 2.25,18.4512622 2.25,18.4512622 C2.41666667,18.4512622 2.66666667,18.3679289 2.83333333,18.4512622 C2.58333333,18.4512622 2.25,18.4512622 2,18.5345956 C1.33333333,18.6179289 0.666666667,18.8679289 1.45661261e-13,19.1179289 L1.45661261e-13,19.9512622 C0.333333333,20.0345956 0.75,20.0345956 1.08333333,20.1179289 C1.5,20.2012622 1.91666667,20.2845956 2.33333333,20.4512622 C2.91666667,20.6179289 3.33333333,20.8679289 3.83333333,21.1179289 C4.08333333,21.2845956 4.16666667,21.4512622 4.41666667,21.6179289 C4.75,21.7845956 5.16666667,21.7845956 5.41666667,21.6179289 C5.5,21.6179289 5.66666667,21.6179289 5.75,21.6179289 C6.66666667,21.3679289 7.58333333,21.1179289 8.16666667,20.3679289 C8.16666667,20.4512622 8.25,20.4512622 8.25,20.4512622 C8.08333333,20.9512622 8.08333333,21.4512622 7.75,21.9512622 C7.75,22.0345956 7.66666667,22.1179289 7.83333333,22.2012622 C7.91666667,22.2012622 7.91666667,22.2012622 7.91666667,22.2012622 C7.83333333,22.2012622 7.83333333,22.2012622 7.83333333,22.2845956 C7.83333333,22.3679289 8,22.2845956 8.08333333,22.3679289 C7.75,22.4512622 7.5,22.5345956 7.33333333,22.7845956 C7.33333333,22.8679289 7.41666667,22.8679289 7.5,22.8679289 C7.41666667,22.9512622 7.16666667,22.9512622 7.16666667,23.0345956 C7.16666667,23.0345956 7.25,23.1179289 7.25,23.1179289 C7.16666667,23.1179289 7.16666667,23.1179289 7.16666667,23.2012622 C7.16666667,23.2845956 7.16666667,23.2845956 7.16666667,23.3679289 C7,23.3679289 6.91666667,23.5345956 6.83333333,23.5345956 C7.08333333,23.7012622 7.25,23.5345956 7.5,23.5345956 C6.83333333,23.7845956 6.33333333,24.2012622 5.66666667,24.3679289 C5.58333333,24.3679289 5.66666667,24.5345956 5.58333333,24.5345956 C5.75,24.6179289 5.91666667,24.4512622 6.08333333,24.4512622 C5.75,24.7012622 5.41666667,24.8679289 5.08333333,25.0345956 L7.08333333,26.2012622 C7.91666667,25.7012622 8.66666667,25.1179289 9.33333333,24.3679289 C9.33333333,24.3679289 9.41666667,24.4512622 9.41666667,24.4512622 C9.25,25.0345956 8.91666667,25.4512622 8.41666667,25.8679289 C8.08333333,26.0345956 7.83333333,26.3679289 7.58333333,26.4512622 L9.08333333,27.2845956 C9.41666667,27.0345956 9.66666667,26.8679289 10.0833333,26.7012622 C10.1666667,26.7012622 10.25,26.7845956 10.4166667,26.7845956 C10.9166667,26.2845956 11.5,25.7012622 12.3333333,25.8679289 C12.3333333,25.9512622 12.3333333,25.9512622 12.4166667,25.9512622 C12.4166667,25.9512622 12.4166667,25.9512622 12.4166667,25.9512622 C12.4166667,25.9512622 12.5,25.9512622 12.5,25.8679289 C12.5,25.9512622 12.5,25.9512622 12.4166667,25.9512622 C12.1666667,26.1179289 12,26.2845956 11.75,26.4512622 C11.6666667,26.5345956 11.75,26.5345956 11.8333333,26.5345956 C12.1666667,26.3679289 12.3333333,26.2012622 12.5833333,26.0345956 C12.5,26.1179289 12.5,26.2012622 12.5,26.2845956 C11.75,26.8679289 11.1666667,27.4512622 10.5833333,28.1179289 L18.5,32.7012622 C18.75,32.3679289 19.0833333,31.8679289 19.4166667,31.4512622 C20.9166667,29.2845956 23.0833333,26.3679289 23.75,25.7012622 C24,25.5345956 24.25,25.5345956 24.5833333,25.4512622 C25.5833333,25.4512622 26.6666667,25.7012622 27.6666667,25.7845956 C27.75,25.7845956 27.9166667,25.8679289 28,25.8679289 C28.3333333,25.9512622 28.75,25.8679289 29.1666667,25.7845956 C29.5833333,25.6179289 30.0833333,25.3679289 30.25,24.8679289 C30.4166667,24.4512622 30.5,23.9512622 30.25,23.5345956 C29.8333333,23.0345956 30.5833333,22.7845956 30.8333333,22.4512622 C31,22.1179289 30.6666667,21.9512622 30.6666667,21.7012622 C30.5833333,21.6179289 30.3333333,21.6179289 30.25,21.4512622 C30.6666667,21.2845956 31.3333333,20.8679289 31,20.3679289 C30.8333333,20.0345956 30.5,19.6179289 30.8333333,19.2845956 C31.25,19.0345956 31.9166667,19.0345956 32.0833333,18.6179289 C32.5833333,17.7845956 31.8333333,17.2012622 31.5,16.6179289 Z M28.9166667,13.6179289 C28.8333333,13.7012622 29.0833333,13.7845956 29.0833333,13.9512622 C29,14.0345956 28.8333333,14.1179289 28.75,14.1179289 C28.6666667,14.2012622 28.5,14.3679289 28.4166667,14.4512622 C28.5,14.4512622 28.4166667,14.6179289 28.5833333,14.6179289 C28.3333333,14.9512622 28.75,15.5345956 28.3333333,15.6179289 C27.9166667,15.7845956 27.4166667,15.7845956 26.9166667,15.6179289 C27.1666667,15.5345956 27.5,15.7012622 27.6666667,15.4512622 C27.6666667,15.3679289 27.6666667,15.2845956 27.6666667,15.2012622 C27.6666667,15.1179289 27.5833333,15.1179289 27.5833333,15.1179289 C27.5,15.2012622 27.5,15.2012622 27.5,15.2012622 C27.5,15.1179289 27.3333333,14.9512622 27.3333333,14.9512622 C27,15.0345956 26.6666667,14.8679289 26.4166667,14.6179289 C26.5833333,14.5345956 26.75,14.4512622 27,14.5345956 C27.1666667,14.5345956 27.0833333,14.2012622 27.25,14.1179289 C27.3333333,14.1179289 27.3333333,14.1179289 27.4166667,14.1179289 C27.75,13.6179289 28.5,13.4512622 28.5833333,13.0345956 C28.5833333,12.9512622 28.25,12.9512622 28,12.8679289 C27.6666667,12.7845956 27.3333333,12.8679289 27,12.8679289 C26.5,13.0345956 26.0833333,13.0345956 25.6666667,13.2845956 C26,13.0345956 26.4166667,12.7845956 26.8333333,12.6179289 C27.1666667,12.5345956 27.4166667,12.3679289 27.75,12.3679289 C28.0833333,12.2845956 28.5,12.2012622 28.75,12.2845956 C29.0833333,12.3679289 29.5,12.3679289 29.5833333,12.5345956 C29.5,13.0345956 29.25,13.3679289 28.9166667,13.6179289 Z" id="Shape" fill="#FFFFFF"></path>
                    </g>
                </g>
            </g>
        </g>
    </g>
</svg>