<svg width="21" height="22" viewBox="0 0 21 22" fill="none" xmlns="http://www.w3.org/2000/svg">
<path d="M13.5883 0.184758C13.9357 0.243888 15.4546 0.875848 15.8426 1.06803C16.9772 1.63716 18.947 3.75848 19.5605 4.92262C22.4025 10.3368 21.1274 18.3269 14.9224 20.7327C11.9511 21.8821 9.1054 21.7675 6.03429 21.6123C5.41342 21.5828 3.29579 21.7528 2.97427 21.5347C2.67122 21.3314 2.83014 20.681 2.80057 20.3225L12.3872 20.0343C13.5402 19.7534 15.255 19.2988 16.2307 18.6077C16.2676 18.5819 16.7 18.1458 16.8331 18.0201C19.8192 15.1486 20.5103 9.87479 18.7548 6.10524C18.1118 4.72675 16.5855 2.93434 15.2957 2.17673C15.0407 2.02521 13.555 1.28607 13.4146 1.28607H5.00689C4.95146 1.28607 4.95146 0.177368 5.00689 0.177368H13.5883V0.184758Z" fill="#E63A51"/>
<path d="M7.53467 10.5993C7.30924 10.3886 7.18358 10.2593 6.96923 10.0338C6.90641 9.96729 6.69206 9.54969 6.62923 9.37599C6.34466 8.59249 6.1451 8.01597 6.29662 7.11422C6.31879 6.98857 6.85097 5.86508 6.94706 5.73204C7.22054 5.35508 8.8762 4.50877 9.3456 4.43855C12.2393 3.99507 14.4308 7.45053 12.6569 9.97099C11.7773 11.2238 10.4395 11.4788 8.976 11.2682C8.684 11.2275 8.4623 11.0353 8.1925 10.9393C8.0188 10.8764 7.60489 10.6621 7.53467 10.5956V10.5993ZM9.7595 5.57682C6.08597 5.92791 7.44598 11.7967 11.1527 9.94139C11.9177 9.56079 12.291 8.47054 12.2134 7.65749C12.1838 7.35075 11.7884 6.49704 11.5667 6.2753C11.2119 5.92052 10.2621 5.52878 9.7595 5.57682Z" fill="#E63A51"/>
<path d="M1.31488 4.98913V21.4349C1.31488 21.4903 0.206182 21.4903 0.206182 21.4349V5.08152C0.206182 4.64543 1.03401 5.00391 1.31488 4.98913Z" fill="#E63A51"/>
<path d="M6.28917 11.8372C6.34461 11.8927 6.31874 12.4692 6.2707 12.6281C6.17091 12.9644 5.62765 13.1012 5.55743 13.5779C5.45026 14.306 5.76808 16.7747 5.36156 17.1701C5.26917 17.2588 4.31568 17.2329 4.16786 17.0112C4.02003 16.7895 4.02742 13.6851 4.11981 13.249C4.24546 12.6577 4.57808 12.4655 4.95503 12.1366C5.01417 12.0849 4.99569 11.9149 5.04743 11.8779C5.29134 11.7116 6.08222 11.6377 6.28917 11.8409V11.8372Z" fill="#E63A51"/>
<path d="M3.25507 4.44444e-07C3.71334 0.121961 3.61707 1.48197 3.25507 1.48197C2.94464 1.52631 1.31854 1.48197 1.31854 1.48197C1.31854 1.48197 1.40723 3.42589 1.31854 3.51459C1.22984 3.60329 0.102661 3.66242 0.0213511 3.05263C-0.0266889 2.69785 0.0213511 4.44444e-07 0.0213511 4.44444e-07C0.0213511 4.44444e-07 2.77928 -5.55556e-07 3.25507 4.44444e-07Z" fill="#E63A51"/>
<path d="M14.4197 13.1196C14.3458 13.0383 13.8136 13.127 13.6806 12.4728C13.4441 11.305 14.7154 11.6782 15.2956 12.2437C15.3215 12.2696 15.7132 12.8054 15.7132 12.8424V16.9076C15.7132 17.3696 14.4197 17.0702 14.4197 17C14.4197 16.4531 14.5491 13.2637 14.4197 13.1196Z" fill="#E63A51"/>
</svg>
