<svg width="16" height="16" viewBox="0 0 16 16" fill="none" xmlns="http://www.w3.org/2000/svg">
<g clip-path="url(#clip0_1_2)">
<path d="M8.52886 13.4213C8.52886 13.5115 8.52976 13.6018 8.52886 13.692C8.52795 14.128 8.52976 14.5649 8.52886 15.0008H6.91135V12.1576C6.52863 12.1928 6.06919 12.1098 5.69731 12.1576C5.66482 12.1621 5.60163 12.1351 5.60705 12.1847L5.65308 14.9557C5.63683 15.0107 5.58899 14.9981 5.54477 15.0035C5.17108 15.045 4.51487 15.0198 4.12493 15.0008C4.09424 14.999 4.06445 15.0035 4.03467 15.0008C4.03647 14.6705 4.0816 7.52187 4.03467 4.71118H8.52886C8.52073 7.58415 8.54059 10.5492 8.52886 13.4213Z" fill="#960928"/>
<path d="M7.76538 4.75634V3.44757H9.15904V6.29076H10.5753C10.5942 6.29076 10.6511 6.22036 10.6403 6.18245L10.6421 3.44757H12.0357V13.4213H8.52991C8.54164 10.5492 8.52539 7.63292 8.53352 4.76085L7.76538 4.75634Z" fill="#020101"/>
<path d="M9.6862 0.570049C10.5284 0.428341 10.9436 1.43564 10.3045 1.91221C9.75751 2.32109 9.0318 1.85716 9.11755 1.17208C9.15275 0.887765 9.40368 0.617887 9.6862 0.570049Z" fill="#060606"/>
<path d="M5.69745 12.1576L5.65232 14.9557L5.60628 12.1847C5.60087 12.136 5.66405 12.1622 5.69745 12.1576Z" fill="#8D0022"/>
</g>
<defs>
<clipPath id="clip0_1_2">
<rect width="16" height="16" fill="white"/>
</clipPath>
</defs>
</svg>
