<svg width="24" height="24" viewBox="0 0 24 24" fill="none" xmlns="http://www.w3.org/2000/svg">
<g clip-path="url(#clip0_2_10)">
<mask id="mask0_2_10" style="mask-type:luminance" maskUnits="userSpaceOnUse" x="0" y="0" width="24" height="24">
<path d="M24 0H0V24H24V0Z" fill="white"/>
</mask>
<g mask="url(#mask0_2_10)">
<mask id="mask1_2_10" style="mask-type:luminance" maskUnits="userSpaceOnUse" x="0" y="0" width="24" height="24">
<path d="M23.5 0H0.25V24H23.5V0Z" fill="white"/>
</mask>
<g mask="url(#mask1_2_10)">
<path d="M7.74245 1.54029C9.18483 0.929351 10.3343 -0.577929 12.0162 0.234928C14.9407 1.64837 17.7858 3.76529 20.7102 5.23892C22.2841 6.07895 21.5811 8.06515 21.7276 9.51936C24.0897 10.1801 24.0923 13.4464 21.7276 14.1253C21.6547 15.1317 21.8395 16.3012 21.7321 17.2868C21.6 18.499 20.0574 19.0976 19.1077 19.6581C16.9233 20.9479 14.5111 22.4558 12.2759 23.6026C11.7481 23.8732 11.3347 24.0712 10.7073 23.9754C9.47513 23.4648 8.3621 22.6933 7.18918 22.0604C6.7303 22.382 6.35343 22.6985 5.76112 22.7535C3.94837 22.9218 2.7709 21.4508 3.11393 19.7208C1.91107 18.9695 0.438094 18.6899 0.322885 17.0312C0.0924679 13.7196 0.503834 10.1471 0.322885 6.80833C0.322885 6.31841 0.572178 5.91004 0.87875 5.55021L3.83902 3.80412C3.87743 3.96333 4.0395 4.50048 4.12021 4.62474C4.20092 4.749 4.45217 4.76259 4.35974 5.03311L1.89089 6.49186C1.78154 6.58181 1.66894 6.7559 1.6416 6.89052C1.50947 7.54029 1.62663 8.97832 1.62403 9.72387C1.61817 11.3684 1.65657 13.0465 1.69432 14.6981C1.71059 15.4022 1.57781 16.637 1.72361 17.257C1.74249 17.3366 1.80823 17.4577 1.87006 17.5159L3.75701 18.6038C3.98352 18.6485 4.1866 18.3941 4.4001 18.2977C6.17314 17.4958 8.09914 18.9365 7.75416 20.8385L10.8186 22.6377C11.0379 22.7496 11.2723 22.6474 11.4721 22.5458L20.1921 17.5036L20.3946 17.2519L20.4199 14.1292C20.1433 13.8982 19.7879 13.7959 19.5178 13.5383C18.5206 12.585 18.5519 10.8357 19.6551 9.98598C19.9012 9.79635 20.1986 9.72452 20.4199 9.51742C20.362 8.69809 20.5371 7.67619 20.4245 6.8821C20.3959 6.67954 20.3125 6.50286 20.1257 6.40319L11.1922 1.31054C11.0672 1.26071 10.9377 1.26912 10.8186 1.33189L8.45778 2.70392C8.3634 2.22694 8.30222 2.39262 8.15381 2.16611C8.04511 2.00108 7.91233 1.68267 7.74245 1.54029ZM20.9342 10.6086C19.1989 10.8804 19.9142 13.6963 21.682 12.9048C22.9233 12.3495 22.3381 10.3885 20.9342 10.6086ZM5.25342 19.2089C3.77849 19.4439 3.98157 21.6197 5.43177 21.6384C7.12995 21.6604 6.95812 18.9371 5.25342 19.2089Z" fill="#2C3574"/>
<path d="M7.74248 1.54029C7.91236 1.68267 8.0458 2.00108 8.15385 2.16611C8.30225 2.39262 8.36409 2.22759 8.45781 2.70392C8.87439 4.81502 6.93277 6.42584 4.9957 5.40136C4.80238 5.29911 4.52705 4.98975 4.35912 5.03182C4.4522 4.7613 4.199 4.74447 4.11959 4.62345C4.04018 4.50243 3.87681 3.96203 3.83841 3.80283C3.32355 1.67749 6.02086 0.0964346 7.74248 1.54029ZM6.03778 2.13569C4.48214 2.28843 4.62339 4.80854 6.46998 4.51084C7.79911 4.29662 7.62337 1.98037 6.03778 2.13569Z" fill="#DE0C18"/>
<path d="M13.7288 9.94715C13.7568 10.2313 14.1929 9.88178 14.4649 9.94779C14.5137 9.95944 14.504 10.0643 14.5541 10.0753C14.739 10.1167 14.9811 10.0598 15.095 10.3348C15.2636 10.7432 15.1438 12.2116 15.1575 12.7624C15.1614 12.9151 15.2252 13.0568 15.2278 13.2096C15.2519 14.4321 15.218 15.6598 15.2089 16.8823C15.0442 17.5301 13.6415 17.2972 13.1078 17.3159C11.6544 17.3671 10.2074 17.3561 8.74876 17.3806C8.13627 17.391 7.45999 17.646 7.2862 16.7704C7.26081 14.6677 7.24519 12.5663 7.22241 10.4636C7.37472 10.4901 7.42094 10.2791 7.50295 10.2261C7.55046 10.195 7.64549 10.2131 7.721 10.1834C7.74313 10.1743 7.74443 10.0889 7.78804 10.0779C7.96769 10.0339 8.36669 10.0805 8.58799 10.0759C10.1775 10.0423 11.7858 10.0772 13.3734 10.0145C13.499 10.0093 13.6169 10.0119 13.7288 9.94715ZM13.7932 15.9607V11.5308C13.7932 11.5075 13.7268 11.426 13.7171 11.3794C13.3031 11.2978 12.8533 11.4272 12.4621 11.4363C11.3426 11.4635 9.87026 11.3017 8.81255 11.4305C8.7429 11.4389 8.66284 11.4279 8.61663 11.4939C8.58604 12.996 8.7019 14.5117 8.65308 16.0248L13.7932 15.9607Z" fill="#2C3574"/>
<path d="M15.095 10.3348C14.9811 10.0591 14.7389 10.1167 14.5541 10.0753C14.5046 10.0643 14.5137 9.95944 14.4649 9.94779C14.1928 9.88178 13.7567 10.2313 13.7287 9.94715C13.6597 9.24172 13.814 8.65667 13.581 7.92795C13.0505 6.26793 10.5686 5.86862 9.33585 6.97142C8.3556 7.84834 8.61335 8.88966 8.58927 10.0766C8.36796 10.0811 7.96896 10.0345 7.78932 10.0785C7.74571 10.0895 7.74441 10.175 7.72228 10.184C7.64612 10.2144 7.55174 10.1963 7.50423 10.2267C7.42221 10.2798 7.376 10.4908 7.22369 10.4642C7.21262 9.41193 7.00499 8.40492 7.38772 7.36167C8.42524 4.53414 12.5291 4.16784 14.3425 6.46014C15.2655 7.62636 15.0182 8.63855 15.1438 9.99957C15.1549 10.1206 15.2037 10.2326 15.0963 10.3342L15.095 10.3348Z" fill="#DE0C18"/>
<path d="M11.2352 12.2958C11.4825 12.2919 11.7722 12.4983 11.8932 12.7087C11.8607 13.328 12.1022 14.0328 11.903 14.6314C11.6837 15.2922 10.7516 15.2941 10.5706 14.6049C10.4997 14.335 10.5036 12.996 10.583 12.7384C10.6624 12.4809 10.9625 12.3003 11.2352 12.2958Z" fill="#DE0C18"/>
</g>
</g>
</g>
<defs>
<clipPath id="clip0_2_10">
<rect width="24" height="24" fill="white"/>
</clipPath>
</defs>
</svg>
