<svg width="16" height="16" viewBox="0 0 16 16" fill="none" xmlns="http://www.w3.org/2000/svg">
<rect width="16" height="16" fill="white"/>
<path d="M8.56836 1.41864C8.60514 1.42894 9.14811 1.68041 9.24081 1.73335C9.53951 1.90394 10.1163 2.3907 10.2664 2.69217C10.3694 2.901 10.259 2.97305 10.2899 3.10394C10.3135 3.20835 10.4444 3.28923 10.4753 3.43335C10.6607 4.27747 10.4886 5.28188 9.88088 5.926C9.72344 6.09217 9.27465 6.32453 9.19372 6.41129C8.93328 6.69805 9.21432 10.251 9.08336 10.8966C8.83616 11.2142 8.38884 11.9686 7.96801 11.9833C7.73994 11.9907 6.96596 11.3481 6.91888 11.1172C6.84678 10.7657 7.12193 10.6892 7.12193 10.4731C7.12193 10.3083 6.95861 10.2142 6.92329 10.0863C6.80263 9.64217 7.19404 9.5157 7.20139 9.29805C7.20139 9.27305 6.93801 9.176 6.9071 8.92158C6.86885 8.60688 7.14695 8.48482 7.12782 8.27158C7.11605 8.13776 6.96891 8.04953 6.93948 7.93776C6.79675 7.39511 6.97185 7.01276 6.88798 6.58923C6.8453 6.37158 6.32442 6.12894 6.12724 5.92305C4.33503 4.05247 6.26556 0.762761 8.56836 1.41864ZM8.44329 1.98188C8.26083 1.98629 8.0769 1.97305 7.89444 1.98188C7.80615 1.98629 7.62222 1.926 7.63988 2.05394C7.79733 2.051 7.95771 2.05982 8.11516 2.05394C8.20638 2.051 8.45359 2.11423 8.44329 1.98188ZM7.56631 2.05541C7.53982 2.02894 6.91593 2.14658 6.83648 2.17011C6.34354 2.31717 5.9698 3.28188 5.90211 3.72747C5.79028 4.46129 6.01247 4.93041 6.48333 5.46423C6.67756 5.68482 7.40592 6.09511 7.42211 6.15247C7.51481 6.49511 7.34854 7.18041 7.43682 7.5907C7.52511 8.001 8.03276 8.0407 7.82234 8.52453C7.77672 8.63041 7.56189 8.70247 7.56337 8.85835C7.56484 9.01423 7.86648 9.00541 7.86501 9.37453C7.86354 9.74364 7.59574 9.77158 7.57367 9.89658C7.54571 10.0539 8.03717 10.1716 7.81057 10.7172C7.76201 10.8333 7.45595 10.8245 7.74582 11.1789C8.06513 11.5701 8.35647 10.9628 8.51833 10.6936L8.53599 6.29953C8.61692 5.93188 9.12309 5.8907 9.39972 5.62453C10.2738 4.78629 10.1972 3.63482 9.59689 2.66423L8.59337 2.13041C8.6022 2.35835 8.87442 2.3657 8.94063 2.62747C9.16429 3.51864 8.43593 4.3657 7.62517 3.89217C7.21022 3.64953 6.8865 3.14217 7.09545 2.64658C7.14106 2.53923 7.6752 2.1657 7.56925 2.05688L7.56631 2.05541ZM7.83853 2.65688C7.54718 2.74511 7.54277 3.31423 7.90033 3.37747C8.59043 3.49953 8.53304 2.44658 7.83853 2.65688Z" fill="#CE4540"/>
<path d="M11.1977 6.34508C12.4381 7.40979 13.0193 9.65979 12.313 11.2054C11.1094 13.8392 8.34603 15.1936 5.63711 13.7348C3.51383 12.5907 2.71337 9.72743 3.71247 7.5539C3.80664 7.34802 4.0921 7.13626 4.11712 6.99802C4.18333 6.61567 3.47704 6.42743 4.86461 6.57155C4.90728 6.60243 5.00881 7.21861 5.00734 7.31273C5.00145 7.58332 4.67479 7.26273 4.50852 7.36126C4.43053 7.40685 4.07003 8.23037 4.02295 8.38185C3.19747 11.0304 5.09562 13.8216 7.89577 13.8039C10.9049 13.7848 13.0002 10.5098 11.5449 7.79802C11.4037 7.53332 10.5944 6.62596 10.5811 6.49214C10.5429 6.08773 10.9475 6.13185 11.1977 6.34508Z" fill="#CE4540"/>
<path d="M8.44326 1.98187C8.45356 2.11422 8.20636 2.05099 8.11513 2.05393C7.95769 2.05981 7.7973 2.05099 7.63986 2.05393C7.6222 1.92599 7.80613 1.98481 7.89442 1.98187C8.07688 1.97452 8.26228 1.98628 8.44326 1.98187Z" fill="#FDFDFD"/>
</svg>
