<?xml version="1.0" encoding="UTF-8"?>
<svg id="Calque_1" width="384" height="409" xmlns="http://www.w3.org/2000/svg" version="1.1" viewBox="0 0 384 409">
  <!-- Generator: Adobe Illustrator 29.4.0, SVG Export Plug-In . SVG Version: 2.1.0 Build 152)  -->
  <defs>
    <style>
      .st0, .st1, .st2 {
        fill: none;
      }

      .st3 {
        fill: #f6bd5f;
      }

      .st4 {
        fill: #845d48;
      }

      .st5 {
        stroke: #3a3a3a;
        stroke-width: .5px;
      }

      .st5, .st6 {
        fill: #3a3a3a;
      }

      .st5, .st2 {
        stroke-miterlimit: 10;
      }

      .st7 {
        fill: #cacafb;
      }

      .st8 {
        fill: #e4794a;
      }

      .st9 {
        fill: #fff;
      }

      .st10 {
        fill: #f0f0fc;
      }

      .st11 {
        fill: #6a6af4;
      }

      .st1 {
        stroke: #fff;
        stroke-width: 1.4px;
      }

      .st2 {
        stroke: #dda414;
        stroke-width: 1.7px;
      }
    </style>
  </defs>
  <path class="st4" d="M275.7,104.2l3.8,31.8s-.2,20.1,11.4,22.3c11.5,2.2,10.9.5,10.9.5,0,0-2.5,17.1.6,20s7,0,7,0c0,0,17-3,19-14.5,2-11.5-1.2-32.4-1.2-32.4l12.9-7.1v-8.7l-8.3-2.2-10.5-3.2-23-14.8-24.1,4.6,1.6,3.7Z"/>
  <path class="st10" d="M8.7,156.9c15.1-33,67.2-52,127.3-62.2,60.1-10.2,169.1,61,183.6,118.8,14.5,57.8-56.8,115.6-99.5,142.2s-124.8,12.5-165.9-23.1C13,297-12.7,203.5,8.7,156.9Z"/>
  <path class="st4" d="M182.8,188.8c-.4,0-9.7-1.5-10.5,1-.8,2.5,11.9,4.6,11.9,4.6,0,0-6.8,0-7.3,2-.4,1.4,11.1,2.8,17.7,3.6h0c5.2,13,27.4,60.2,37.1,65.2,5.9,3.1,16.7,4.3,23.1.5l6.2-3.5,2.4-21.4s-9.2-.3-11.7-.7c-4.9-.8-9.7-3.9-9.7-3.9l-2.5.3c-.6-2.2-26.6-45.9-31.3-55.3-3.4-7-16.9-14.9-18.6-12.9-1.7,2,5.1,9.3,5.1,9.3,0,0-20.2-5.2-21-2.5-.8,2.7,10.7,7.2,10.7,7.2,0,0-12-3.1-12.9,0-.9,3.1,10.8,6.3,11.2,6.4Z"/>
  <g>
    <path class="st0" d="M346.6,28.4c-.6-4.1-3.7-8.1-7-10.8-3.5-2.9-7.3-4.5-10.1-4.5h0c-1.3,0-2.3.3-3,1.1-.8.9-.3,2.3.3,3.3,2.9,5.3,13.3,12.2,19.8,11Z"/>
    <path class="st0" d="M326.5,38.2c-1.6-1.1-3.4-2-4.9-2h0c-.4,0-.8,0-1.1.2-.4.2-.7.4-.9.7-.4.5-.4,1.1-.1,1.8,1.1,2.6,6.3,5.9,11.4,6.4.3,0,.6,0,1,0-.6-2.6-2.8-5.3-5.4-7.2Z"/>
    <path class="st0" d="M327.2,132c-.1-.1-2.2.5-2.6,0-.6-.9,1-.6,1.3-.6,2-.2,6.6-2.8,8.4-4.1,5.7-4.2,1-12.9-5.6-10.6l-6.4,3.6h-.4c0-.1,0-.8,0-.8-3.2-.3-6.1-2.2-7.2-5.2-.6-1.5-.7-1.7-1.5-3.1s-1.2-3-1.2-4.6c-3-.1-5.9-2.1-7-4.9-.1,0-.5.5-.6.6h0c-4.6,4.4-12,2.5-13.8-3.6-1.4,1.1-2.9,1.9-4.7,2.2,1.2,5.1-2.4,9.8-7.5,10.3l-.2.6c-.1,2.9.5,9.5.5,9.5l1.6,20.7c1.2,11.4,10.5,18.4,21.8,16.9,6.5-.9,12.6-4.1,17.1-8.7,0,0,.2-.2.2-.3-.6-.4-1.1-.9-1.7-1.3.6.4,1.1.9,1.7,1.3,3-3.2,5.4-7,6.8-11.1.7-2.1,1.4-4.5,1.2-6.8ZM288.7,124.2c0,.2-.1.4-.3.6-.2.2-.4.3-.6.3h0s-.2,0-.2,0c-.1,0-.3,0-.4,0-.1,0-.2-.1-.3-.2,0,0-.2-.2-.2-.3s0-.2,0-.3l.2-2.1c0-.1,0-.2,0-.3,0-.1.1-.2.2-.3.1,0,.2-.1.4-.2.1,0,.3,0,.4,0s.3,0,.4,0c.1,0,.2.1.3.2,0,0,.2.2.2.3,0,.1,0,.2,0,.3v2.1ZM291,115.2c0,.1-.1.2-.2.3-.2.2-.4.3-.7.3h0c-.3,0-.5,0-.7-.1-.3-.2-.7-.3-1-.2-.4,0-.7.2-1,.4-.2.1-.5.2-.7.2-.3,0-.5-.1-.7-.3-.2-.2-.3-.4-.3-.6,0-.2.1-.4.3-.6.6-.5,1.4-.8,2.3-.9.9,0,1.7.1,2.4.5.1,0,.2.2.3.3,0,.1.1.2.1.3s0,.2,0,.3ZM292.1,136.6c-1.1-1.6,2.6-8.3,3.8-9.4.2-.2.4-.3.7-.3s.5,0,.7.2c.2.2.3.4.3.6,0,.2,0,.5-.3.6-1.4,1.2-3.6,6.9-3.5,7.3.3.5,1.7.4,2.3.3.1,0,.3,0,.4,0,.1,0,.3,0,.4.1.1,0,.2.1.3.2s.1.2.2.3c0,.1,0,.2,0,.3,0,.1,0,.2-.2.3,0,.1-.2.2-.3.3-.1,0-.2.1-.4.1h-.5c0,0,0,0,0,0-1,.1-3,.2-3.9-1.1ZM302.2,145.6c0,.2-.2.3-.3.4-.2.1-.3.2-.5.2h0c-.2,0-.3,0-.4,0-.1,0-.3,0-.4-.2-.7-.5-2.7-1.6-4.4-1.1-.3,0-.5,0-.8,0-.2-.1-.4-.3-.5-.5s0-.5,0-.7.3-.4.6-.5c3.1-1,6.3,1.4,6.4,1.5.1.1.3.3.3.4,0,.2,0,.3,0,.5ZM309.2,126.1c0,.2-.1.4-.3.6-.2.2-.4.3-.6.3h0c0,0-.1,0-.2,0-.3,0-.5-.1-.7-.3-.2-.2-.3-.4-.3-.6l.2-2.1c0-.2.1-.5.3-.6.2-.2.5-.2.7-.2s.5.1.7.3c.2.2.3.4.3.6l-.2,2.1ZM311.3,121.6c0,.2-.2.4-.5.6-.1,0-.3.1-.4.1h0c-.2,0-.4,0-.6,0-.2,0-.3-.2-.4-.3-.2-.3-.5-.5-.8-.6-.3,0-.7,0-1.1,0-.3,0-.5,0-.8,0-.2,0-.4-.3-.5-.5,0-.2,0-.5,0-.7.1-.2.3-.4.6-.5.8-.3,1.7-.3,2.5,0,.8.2,1.5.7,1.9,1.3.1.2.2.4.1.7ZM331.4,120.2c.3.2,1.7,1.4,1.2,1.8-.6.3-.7-.4-1.1-.7-2.4-2-5.9-1.2-6.8,1.8,1.6-.3,2.9-.2,4.3.6.3.2,1.7,1.2,1.1,1.6-.3.2-1.3-.8-1.7-1-.9-.6-1.8-.7-2.9-.6-1.5.2-1.1,1.3-.6,2.3.1.3,1.2,1.5.6,1.7-.6.2-1.5-1.8-1.6-2.3-1.1-4.4,3.8-8,7.6-5.4Z"/>
    <path class="st0" d="M329.9,28.1c-2.4-1.8-4.5-2.7-6-2.7s-1.4.2-1.7.8c-.1.2-.6.8,0,2,1.5,3.6,8.8,8.3,15.2,9-1.3-3.2-4.1-6.6-7.4-9.1Z"/>
    <path class="st7" d="M230.7,67.5c0-1.8-.7-3.6-1.9-4.9-1.2-1.3-2.9-2-4.6-2H69.6c-1.7,0-3.4.7-4.6,2-1.2,1.3-1.9,3-1.9,4.9v13.9h167.5v-13.9ZM77.9,74.9c-1.5,0-2.8-1.3-2.8-2.9s1.2-2.9,2.8-2.9,2.8,1.3,2.8,2.9-1.2,2.9-2.8,2.9ZM88.2,74.9c-1.5,0-2.8-1.3-2.8-2.9s1.2-2.9,2.8-2.9,2.8,1.3,2.8,2.9-1.2,2.9-2.8,2.9ZM98.5,74.9c-1.5,0-2.8-1.3-2.8-2.9s1.2-2.9,2.8-2.9,2.8,1.3,2.8,2.9-1.2,2.9-2.8,2.9Z"/>
    <path class="st11" d="M224.2,207.5h.6c1.5,0,3-.7,4.1-1.8,1.1-1.2,1.7-2.7,1.7-4.4v-.7c0,1.8-.7,3.6-1.9,4.9-1.2,1.3-2.9,2-4.6,2Z"/>
    <path class="st11" d="M69.6,207.5h154.6c1.7,0,3.4-.7,4.6-2,1.2-1.3,1.9-3,1.9-4.9h0v-119.3H63.2v119.3c0,1.8.7,3.6,1.9,4.9,1.2,1.3,2.9,2,4.6,2ZM168.2,107.8l4.6-4.9,7.1,7.6,7.1-7.6,4.6,4.9-7.1,7.6,7.1,7.6-4.6,4.9-7.1-7.6-7.1,7.6-4.6-4.9,7.1-7.6-7.1-7.6ZM144.1,163.4l14.8-11,14.8,11,12.9-9.7,3.7,5.6-16.6,12.4-14.8-11-14.8,11-14.8-11-14.8,11h0s-16.6-12.4-16.6-12.4l3.7-5.6,12.9,9.6,14.8-11,14.8,11ZM101.1,102.9l7.1,7.6,7.1-7.6,4.6,4.9-7.1,7.6,7.1,7.6-4.6,4.9-7.1-7.6-7.1,7.6-4.6-4.9,7.1-7.6-7.1-7.6,4.6-4.9Z"/>
    <path class="st11" d="M228.8,205.5c-1.2,1.3-2.9,2-4.6,2h0c1.7,0,3.4-.7,4.6-2,1.2-1.3,1.9-3,1.9-4.9h0c0,1.8-.7,3.6-1.9,4.9Z"/>
    <polygon class="st9" points="101.7 153.8 98 159.4 114.6 171.8 114.6 171.8 129.3 160.8 144.1 171.8 158.9 160.8 173.6 171.8 190.2 159.4 186.5 153.7 173.6 163.4 158.9 152.4 144.1 163.4 129.3 152.4 114.6 163.4 101.7 153.8"/>
    <polygon class="st9" points="120 107.8 115.4 102.9 108.3 110.5 112.9 115.4 120 107.8"/>
    <polygon class="st9" points="96.6 123 101.1 127.9 108.3 120.3 103.7 115.4 96.6 123"/>
    <polygon class="st9" points="108.3 110.5 101.1 102.9 96.6 107.8 103.7 115.4 108.3 110.5"/>
    <polygon class="st9" points="115.4 127.9 120 123 112.9 115.4 108.3 120.3 115.4 127.9"/>
    <polygon class="st9" points="108.3 120.3 112.9 115.4 108.3 110.5 103.7 115.4 108.3 120.3"/>
    <polygon class="st9" points="191.7 107.8 187.1 102.9 179.9 110.5 184.5 115.4 191.7 107.8"/>
    <polygon class="st9" points="172.8 127.9 179.9 120.3 175.4 115.4 168.2 123 172.8 127.9"/>
    <polygon class="st9" points="172.8 102.9 168.2 107.8 175.4 115.4 179.9 110.5 172.8 102.9"/>
    <polygon class="st9" points="187.1 127.9 191.7 123 184.5 115.4 179.9 120.3 187.1 127.9"/>
    <polygon class="st9" points="184.5 115.4 179.9 110.5 175.4 115.4 179.9 120.3 184.5 115.4"/>
    <path class="st9" d="M77.9,69c-1.5,0-2.8,1.3-2.8,2.9s1.2,2.9,2.8,2.9,2.8-1.3,2.8-2.9-1.2-2.9-2.8-2.9Z"/>
    <path class="st9" d="M88.2,69c-1.5,0-2.8,1.3-2.8,2.9s1.2,2.9,2.8,2.9,2.8-1.3,2.8-2.9-1.2-2.9-2.8-2.9Z"/>
    <path class="st9" d="M98.5,69c-1.5,0-2.8,1.3-2.8,2.9s1.2,2.9,2.8,2.9,2.8-1.3,2.8-2.9-1.2-2.9-2.8-2.9Z"/>
    <path class="st8" d="M263.5,240.5c0,.1,0,.2,0,.3h0c0-.1,0-.2,0-.3Z"/>
    <path class="st3" d="M328.2,165s-15.3,15.6-22.8,13.9c-2-.5-3.3-2.4-3.7-5.8-.4-2.8-1-5.6-.6-8.4-11.3,1.2-25.7,4.4-34.8,11.4-8.2,6.3-21.4,49.7-24.1,60.1,5,3.7,12.8,4.8,18.6,4.8s1.9,0,2.8-.2c0-.1,0-.2,0-.3,0,.1,0,.2,0,.3h0c-1.2,11.2-3,25.4-4.6,40.7-1.3,13.1-1.5,18.5-2.4,33.3,9.1,10.6,105.1,9.7,108.1,4.1,0-6,.6-19.4,1.1-41.9l-1.2,2c-5.3,8.4-12.8,15.1-22.3,14.8-8.5-.3-19.4-11.2-34.2-34-11-17-19.6-34.2-19.6-34.3l14.3-19.4c.6-2.3,2.6-9.7,5-9.7,2.4.1,2.6,17.4,2.6,20,7.5,14.1,17.2,24.1,28.4,37.3v-.5c0,0,.1.2.1.2.4,1.2,3.8,3,10.5,4.4,9,1.9,18.6,1.9,27.8,1.2v-.5c7-33.8,5.7-64.4-3.1-77.9-7.8-11.9-32.2-15-45.8-15.4Z"/>
    <polygon class="st8" points="327.1 52.6 327.1 52.6 327.1 52.6 327.1 52.6"/>
    <path class="st8" d="M325.7,18.1c2.8,5.2,12.2,11.8,19.3,11.8s1.1,0,1.7-.1c0,1.4-.4,2.8-1,4-1.6,2.9-4.5,3.6-6.9,3.5-1.4-3.8-4.9-7.8-8.1-10.3-4.3-3.3-7.9-3.9-9.5-1.7-.5.7-.9,1.8-.2,3.4,1.8,4.1,9.8,9.3,16.8,9.9.4,1.6.3,3-.4,4.2-1,1.6-2.6,2.3-4.2,2.5-.2-.9-.5-1.8-.9-2.6-1.2-2.3-3-4.2-5-5.6-3.7-2.6-7.1-2.9-8.7-.7-.6.9-.7,2-.3,3.2,1.4,3.3,7.3,6.7,12.5,7.2.4,0,.8,0,1.2,0,0,.7-.2,1.4-.5,2.1-2.7,4.9-10.1.8-10.2.7-.1,0-.3-.1-.5,0-.2,0-.3.2-.4.3,0,.2-.1.4,0,.5,0,.2.2.3.3.4,1.6.9,4,1.8,6.4,1.8,2.2,0,4.2-.8,5.5-3.1.5-.9.7-1.9.7-2.9,2.3-.3,4-1.3,5.1-3.1.9-1.5,1-3.1.7-4.9,3.5,0,6.1-1.5,7.6-4.2.8-1.5,1.3-3.3,1.2-5,2.8-1,5.9-3.8,5.7-11.9,0,0,0-.2,0-.3,0,0,0-.2-.1-.2,0,0-.1-.1-.2-.1,0,0-.2,0-.2,0s-.2,0-.2,0c0,0-.2,0-.2.2,0,0-.1.1-.1.2,0,0,0,.2,0,.3.1,5.7-1.4,9.2-4.5,10.4-.7-4.4-4-8.7-7.5-11.5-3.3-2.7-7.2-4.7-10.4-4.8h-.9c-1.4,0-2.6.5-3.4,1.5-.6.7-1.5,2.2,0,5ZM322.1,28.1c-.6-1.2-.1-1.8,0-2,.4-.5,1-.8,1.7-.8,1.5,0,3.7.9,6,2.7,3.2,2.5,6.1,5.9,7.4,9.1-6.4-.7-13.6-5.5-15.2-9ZM330.9,45.3c-5.1-.5-10.3-3.8-11.4-6.4-.3-.7-.3-1.3.1-1.8.2-.3.6-.6.9-.7.4-.2.7-.2,1.1-.2h0c1.5,0,3.3.8,4.9,2,2.6,1.8,4.8,4.5,5.4,7.2-.3,0-.6,0-1,0ZM326.5,14.1c.7-.7,1.7-1.1,3-1.1h0c2.7,0,6.5,1.6,10.1,4.6,3.3,2.7,6.4,6.7,7,10.8-6.5,1.2-16.9-5.7-19.8-11-.6-1-1.1-2.5-.3-3.3Z"/>
    <path class="st6" d="M267.2,110.2c-1.3,2.8-1.1,5.9.5,8.5-1.1,1.2-2.2,2.5-2.8,4-2.6,6.1.7,13.3,7,15.3,2.4.8,4.5.7,6.9.2.2,1.7.2,3.4.4,5,1.5,10.5,11,17.8,21.5,16.6,0,0,10.7-.6,18.8-9.1,0-.1-.6-.7-.7-.6-4.6,4.6-10.6,7.9-17.1,8.7-11.3,1.5-20.7-5.6-21.8-16.9l-1.6-20.7s-.6-6.6-.5-9.5l.2-.6c5.1-.4,8.7-5.2,7.5-10.3,1.8-.3,3.3-1,4.7-2.2,1.8,6.1,9.2,8,13.8,3.6h0c0,0,.5-.7.6-.6,1.1,2.8,4,4.7,7,4.9,0,1.7.4,3.2,1.2,4.6s.9,1.6,1.5,3.1c1.2,3,4.1,5,7.2,5.2v.6s.5.1.5.1l6.4-3.6c6.7-2.2,11.3,6.4,5.6,10.6-1.7,1.3-6.3,3.9-8.4,4.1-.3,0-1.9-.3-1.3.6.4.6,2.4,0,2.6,0,.2,2.2.5,5.4.5,5.7.3,2.6.6,5.4.7,8l.8,1.7c5.8,2.1,12.4-.8,14.7-6.6.6-1.7.8-3.3.8-5,1.6-1,2.8-2.2,3.6-4,.2-.4.4-1.4.6-1.6.1-.2,1.2-.6,1.6-.8,4.3-2.8,4.8-9.2,1.2-12.7,1.7-2.3,2-5.2,1.1-7.9,6.4-8.1,0-19.9-10.3-18.6,4.4-5.6.5-13.9-6.7-13.7-.4,0-2.2.4-2.4.4-1.6-6.5-8.1-10.3-14.6-8.5-2.2-8.5-14.2-8.3-16.1.3-1.7,0-3.1.6-4.5,1.5-1-.8-1.8-1.6-2.9-2.2-8.1-4.2-17.4,2.1-16.9,11-6-.5-10.5,5.2-8.7,10.9-3.9,1.4-6.8,5-7.4,9.2-.6,4.5,1.4,8.5,5,11.2ZM279.7,141.1c0-.1,0-.2-.1-.3,0,.1,0,.2.1.3Z"/>
    <polygon class="st5" points="324.7 123.2 324.7 123.2 324.7 123.2 324.7 123.2"/>
    <path class="st5" d="M325.5,127.9c.7-.2-.4-1.4-.6-1.7-.5-1.1-.9-2.1.6-2.3,1.1-.1,2,0,2.9.6.4.2,1.4,1.3,1.7,1,.5-.4-.8-1.4-1.1-1.6-1.4-.9-2.7-.9-4.3-.6h0s0,0,0,0c0,0,0,0,0,0,.9-3,4.4-3.9,6.8-1.8.4.3.5,1,1.1.7.5-.4-.8-1.6-1.2-1.8-3.8-2.6-8.7,1-7.6,5.4.1.5,1,2.4,1.6,2.3Z"/>
    <path class="st6" d="M301.9,144.7c-.1-.1-3.2-2.4-6.4-1.5-.3,0-.5.2-.6.5s-.2.5,0,.7.3.4.5.5c.2.1.5.1.8,0,1.6-.5,3.7.7,4.4,1.1.1,0,.2.1.4.2.1,0,.3,0,.4,0h0c.2,0,.4,0,.5-.2.2-.1.3-.3.3-.4,0-.2,0-.3,0-.5,0-.2-.2-.3-.3-.4Z"/>
    <path class="st6" d="M290.6,114.3c-.7-.4-1.5-.6-2.4-.5-.8,0-1.7.4-2.3.9-.2.2-.3.4-.3.6,0,.2,0,.4.3.6.2.2.4.3.7.3.3,0,.5,0,.7-.2.3-.2.6-.4,1-.4.4,0,.7,0,1,.2.2.1.5.2.7.1h0c.3,0,.5-.2.7-.3,0,0,.1-.2.2-.3,0-.1,0-.2,0-.3s0-.2-.1-.3c0-.1-.2-.2-.3-.3Z"/>
    <path class="st6" d="M309.3,118.8c-.8-.2-1.7-.2-2.5,0-.3,0-.5.3-.6.5-.1.2-.1.5,0,.7,0,.2.3.4.5.5.2.1.5.1.8,0,.3-.1.7-.1,1.1,0,.3,0,.6.3.8.6.1.1.3.3.4.3.2,0,.4,0,.6,0h0c.1,0,.3,0,.4-.1.2-.1.4-.3.5-.6,0-.2,0-.5-.1-.7-.4-.6-1.1-1.1-1.9-1.3Z"/>
    <path class="st6" d="M296.1,137.7h0s.5,0,.5,0c.1,0,.3,0,.4-.1.1,0,.2-.2.3-.3,0-.1.1-.2.2-.3,0-.1,0-.2,0-.3,0-.1,0-.2-.2-.3s-.2-.2-.3-.2c-.1,0-.2-.1-.4-.1-.1,0-.3,0-.4,0-.6.1-1.9.2-2.3-.3-.1-.4,2.2-6,3.5-7.3.2-.2.3-.4.3-.6,0-.2-.1-.4-.3-.6-.2-.2-.5-.2-.7-.2s-.5.1-.7.3c-1.2,1.1-4.9,7.9-3.8,9.4.9,1.3,3,1.2,3.9,1.1Z"/>
    <path class="st6" d="M308.4,123.1c-.3,0-.5,0-.7.2-.2.2-.3.4-.3.6l-.2,2.1c0,.2,0,.5.3.6.2.2.4.3.7.3h.2,0c.2,0,.5-.1.6-.3.2-.2.3-.4.3-.6l.2-2.1c0-.2,0-.5-.3-.6-.2-.2-.4-.3-.7-.3Z"/>
    <path class="st6" d="M288.6,121.4c0,0-.2-.2-.3-.2-.1,0-.3,0-.4,0s-.3,0-.4,0c-.1,0-.2.1-.4.2-.1,0-.2.2-.2.3,0,.1,0,.2,0,.3l-.2,2.1c0,.1,0,.2,0,.3s.1.2.2.3c0,0,.2.2.3.2.1,0,.3,0,.4,0h.2c.2,0,.5-.1.6-.3.2-.2.3-.4.3-.6v-2.1c.1-.1.1-.2,0-.3,0-.1-.1-.2-.2-.3Z"/>
  </g>
  <path class="st4" d="M373.5,259.2c-18,0-26.6-.9-34.4-5.8-10.6-12.6-20.8-23-28.4-37.3,0,0,0-19.9-2.6-20-2.6-.1-5,9.8-5,9.8,0,0-7.5-19.9-10.2-18.8s.8,13.8.8,13.8c0,0-4.8-12.2-7.9-11-3.1,1.2,1.8,13.7,1.8,13.7,0,0-4.7-9.2-7.2-8.2-2.5,1,3.6,13.1,3.6,13.1,0,0-4.2-5.7-6.1-4.9-1.9.9,10,21.7,10,21.7,0,0,34.1,68.4,54.7,69.2,14.1.5,23.6-16.3,28.2-27l2.6-8.2h0Z"/>
  <path class="st2" d="M340.1,253.3c-.7-12.9,5-27.2,5.1-40.1,0,12.9-5.7,27.2-5.1,40.1Z"/>
  <path class="st2" d="M263.5,240.8c1.6-11.9,3.9-16.8,7.4-32.4-3.4,15.6-5.7,20.6-7.4,32.4Z"/>
  <g>
    <circle class="st8" cx="75.1" cy="218.1" r="40.3"/>
    <rect class="st9" x="55.6" y="214" width="36.8" height="7.5"/>
    <circle class="st1" cx="75.1" cy="217.5" r="32.7"/>
  </g>
</svg>
