<svg width="120" height="120" viewBox="0 0 120 120" fill="none" xmlns="http://www.w3.org/2000/svg">
<path fill-rule="evenodd" clip-rule="evenodd" d="M88.5 114C87.6729 114 87 113.327 87 112.5C87 111.673 87.6729 111 88.5 111C89.3271 111 90 111.673 90 112.5C90 113.327 89.3271 114 88.5 114Z" fill="#CACAFB"/>
<path fill-rule="evenodd" clip-rule="evenodd" d="M100.5 18C99.6729 18 99 17.3271 99 16.5C99 15.6728 99.6729 15 100.5 15C101.327 15 102 15.6728 102 16.5C102 17.3271 101.327 18 100.5 18Z" fill="#CACAFB"/>
<path fill-rule="evenodd" clip-rule="evenodd" d="M13.5 24C12.6729 24 12 23.3271 12 22.5C12 21.6728 12.6729 21 13.5 21C14.3271 21 15 21.6728 15 22.5C15 23.3271 14.3271 24 13.5 24Z" fill="#CACAFB"/>
<path fill-rule="evenodd" clip-rule="evenodd" d="M82.5 45H67.5C66.6716 45 66 45.6716 66 46.5V58.5C66 59.3284 66.6716 60 67.5 60H82.5C83.3284 60 84 59.3284 84 58.5V46.5C84 45.6716 83.3284 45 82.5 45ZM81 48V57H69V48H81Z" fill="#E1000F"/>
<path fill-rule="evenodd" clip-rule="evenodd" d="M93 67.5C93 66.6716 92.3284 66 91.5 66H76.5C75.6716 66 75 66.6716 75 67.5V79.5C75 80.3284 75.6716 81 76.5 81H91.5C92.3284 81 93 80.3284 93 79.5V67.5ZM90 69V78H78V69H90Z" fill="#E1000F"/>
<path d="M91.5 45C92.3284 45 93 45.6716 93 46.5C93 47.2693 92.4209 47.9033 91.6749 47.9899L91.5 48H88.5C87.6716 48 87 47.3284 87 46.5C87 45.7307 87.5791 45.0967 88.3251 45.0101L88.5 45H91.5Z" fill="#E1000F"/>
<path d="M93 52.5C93 51.6716 92.3284 51 91.5 51H88.5L88.3251 51.0101C87.5791 51.0967 87 51.7307 87 52.5C87 53.3284 87.6716 54 88.5 54H91.5L91.6749 53.9899C92.4209 53.9033 93 53.2693 93 52.5Z" fill="#E1000F"/>
<path d="M91.5 57C92.3284 57 93 57.6716 93 58.5C93 59.2693 92.4209 59.9033 91.6749 59.9899L91.5 60H88.5C87.6716 60 87 59.3284 87 58.5C87 57.7307 87.5791 57.0967 88.3251 57.0101L88.5 57H91.5Z" fill="#E1000F"/>
<path d="M72 67.5C72 66.6716 71.3284 66 70.5 66H67.5L67.3251 66.0101C66.5791 66.0967 66 66.7307 66 67.5C66 68.3284 66.6716 69 67.5 69H70.5L70.6749 68.9899C71.4209 68.9033 72 68.2693 72 67.5Z" fill="#E1000F"/>
<path d="M70.5 72C71.3284 72 72 72.6716 72 73.5C72 74.2693 71.4209 74.9033 70.6749 74.9899L70.5 75H67.5C66.6716 75 66 74.3284 66 73.5C66 72.7307 66.5791 72.0967 67.3251 72.0101L67.5 72H70.5Z" fill="#E1000F"/>
<path d="M72 79.5C72 78.6716 71.3284 78 70.5 78H67.5L67.3251 78.0101C66.5791 78.0967 66 78.7307 66 79.5C66 80.3284 66.6716 81 67.5 81H70.5L70.6749 80.9899C71.4209 80.9033 72 80.2693 72 79.5Z" fill="#E1000F"/>
<path d="M24 31.5C24 32.3271 24.6729 33 25.5 33C26.3271 33 27 32.3271 27 31.5C27 30.6728 26.3271 30 25.5 30C24.6729 30 24 30.6728 24 31.5Z" fill="#000091"/>
<path d="M31.5 33C30.6729 33 30 32.3271 30 31.5C30 30.6728 30.6729 30 31.5 30C32.3271 30 33 30.6728 33 31.5C33 32.3271 32.3271 33 31.5 33Z" fill="#000091"/>
<path d="M36 31.5C36 32.3271 36.6729 33 37.5 33C38.3271 33 39 32.3271 39 31.5C39 30.6728 38.3271 30 37.5 30C36.6729 30 36 30.6728 36 31.5Z" fill="#000091"/>
<path d="M48 42.3512C47.9994 42.1623 47.839 42 47.6311 42H45.5662L45.4669 42.013C45.3398 42.047 45.2384 42.1448 45.2072 42.2725L43.1721 50.592L43.1731 50.1897L43.1615 50.1018L43.1283 50.0211C43.0852 49.9452 43.0135 49.8852 42.9241 49.8558L39.7299 48.8061L42.9241 47.7576L43.0072 47.7186C43.1091 47.6543 43.1731 47.5444 43.1731 47.4238V45.5798L43.1617 45.4918C43.1097 45.2962 42.8888 45.1749 42.6783 45.2482L36.2427 47.489L36.1615 47.5288C36.0621 47.5934 36 47.702 36 47.8207V49.7927L36.0113 49.8793C36.0407 49.9909 36.1261 50.0838 36.2427 50.1244L42.6783 52.3653L42.7356 52.3779L42.4454 53.5666L42.4355 53.6488C42.4361 53.8377 42.5965 54 42.8044 54H44.8693L44.9686 53.987C45.0957 53.953 45.1971 53.8552 45.2283 53.7275L46.7183 47.6345C46.7318 47.6408 46.7459 47.6463 46.7604 47.6511L50.0986 48.7494L46.7604 49.8489L46.6735 49.8898C46.5669 49.9571 46.5 50.0722 46.5 50.1986V52.13L46.5119 52.2222C46.5662 52.427 46.7973 52.5541 47.0173 52.4774L53.7463 50.1302L53.8312 50.0886C53.9351 50.0209 54 49.9071 54 49.7828V47.7172L53.9882 47.6265C53.9574 47.5097 53.8681 47.4123 53.7463 47.3698L47.3303 45.1318L47.9901 42.4334L48 42.3512Z" fill="#000091"/>
<path d="M24 48V42H27V48H24Z" fill="#000091"/>
<path d="M24 54V51H27V54H24Z" fill="#000091"/>
<path d="M27 63V57H24V63H27Z" fill="#000091"/>
<path d="M24 72V66H27V72H24Z" fill="#000091"/>
<path d="M27 78V75H24V78H27Z" fill="#000091"/>
<path fill-rule="evenodd" clip-rule="evenodd" d="M100.5 24H19.5C18.6716 24 18 24.6716 18 25.5V94.5C18 95.3284 18.6716 96 19.5 96H100.5C101.328 96 102 95.3284 102 94.5V25.5C102 24.6716 101.328 24 100.5 24ZM91.5 87H99V39H85.5C84.6716 39 84 38.3284 84 37.5C84 36.7307 84.5791 36.0967 85.3251 36.0101L85.5 36H99V27H21V36H76.5C77.3284 36 78 36.6716 78 37.5C78 38.2693 77.4209 38.9033 76.6749 38.9899L76.5 39H60V87H82.5C83.3284 87 84 87.6716 84 88.5C84 89.2693 83.4209 89.9033 82.6749 89.9899L82.5 90H21V93H99V90H91.5C90.6716 90 90 89.3284 90 88.5C90 87.7307 90.5791 87.0967 91.3251 87.0101L91.5 87ZM33 87H57V39H33V87ZM21 39H30V87H21V39Z" fill="#000091"/>
</svg>
