<svg width="120" height="120" viewBox="0 0 120 120" fill="none" xmlns="http://www.w3.org/2000/svg">
<path fill-rule="evenodd" clip-rule="evenodd" d="M25.5 12C24.6729 12 24 11.3271 24 10.5C24 9.67283 24.6729 9 25.5 9C26.3271 9 27 9.67283 27 10.5C27 11.3271 26.3271 12 25.5 12Z" fill="#CACAFB"/>
<path fill-rule="evenodd" clip-rule="evenodd" d="M10.5 96C9.6729 96 9 95.3271 9 94.5C9 93.6728 9.6729 93 10.5 93C11.3271 93 12 93.6728 12 94.5C12 95.3271 11.3271 96 10.5 96Z" fill="#CACAFB"/>
<path fill-rule="evenodd" clip-rule="evenodd" d="M115.5 87C114.673 87 114 86.3271 114 85.5C114 84.6728 114.673 84 115.5 84C116.327 84 117 84.6728 117 85.5C117 86.3271 116.327 87 115.5 87Z" fill="#CACAFB"/>
<path fill-rule="evenodd" clip-rule="evenodd" d="M91.5 9C90.6729 9 90 8.3271 90 7.5C90 6.67283 90.6729 6 91.5 6C92.3271 6 93 6.67283 93 7.5C93 8.3271 92.3271 9 91.5 9Z" fill="#CACAFB"/>
<path fill-rule="evenodd" clip-rule="evenodd" d="M58.5 63C53.5294 63 49.5 67.0294 49.5 72C49.5 75.3313 51.3099 78.2398 54 79.796V85.5C54 87.9853 56.0147 90 58.5 90C60.9853 90 63 87.9853 63 85.5V79.796C65.6901 78.2398 67.5 75.3313 67.5 72C67.5 67.0294 63.4706 63 58.5 63ZM58.5 78C61.8137 78 64.5 75.3137 64.5 72C64.5 68.6863 61.8137 66 58.5 66C55.1863 66 52.5 68.6863 52.5 72C52.5 75.3137 55.1863 78 58.5 78ZM57 81V85.5C57 86.2693 57.5791 86.9033 58.3251 86.9899L58.5 87C59.3284 87 60 86.3284 60 85.5V81H57Z" fill="#E1000F"/>
<path d="M88.1006 93.782L87.9643 95.2377H86.1331L85.8214 91.9918C88.0812 91.7557 89.5617 91.2639 89.5617 89.5918C89.5617 88.5689 88.7825 87.8607 87.7695 87.8607C86.737 87.8607 86.0942 88.4115 85.3734 89.4934L83.25 88.1754C84.3409 86.4246 85.8214 85.5 87.8864 85.5C90.1851 85.5 92.25 87.0934 92.25 89.5918C92.25 91.8934 90.5162 93.3689 88.1006 93.782Z" fill="#000091"/>
<path d="M88.763 98.1885C88.763 99.1131 87.9643 99.9 87.0682 99.9C86.1331 99.9 85.3539 99.1131 85.3539 98.1885C85.3539 97.2639 86.1331 96.4771 87.0682 96.4771C87.9643 96.4771 88.763 97.2639 88.763 98.1885Z" fill="#000091"/>
<path fill-rule="evenodd" clip-rule="evenodd" d="M58.5 15C73.1569 15 84 23.4849 84 36.2869C84 37.1153 83.3284 37.7869 82.5 37.7869C81.6716 37.7869 81 37.1153 81 36.2869C81 25.3252 71.6389 18 58.5 18C45.5436 18 36.2608 25.1231 36.0054 35.8323L36 36.2869V42H42C44.4853 42 46.5 44.0147 46.5 46.5V49.5C46.5 50.026 46.4098 50.5308 46.2439 51H70.7561C70.5902 50.5308 70.5 50.026 70.5 49.5V46.5C70.5 44.0147 72.5147 42 75 42V36.9343C75 29.2017 68.1046 24 58.3393 24C49.8279 24 43.3463 28.0201 41.9644 34.2514C41.7851 35.0602 40.984 35.5704 40.1752 35.3911C39.3665 35.2117 38.8562 34.4107 39.0356 33.6019C40.7594 25.8287 48.5447 21 58.3393 21C69.4336 21 77.7411 27.1382 77.9941 36.4934L78 36.9343V42H82.5C84.9853 42 87 44.0147 87 46.5V49.5C87 50.026 86.9098 50.5308 86.7439 51H87.0643C90.3016 51 92.8419 53.883 92.9929 57.4044L93 57.7364V67.5C93 68.3284 92.3284 69 91.5 69C90.7307 69 90.0967 68.4209 90.0101 67.6749L90 67.5V57.7364C90 55.7147 88.7423 54.142 87.2668 54.0091L87.0643 54H26.9357C25.4425 54 24.1199 55.4847 24.0077 57.4636L24 57.7364V72H34.5C35.3284 72 36 72.6716 36 73.5C36 74.2693 35.4209 74.9033 34.6749 74.9899L34.5 75H24V84H33L33.2644 84.0076C35.6266 84.1445 37.5 86.1035 37.5 88.5V99H73.2481C72.4453 97.1626 72 95.1333 72 93C72 84.7157 78.7157 78 87 78C95.2843 78 102 84.7157 102 93C102 101.284 95.2843 108 87 108C82.0925 108 77.7355 105.643 74.9989 102H26.9357C23.6984 102 21.1581 99.117 21.0071 95.5956L21 95.2636V57.7364C21 54.1773 23.4422 51.1864 26.6343 51.0084L26.9357 51H30.2561C30.0902 50.5308 30 50.026 30 49.5V46.5C30 44.533 31.262 42.8608 33.0205 42.2489C33.0165 42.2244 33.013 42.1998 33.0101 42.1749L33 42V36.2869C33 23.4849 43.8431 15 58.5 15ZM82.5 51C83.3284 51 84 50.3284 84 49.5V46.5C84 45.6716 83.3284 45 82.5 45H75C74.1716 45 73.5 45.6716 73.5 46.5V49.5C73.5 50.3284 74.1716 51 75 51H82.5ZM43.5 49.5C43.5 50.3284 42.8284 51 42 51H34.5C33.6716 51 33 50.3284 33 49.5V46.5C33 45.6716 33.6716 45 34.5 45H42C42.8284 45 43.5 45.6716 43.5 46.5V49.5ZM24 95.2636V87H33C33.7693 87 34.4033 87.5791 34.4899 88.3251L34.5 88.5V99H26.9357L26.7333 98.9909C25.2577 98.858 24 97.2853 24 95.2636ZM87 81C93.6274 81 99 86.3726 99 93C99 99.6274 93.6274 105 87 105C80.3726 105 75 99.6274 75 93C75 86.3726 80.3726 81 87 81Z" fill="#000091"/>
<path d="M93 73.5C93 74.3284 92.3284 75 91.5 75C90.6716 75 90 74.3284 90 73.5C90 72.6716 90.6716 72 91.5 72C92.3284 72 93 72.6716 93 73.5Z" fill="#000091"/>
<path d="M39 73.5C39 72.6716 39.6716 72 40.5 72C41.3284 72 42 72.6716 42 73.5C42 74.3284 41.3284 75 40.5 75C39.6716 75 39 74.3284 39 73.5Z" fill="#000091"/>
</svg>
