<svg width="120" height="120" viewBox="0 0 120 120" fill="none" xmlns="http://www.w3.org/2000/svg">
<path fill-rule="evenodd" clip-rule="evenodd" d="M102 19.5C101.173 19.5 100.5 18.8271 100.5 18C100.5 17.1728 101.173 16.5 102 16.5C102.827 16.5 103.5 17.1728 103.5 18C103.5 18.8271 102.827 19.5 102 19.5Z" fill="#CACAFB"/>
<path fill-rule="evenodd" clip-rule="evenodd" d="M61.5 114C60.6729 114 60 113.327 60 112.5C60 111.673 60.6729 111 61.5 111C62.3271 111 63 111.673 63 112.5C63 113.327 62.3271 114 61.5 114Z" fill="#CACAFB"/>
<path fill-rule="evenodd" clip-rule="evenodd" d="M22.5 15C21.6729 15 21 14.3271 21 13.5C21 12.6728 21.6729 12 22.5 12C23.3271 12 24 12.6728 24 13.5C24 14.3271 23.3271 15 22.5 15Z" fill="#CACAFB"/>
<path fill-rule="evenodd" clip-rule="evenodd" d="M56.0085 69.8685L46.4353 58.5519L46.2516 58.3543C45.1075 57.2489 43.3721 57.2288 42.2301 58.2953C41.0246 59.421 40.917 61.3433 41.9858 62.6066L54.2799 77.1374C54.3583 77.23 54.444 77.3162 54.5362 77.395C55.4811 78.2021 56.9013 78.0904 57.7084 77.1455L84.0049 46.3607L84.171 46.1469C85.0685 44.8558 84.8981 43.1022 83.7804 42.0483C82.5592 40.8969 80.6672 41.0044 79.574 42.2842L56.0085 69.8685Z" fill="#E1000F"/>
<path d="M17.1608 67.5535C12.989 43.8941 28.7868 21.3324 52.4463 17.1607C67.4778 14.5102 82.5437 19.9021 92.5104 31.0891C93.0615 31.7077 93.0068 32.6559 92.3883 33.2069C91.7697 33.758 90.8216 33.7033 90.2705 33.0848C80.9886 22.6664 66.9637 17.6471 52.9672 20.1151C30.9395 23.9992 16.2312 45.0048 20.1152 67.0325C23.9993 89.0603 45.005 103.769 67.0327 99.8845C89.0604 96.0004 103.769 74.9948 99.8847 52.967C99.7408 52.1512 100.286 51.3732 101.101 51.2294C101.917 51.0855 102.695 51.6303 102.839 52.4461C107.011 76.1055 91.213 98.6671 67.5536 102.839C43.8942 107.011 21.3326 91.2129 17.1608 67.5535Z" fill="#000091"/>
<path d="M105.336 70.3863C105.52 69.5786 106.324 69.0732 107.132 69.2575C107.94 69.4417 108.445 70.2458 108.261 71.0535C106.243 79.8979 101.823 87.9752 95.5392 94.4558C94.9625 95.0505 94.0129 95.0651 93.4181 94.4884C92.8234 93.9117 92.8088 92.9621 93.3855 92.3673C99.2899 86.2784 103.441 78.6917 105.336 70.3863Z" fill="#000091"/>
<path d="M108 62.9998C107.172 62.9998 106.5 63.6714 106.5 64.4998C106.5 65.3282 107.172 65.9998 108 65.9998C108.828 65.9998 109.5 65.3282 109.5 64.4998C109.5 63.6714 108.828 62.9998 108 62.9998Z" fill="#000091"/>
</svg>
