<svg id="Calque_1" data-name="Calque 1" xmlns="http://www.w3.org/2000/svg" viewBox="0 0 841.89 595.28"><defs><style>.cls-1{fill:#03325c;}.cls-2{fill:#00d07d;}</style></defs><title>Trustme-LOGOhorizontal+poweredbyA3BC-RVB-couleurs</title><path class="cls-1" d="M311.59,319.09V290.33h-4.44a2.69,2.69,0,0,1-2.68-2.79v-2.67a2.57,2.57,0,0,1,2.68-2.79h2.22c7.12,0,12.72-4.85,14.24-12.25.35-1.95,1.63-3.16,3.15-3.16h2.68a3,3,0,0,1,3.15,3.16v12.25h12a2.69,2.69,0,0,1,2.68,2.79v2.67a2.69,2.69,0,0,1-2.68,2.79h-12v29.13c0,4.12,2.33,6.55,5.25,6.55a8,8,0,0,0,7.7-4.49c1.64-2.18,4.44-1.45,4.44.85,0,9.35-6.65,19.18-19.37,19.18C319.05,341.55,311.59,333.78,311.59,319.09Z"/><path class="cls-1" d="M403,292.88c0,6.07-2.22,11.41-9,11.41-10.62,0-5.83-11.41-11.67-11.41-3.73,0-4.31,6.31-4.31,11.65v22.58c0,5.58,6.18,7,6.18,10.43V338c0,1.45-1.17,2.3-2.8,2.3H356.27c-1.63,0-2.8-.85-2.8-2.3v-.49c0-3.4,4.67-4.85,4.67-10.43V303c0-5.71-5.6-6.19-5.6-9.71v-.37c0-1.45.93-2.55,2.68-3.52l16.46-8c3-1.46,4.2.24,4.2,2.66v8.86c2.56-7.76,8.05-12,16.1-12C398.86,280.87,403,286.09,403,292.88Z"/><path class="cls-1" d="M470,337.06c0,3.27-4.55,4-12,4-7.24,0-10.39-1.82-11-7-3,4.86-8.52,7.53-16.45,7.53-11.79,0-21.82-8.38-21.82-23.91V297.37c0-5.7-4.67-7.16-4.67-10.19v-.49a3,3,0,0,1,2.68-2.79l17.39-2.42c3.38-.49,5.48.24,5.48,2.42l-.35,35.92c-.11,9.95,2.34,13.72,7.47,13.72,4.32,0,7.7-4.74,7.7-12.14v-24c0-5.7-4.66-7.16-4.66-10.19v-.49a3,3,0,0,1,2.68-2.79l17.39-2.42c3.38-.49,5.13.24,5.13,2.42V327C465,336.81,470,332.08,470,337.06Z"/><path class="cls-1" d="M474.23,327.23c0-5.47,3.62-7.77,8.28-7.77,11.67,0,7.71,16.62,17.39,16.62,3.5,0,6.3-1.82,6.3-6.67,0-15.9-30.92-6.55-30.92-30.09,0-10.81,10-18.45,24.62-18.45,14.82,0,24.51,6.67,24.51,14.56a7.51,7.51,0,0,1-7.82,7.4c-11.32,0-7.59-16.38-15.64-16.38-3.62,0-5.48,3.4-5.48,6.92,0,16.62,29.87,7.89,29.87,30.21,0,10.08-9.22,17.84-25.44,17.84C485.2,341.42,474.23,335.72,474.23,327.23Z"/><path class="cls-1" d="M535.6,319.09V290.33h-4.43a2.7,2.7,0,0,1-2.69-2.79v-2.67a2.57,2.57,0,0,1,2.69-2.79h2.22c7.11,0,12.71-4.85,14.23-12.25.35-1.95,1.63-3.16,3.15-3.16h2.68a3,3,0,0,1,3.16,3.16v12.25h12a2.7,2.7,0,0,1,2.68,2.79v2.67a2.69,2.69,0,0,1-2.68,2.79h-12v29.13c0,4.12,2.33,6.55,5.25,6.55a8,8,0,0,0,7.7-4.49c1.63-2.18,4.43-1.45,4.43.85,0,9.35-6.65,19.18-19.37,19.18C543.07,341.55,535.6,333.78,535.6,319.09Z"/><path class="cls-1" d="M679.94,337.66v.49c0,1.45-1.17,2.3-2.8,2.3H653.8c-1.63,0-2.8-.85-2.8-2.3v-.49c0-3.4,4.55-5,4.2-10.55L654,305.63c-.58-12.26-3-16.75-8-16.75-4.78,0-7.23,4.85-7.23,11.53a36.54,36.54,0,0,1,.35,5.09v21.61c0,5.58,4.2,7.15,4.2,10.55v.49c0,1.45-1.17,2.3-2.8,2.3H617.28c-1.75,0-2.8-.85-2.8-2.3v-.49c0-3.4,4.08-5,4.08-10.55V304.05c0-10.32-3-15.17-7.93-15.17-5.37,0-7.82,5-7.82,11.53v26.7c0,5.58,5.13,7.15,5.13,10.55v.49c0,1.45-1.05,2.3-2.8,2.3h-25.2c-1.75,0-2.8-.85-2.8-2.3v-.49c0-3.4,5.13-5,5.13-10.55V303.2c0-5.7-6.18-6.56-6.18-10.07v-.37c0-1.45,1.16-2.18,2.8-3l17.5-8.37c2.92-1.46,4.44.48,4.44,2.91v4.37a18.34,18.34,0,0,1,15.51-7.77c8.06,0,15.06,3.4,19.14,9.95,3.15-6.31,9.57-9.95,17.27-9.95,10,0,20.07,5.82,21.47,25.48l1.52,20.76C676.09,332.69,679.94,334.26,679.94,337.66Z"/><path class="cls-1" d="M735.94,322.86c-.24,6.67-8.4,18.69-23.69,18.69-16.92,0-28.82-12.26-28.82-30.71,0-18,13.42-30,28.7-30s22.29,9,22.29,16.63a8.16,8.16,0,0,1-4.55,7.52l-23.22,13.59c3,5,7.58,7.89,13.3,7.89,5,0,9.57-2.43,11.67-5.34C733.25,319.46,736.05,320.19,735.94,322.86Zm-33.72-23.3A42.29,42.29,0,0,0,704,312.3l10.85-6.8a7.55,7.55,0,0,0,3-6.18c0-3.89-1.86-12.5-7.82-12.5C705.25,286.82,702.22,292.52,702.22,299.56Z"/><circle class="cls-2" cx="137.52" cy="261.09" r="27.04"/><path class="cls-2" d="M169.1,361.23V298.08H106A63.19,63.19,0,0,0,169.1,361.23Z"/><circle class="cls-2" cx="212.45" cy="261.09" r="27.04"/><path class="cls-2" d="M180.88,361.23V298.08H244A63.19,63.19,0,0,1,180.88,361.23Z"/><path class="cls-1" d="M314.19,420.47V387.73H325a13.9,13.9,0,0,1,6.31,1.26,8.42,8.42,0,0,1,3.67,3.42,9.78,9.78,0,0,1,1.19,4.86,9.91,9.91,0,0,1-1.17,4.82,8.44,8.44,0,0,1-3.64,3.44,13.92,13.92,0,0,1-6.36,1.28h-6.83v13.66Zm3.93-17h6.73q3.93,0,5.59-1.66a6.13,6.13,0,0,0,1.66-4.56,6.19,6.19,0,0,0-1.66-4.6q-1.67-1.67-5.59-1.66h-6.73Z"/><path class="cls-1" d="M350.25,421a11.66,11.66,0,0,1-5.9-1.5,10.78,10.78,0,0,1-4.13-4.23,14.28,14.28,0,0,1,0-12.86,11,11,0,0,1,4.18-4.23,11.81,11.81,0,0,1,5.92-1.5,11.62,11.62,0,0,1,5.89,1.5,10.8,10.8,0,0,1,4.14,4.23,13.06,13.06,0,0,1,1.52,6.43,12.86,12.86,0,0,1-1.54,6.43,10.92,10.92,0,0,1-4.19,4.23A11.75,11.75,0,0,1,350.25,421Zm0-3.37a7.51,7.51,0,0,0,3.74-1,7.33,7.33,0,0,0,2.8-2.95,10,10,0,0,0,1.08-4.86,10.22,10.22,0,0,0-1.05-4.86,7.12,7.12,0,0,0-2.79-2.95,7.39,7.39,0,0,0-3.69-1,7.49,7.49,0,0,0-3.74,1,7.29,7.29,0,0,0-2.81,2.95,11.57,11.57,0,0,0,0,9.72,7.44,7.44,0,0,0,2.79,2.95A7.26,7.26,0,0,0,350.25,417.66Z"/><path class="cls-1" d="M371.15,420.47l-6.78-23.2h3.93l4.91,18.19,5.42-18.19h4.45l5.47,18.19,4.86-18.19h4l-6.79,23.2h-4l-5.7-19.13-5.71,19.13Z"/><path class="cls-1" d="M411.28,421a11.42,11.42,0,0,1-5.9-1.52,10.76,10.76,0,0,1-4-4.23,13.28,13.28,0,0,1-1.48-6.41,13.5,13.5,0,0,1,1.45-6.38,10.53,10.53,0,0,1,4.05-4.26,11.69,11.69,0,0,1,6-1.52,10.88,10.88,0,0,1,5.82,1.52,10.34,10.34,0,0,1,3.77,4,11.27,11.27,0,0,1,1.31,5.33c0,.34,0,.69,0,1s0,.73,0,1.17H403.75a9,9,0,0,0,1.24,4.42,7.3,7.3,0,0,0,2.75,2.64,7.44,7.44,0,0,0,3.54.89,7.06,7.06,0,0,0,4.06-1.12,6.39,6.39,0,0,0,2.39-3h3.88A10.2,10.2,0,0,1,411.28,421Zm0-21a7.86,7.86,0,0,0-5,1.71,6.92,6.92,0,0,0-2.5,5h14.59a6.61,6.61,0,0,0-2.15-4.91A7.18,7.18,0,0,0,411.28,400Z"/><path class="cls-1" d="M427.46,420.47v-23.2H431l.33,4.44a8.39,8.39,0,0,1,3.27-3.64,10.11,10.11,0,0,1,5.43-1.36v4.12H439a9.8,9.8,0,0,0-3.79.72,5.75,5.75,0,0,0-2.76,2.46,9.38,9.38,0,0,0-1,4.77v11.69Z"/><path class="cls-1" d="M454,421a11.38,11.38,0,0,1-5.89-1.52,10.78,10.78,0,0,1-4.05-4.23,14.74,14.74,0,0,1,0-12.79,10.53,10.53,0,0,1,4.05-4.26,11.68,11.68,0,0,1,6-1.52,10.89,10.89,0,0,1,5.83,1.52,10.31,10.31,0,0,1,3.76,4,11.27,11.27,0,0,1,1.31,5.33c0,.34,0,.69,0,1s0,.73,0,1.17H446.44a9.21,9.21,0,0,0,1.24,4.42,7.26,7.26,0,0,0,2.76,2.64,7.4,7.4,0,0,0,3.53.89,7.09,7.09,0,0,0,4.07-1.12,6.45,6.45,0,0,0,2.39-3h3.88A10.2,10.2,0,0,1,454,421Zm0-21a7.84,7.84,0,0,0-5,1.71,6.89,6.89,0,0,0-2.5,5h14.59a6.61,6.61,0,0,0-2.15-4.91A7.19,7.19,0,0,0,454,400Z"/><path class="cls-1" d="M480.67,421a11.35,11.35,0,0,1-6.05-1.59,10.82,10.82,0,0,1-4-4.35,13.35,13.35,0,0,1-1.43-6.27,13.06,13.06,0,0,1,1.45-6.24,11,11,0,0,1,4-4.3,11.42,11.42,0,0,1,6.08-1.57,10.57,10.57,0,0,1,5,1.17,8.48,8.48,0,0,1,3.42,3.27V386.8h3.92v33.67h-3.55l-.37-3.84a10.78,10.78,0,0,1-3.23,3A9.54,9.54,0,0,1,480.67,421Zm.42-3.41a7.81,7.81,0,0,0,4.14-1.1,7.59,7.59,0,0,0,2.81-3.07,11,11,0,0,0,0-9.16,7.59,7.59,0,0,0-2.81-3.07,8.25,8.25,0,0,0-8.23,0,7.56,7.56,0,0,0-2.8,3.07,10.89,10.89,0,0,0,0,9.16,7.56,7.56,0,0,0,2.8,3.07A7.73,7.73,0,0,0,481.09,417.62Z"/><path class="cls-1" d="M524.31,421a10.72,10.72,0,0,1-5.08-1.17,8.11,8.11,0,0,1-3.39-3.27l-.37,3.88h-3.56V386.8h3.93v14.31a10.9,10.9,0,0,1,3.2-3,9.52,9.52,0,0,1,5.31-1.36,11.27,11.27,0,0,1,6,1.59,10.88,10.88,0,0,1,4,4.35,13.47,13.47,0,0,1,1.43,6.27,13.32,13.32,0,0,1-1.43,6.24,10.68,10.68,0,0,1-4,4.3A11.44,11.44,0,0,1,524.31,421Zm-.43-3.41a7.71,7.71,0,0,0,4.12-1.1,7.87,7.87,0,0,0,2.81-3.07,10.79,10.79,0,0,0,0-9.16,7.87,7.87,0,0,0-2.81-3.07,8.25,8.25,0,0,0-8.23,0,7.8,7.8,0,0,0-2.81,3.07,10.7,10.7,0,0,0,0,9.16,7.8,7.8,0,0,0,2.81,3.07A7.68,7.68,0,0,0,523.88,417.62Z"/><path class="cls-1" d="M541.94,430.76l5.75-12.54h-1.36l-9.21-21h4.25L549,415.32l8.14-18.05h4.07l-15.2,33.49Z"/><path class="cls-1" d="M576,420.47l12.07-32.74h4.16l12,32.74h-4.16l-3-8.42H583.14l-3,8.42Zm8.33-11.6H595.9l-5.8-16.18Z"/><path class="cls-1" d="M618.35,421a13.47,13.47,0,0,1-5.66-1.15,9.43,9.43,0,0,1-4-3.43,10.67,10.67,0,0,1-1.62-5.71h4a6.86,6.86,0,0,0,7.34,6.88,6.72,6.72,0,0,0,5.22-1.92,6.66,6.66,0,0,0,1.75-4.63,6,6,0,0,0-1.1-3.74,6.42,6.42,0,0,0-3-2.15,11.24,11.24,0,0,0-4-.71H614.8v-3.32h2.43a7.71,7.71,0,0,0,5-1.45,5.41,5.41,0,0,0,.37-7.69,5.74,5.74,0,0,0-4.23-1.43A5.91,5.91,0,0,0,614,392.2a6.1,6.1,0,0,0-1.82,4h-4a9.77,9.77,0,0,1,1.43-4.72,8.75,8.75,0,0,1,3.53-3.2,12.71,12.71,0,0,1,10.5,0,8.08,8.08,0,0,1,3,11.62,6.69,6.69,0,0,1-4.07,2.74,8.74,8.74,0,0,1,4.82,2.76,8.22,8.22,0,0,1,1.91,5.66,10.16,10.16,0,0,1-1.24,5,9.08,9.08,0,0,1-3.67,3.62A12.17,12.17,0,0,1,618.35,421Z"/><path class="cls-1" d="M635.65,420.47V387.73h11.51a13.18,13.18,0,0,1,5.73,1.1,7.72,7.72,0,0,1,3.39,3,8.17,8.17,0,0,1,1.12,4.24,7,7,0,0,1-1.71,5,9,9,0,0,1-4.09,2.53,7.61,7.61,0,0,1,3.32,1.45,8,8,0,0,1,3.23,6.5,8.64,8.64,0,0,1-1.22,4.51,8.55,8.55,0,0,1-3.6,3.23,12.92,12.92,0,0,1-5.8,1.19ZM639.58,402h7.3a7.08,7.08,0,0,0,4.81-1.47,5.7,5.7,0,0,0,0-8.07,7.23,7.23,0,0,0-5-1.49h-7.16Zm0,15.15h7.53a7.73,7.73,0,0,0,5.19-1.56,5.46,5.46,0,0,0,1.83-4.38,5.54,5.54,0,0,0-1.92-4.41,7.65,7.65,0,0,0-5.19-1.66h-7.44Z"/><path class="cls-1" d="M678.16,421a15.6,15.6,0,0,1-8.3-2.13,14.39,14.39,0,0,1-5.4-5.94,21.31,21.31,0,0,1,0-17.68,14.57,14.57,0,0,1,5.4-6,15.52,15.52,0,0,1,8.3-2.15,14.73,14.73,0,0,1,9.15,2.69,12.11,12.11,0,0,1,4.51,7.51h-4.35a8.74,8.74,0,0,0-3.06-4.89,9.77,9.77,0,0,0-6.25-1.85,11.47,11.47,0,0,0-6.12,1.61,10.61,10.61,0,0,0-4,4.63,19.12,19.12,0,0,0,0,14.46,10.61,10.61,0,0,0,4,4.63,11.47,11.47,0,0,0,6.12,1.61,9.94,9.94,0,0,0,6.25-1.8,8.51,8.51,0,0,0,3.06-4.8h4.35a12,12,0,0,1-4.51,7.39A14.79,14.79,0,0,1,678.16,421Z"/></svg>
