<?xml version="1.0" encoding="UTF-8"?>
<svg width="324" height="324" id="Calque_1" xmlns="http://www.w3.org/2000/svg" version="1.1" viewBox="0 0 324 324">
  <!-- Generator: Adobe Illustrator 29.4.0, SVG Export Plug-In . SVG Version: 2.1.0 Build 152)  -->
  <defs>
    <style>
      .st0 {
        fill: #f6bd5f;
      }

      .st1 {
        fill: #bb6540;
      }

      .st2 {
        fill: #3a3a3a;
      }

      .st3 {
        fill: #6868f5;
      }

      .st4 {
        fill: #e4794a;
      }

      .st5 {
        fill: #fff;
      }

      .st6 {
        fill: #f0f0fc;
      }

      .st7 {
        fill: #c7b299;
      }

      .st8 {
        fill: #6a6af4;
      }

      .st9 {
        fill: #8888fa;
      }

      .st10 {
        fill: #c0c0f9;
      }
    </style>
  </defs>
  <path class="st6" d="M304,271.3C225.7,376.1,21.5,277.3.3,166.2c-5.6-60.4,75.3-29.9,81.6-80.7C92.8-15.4,178.1-6.4,244,49.1c1.9,1.6,3.7,3.2,5.5,4.8h-32.2v-8h5.2l-7.2-10.8-7.4,10.8h5.1v10.1c0,.6.2,1.1.6,1.5.4.4.9.6,1.5.6h37v38.2c0,.6.2,1.1.6,1.5.4.4.9.6,1.5.6h11.4v35.2h-47.8v-50.9c0-.6-.2-1.1-.6-1.5-.4-.4-.9-.6-1.5-.6h-14.7c-.6,0-1.1.2-1.5.6-.4.4-.6.9-.6,1.5v52h-37.3c-.6,0-1.1.2-1.5.6-.4.4-.6.9-.6,1.5v11.1c0,.6.2,1.1.6,1.5.4.4.9.6,1.5.6h37.3v26.2c0,.6.2,1.1.6,1.5.4.4.9.6,1.5.6h25v30.9h4.3v-33c0-.6-.2-1.1-.6-1.5-.4-.4-.9-.6-1.5-.6h-25v-26.2c0-.6-.2-1.1-.6-1.5-.4-.4-.9-.6-1.5-.6h-37.3v-6.9h37.3c.6,0,1.1-.2,1.5-.6s.6-.9.6-1.5v-52h10.5v50.8c0,.6.2,1.1.6,1.5s.9.6,1.5.6h52.1c.6,0,1.1-.2,1.5-.6.4-.4.6-.9.6-1.5v-39.4c0-.6-.2-1.1-.6-1.5-.4-.4-.9-.6-1.5-.6h-11.4v-33.8c1.7,1.6,3.4,3.3,5,5,.4.4.7.7,1.1,1.1,9.5,9.9,18.4,20.8,26.2,32.4,33.8,50.2,48.3,114.1,15.3,172.5Z"/>
  <path class="st10" d="M201.1,178.5h25v30.9h-97.6V49.1h84.7v6.9c0,.6.2,1.1.6,1.5.4.4.9.6,1.5.6h37v38.2c0,.6.2,1.1.6,1.5.4.4.9.6,1.5.6h11.4v35.2h-47.8v-50.9c0-.6-.2-1.1-.6-1.5-.4-.4-.9-.6-1.5-.6h-14.7c-.6,0-1.1.2-1.5.6-.4.4-.6.9-.6,1.5v52h-37.3c-.6,0-1.1.2-1.5.6-.4.4-.6.9-.6,1.5v11.1c0,.6.2,1.1.6,1.5.4.4.9.6,1.5.6h37.3v26.2c0,.6.2,1.1.6,1.5.4.4.9.6,1.5.6Z"/>
  <path class="st10" d="M288.8,49.1v160.4h-58.5v-33c0-.6-.2-1.1-.6-1.5-.4-.4-.9-.6-1.5-.6h-25v-26.2c0-.6-.2-1.1-.6-1.5-.4-.4-.9-.6-1.5-.6h-37.3v-6.9h37.3c.6,0,1.1-.2,1.5-.6s.6-.9.6-1.5v-52h10.5v50.8c0,.6.2,1.1.6,1.5s.9.6,1.5.6h52.1c.6,0,1.1-.2,1.5-.6.4-.4.6-.9.6-1.5v-39.4c0-.6-.2-1.1-.6-1.5-.4-.4-.9-.6-1.5-.6h-11.4v-33.8c-2.3-2.2-4.6-4.4-7-6.5h-32.2v-4.8h71.4Z"/>
  <path class="st4" d="M141.6,256.2c.9,11.8,1.1,23.6.7,35.5h-61.1s-6.7-17.7-7-19.3c-.2-1.2,1-8.4,1.3-9.5-8.8,1.9-23.5,1-29.3-4.2,5-29,11.6-54.8,22.7-59.7,7.9-3.5,24.2-5.9,24.2-5.9l20.8-.2s13,1.9,20.7,5c7.7,3.2,18.1,18.4,29.8,48.9,0,0-7.7,8.1-22.4,9.3h-.2Z"/>
  <path class="st2" d="M275.4,196.6c-.1,0-.3,0-.4-.2,0-.1-.2-.2-.2-.4v-13.4c0-.1,0-.3.2-.4.1-.1.2-.2.4-.2s.3,0,.4.2c.1.1.2.2.2.4v13.4c0,.1,0,.3-.2.4-.1,0-.2.2-.4.2ZM275.4,143.1c-.1,0-.3,0-.4-.2,0-.1-.2-.2-.2-.4v-53.5c0-.1,0-.3.2-.4.1-.1.2-.2.4-.2s.3,0,.4.2c.1.1.2.2.2.4v53.5c0,.1,0,.3-.2.4-.1.1-.2.2-.4.2ZM275.4,76.3c-.1,0-.3,0-.4-.2,0-.1-.2-.2-.2-.4v-13.4c0-.1,0-.3.2-.4.1-.1.2-.2.4-.2s.3,0,.4.2c.1.1.2.2.2.4v13.4c0,.1,0,.3-.2.4-.1.1-.2.2-.4.2ZM248.7,103.1c-.1,0-.3,0-.4-.2s-.2-.2-.2-.4v-40.1c0-.1,0-.3.2-.4.1-.1.2-.2.4-.2s.3,0,.4.2c.1.1.2.2.2.4v40.1c0,.1,0,.3-.2.4s-.2.2-.4.2ZM248.7,196.6c-.1,0-.3,0-.4-.2-.1-.1-.2-.2-.2-.4v-53.5c0-.1,0-.3.2-.4.1,0,.2-.2.4-.2s.3,0,.4.2c.1.1.2.2.2.4v53.5c0,.1,0,.3-.2.4-.1,0-.2.2-.4.2ZM262,169.9c-.1,0-.3,0-.4-.2-.1,0-.2-.2-.2-.4v-13.4c0-.1,0-.3.2-.4.1-.1.2-.2.4-.2s.3,0,.4.2c.1,0,.2.2.2.4v13.4c0,.1,0,.3-.2.4-.1.1-.2.2-.4.2ZM262,210c-.1,0-.3,0-.4-.2-.1-.1-.2-.2-.2-.4v-13.4c0-.1,0-.3.2-.4.1-.1.2-.2.4-.2s.3,0,.4.2.2.2.2.4v13.4c0,.1,0,.3-.2.4-.1,0-.2.2-.4.2ZM262,89.7c-.1,0-.3,0-.4-.2-.1-.1-.2-.2-.2-.4v-40.1c0-.1,0-.3.2-.4.1-.1.2-.2.4-.2s.3,0,.4.2c.1.1.2.2.2.4v40.1c0,.1,0,.3-.2.4-.1.1-.2.2-.4.2ZM262,129.8c-.1,0-.3,0-.4-.2-.1-.1-.2-.2-.2-.4v-26.7c0-.1,0-.3.2-.4.1-.1.2-.2.4-.2s.3,0,.4.2c.1.1.2.2.2.4v26.7c0,.1,0,.3-.2.4-.1.1-.2.2-.4.2ZM222,156.5c-.1,0-.3,0-.4-.2-.1-.1-.2-.2-.2-.4v-13.4c0-.1,0-.3.2-.4.1,0,.2-.2.4-.2s.3,0,.4.2c.1.1.2.2.2.4v13.4c0,.1,0,.3-.2.4-.1.1-.2.2-.4.2ZM222,129.8c-.1,0-.3,0-.4-.2-.1-.1-.2-.2-.2-.4v-53.5c0-.1,0-.3.2-.4.1-.1.2-.2.4-.2s.3,0,.4.2c.1.1.2.2.2.4v53.5c0,.1,0,.3-.2.4-.1.1-.2.2-.4.2ZM222,210c-.1,0-.3,0-.4-.2-.1-.1-.2-.2-.2-.4v-26.7c0-.1,0-.3.2-.4.1-.1.2-.2.4-.2s.3,0,.4.2c.1.1.2.2.2.4v26.7c0,.1,0,.3-.2.4-.1,0-.2.2-.4.2ZM235.3,210c-.1,0-.3,0-.4-.2-.1-.1-.2-.2-.2-.4v-53.5c0-.1,0-.3.2-.4.1-.1.2-.2.4-.2s.3,0,.4.2c.1,0,.2.2.2.4v53.5c0,.1,0,.3-.2.4-.1,0-.2.2-.4.2ZM235.3,76.3c-.1,0-.3,0-.4-.2-.1-.1-.2-.2-.2-.4v-13.4c0-.1,0-.3.2-.4.1-.1.2-.2.4-.2s.3,0,.4.2c.1.1.2.2.2.4v13.4c0,.1,0,.3-.2.4-.1.1-.2.2-.4.2ZM195.2,89.7c-.1,0-.3,0-.4-.2-.1-.1-.2-.2-.2-.4v-26.7c0-.1,0-.3.2-.4.1-.1.2-.2.4-.2s.3,0,.4.2c0,.1.2.2.2.4v26.7c0,.1,0,.3-.2.4-.1.1-.2.2-.4.2ZM195.2,129.8c-.1,0-.3,0-.4-.2-.1-.1-.2-.2-.2-.4v-26.7c0-.1,0-.3.2-.4.1-.1.2-.2.4-.2s.3,0,.4.2c0,.1.2.2.2.4v26.7c0,.1,0,.3-.2.4-.1.1-.2.2-.4.2ZM195.2,183.2c-.1,0-.3,0-.4-.2-.1,0-.2-.2-.2-.4v-26.7c0-.1,0-.3.2-.4.1-.1.2-.2.4-.2s.3,0,.4.2c0,0,.2.2.2.4v26.7c0,.1,0,.3-.2.4s-.2.2-.4.2ZM208.6,63c-.1,0-.3,0-.4-.2-.1-.1-.2-.2-.2-.4v-13.4c0-.1,0-.3.2-.4.1-.1.2-.2.4-.2s.3,0,.4.2c.1.1.2.2.2.4v13.4c0,.1,0,.3-.2.4-.1.1-.2.2-.4.2ZM208.6,169.9c-.1,0-.3,0-.4-.2-.1,0-.2-.2-.2-.4v-13.4c0-.1,0-.3.2-.4.1-.1.2-.2.4-.2s.3,0,.4.2c.1,0,.2.2.2.4v13.4c0,.1,0,.3-.2.4-.1.1-.2.2-.4.2ZM208.6,143.1c-.1,0-.3,0-.4-.2s-.2-.2-.2-.4v-53.5c0-.1,0-.3.2-.4.1-.1.2-.2.4-.2s.3,0,.4.2c.1.1.2.2.2.4v53.5c0,.1,0,.3-.2.4s-.2.2-.4.2ZM168.5,89.7c-.1,0-.3,0-.4-.2s-.2-.2-.2-.4v-40.1c0-.1,0-.3.2-.4.1-.1.2-.2.4-.2s.3,0,.4.2c.1.1.2.2.2.4v40.1c0,.1,0,.3-.2.4,0,.1-.2.2-.4.2ZM168.5,183.2c-.1,0-.3,0-.4-.2-.1,0-.2-.2-.2-.4v-26.7c0-.1,0-.3.2-.4.1-.1.2-.2.4-.2s.3,0,.4.2c.1,0,.2.2.2.4v26.7c0,.1,0,.3-.2.4,0,.1-.2.2-.4.2ZM181.9,196.6c-.1,0-.3,0-.4-.2-.1-.1-.2-.2-.2-.4v-40.1c0-.1,0-.3.2-.4.1-.1.2-.2.4-.2s.3,0,.4.2c0,0,.2.2.2.4v40.1c0,.1,0,.3-.2.4-.1,0-.2.2-.4.2ZM141.8,89.7c-.1,0-.3,0-.4-.2s-.2-.2-.2-.4v-26.7c0-.1,0-.3.2-.4.1-.1.2-.2.4-.2s.3,0,.4.2c.1.1.2.2.2.4v26.7c0,.1,0,.3-.2.4-.1.1-.2.2-.4.2ZM155.1,76.3c-.1,0-.3,0-.4-.2-.1-.1-.2-.2-.2-.4v-26.7c0-.1,0-.3.2-.4,0-.1.2-.2.4-.2s.3,0,.4.2c.1.1.2.2.2.4v26.7c0,.1,0,.3-.2.4,0,.1-.2.2-.4.2ZM155.1,143.1c-.1,0-.3,0-.4-.2-.1-.1-.2-.2-.2-.4v-26.7c0-.1,0-.3.2-.4,0-.1.2-.2.4-.2s.3,0,.4.2c.1.1.2.2.2.4v26.7c0,.1,0,.3-.2.4,0,.1-.2.2-.4.2ZM155.1,196.6c-.1,0-.3,0-.4-.2-.1-.1-.2-.2-.2-.4v-26.7c0-.1,0-.3.2-.4,0-.1.2-.2.4-.2s.3,0,.4.2c.1,0,.2.2.2.4v26.7c0,.1,0,.3-.2.4,0,0-.2.2-.4.2Z"/>
  <path class="st2" d="M208.6,196.6h-66.8c-.1,0-.3,0-.4-.2-.1-.1-.2-.2-.2-.4s0-.3.2-.4c.1-.1.2-.2.4-.2h66.8c.1,0,.3,0,.4.2,0,.1.2.2.2.4s0,.3-.2.4c-.1,0-.2.2-.4.2ZM235.3,169.9h-26.7c-.1,0-.3,0-.4-.2-.1,0-.2-.2-.2-.4s0-.3.2-.4c.1-.1.2-.2.4-.2h26.7c.1,0,.3,0,.4.2.1,0,.2.2.2.4s0,.3-.2.4c-.1.1-.2.2-.4.2ZM288.8,169.9h-26.7c-.1,0-.3,0-.4-.2-.1,0-.2-.2-.2-.4s0-.3.2-.4c.1-.1.2-.2.4-.2h26.7c.1,0,.3,0,.4.2.1,0,.2.2.2.4s0,.3-.2.4c-.1.1-.2.2-.4.2ZM155.1,169.9h-13.4c-.1,0-.3,0-.4-.2-.1,0-.2-.2-.2-.4s0-.3.2-.4c.1-.1.2-.2.4-.2h13.4c.1,0,.3,0,.4.2.1,0,.2.2.2.4s0,.3-.2.4c0,.1-.2.2-.4.2ZM222,183.2h-26.7c-.1,0-.3,0-.4-.2-.1,0-.2-.2-.2-.4s0-.3.2-.4c.1-.1.2-.2.4-.2h26.7c.1,0,.3,0,.4.2.1.1.2.2.2.4s0,.3-.2.4c-.1.1-.2.2-.4.2ZM141.8,183.2h-13.4c-.1,0-.3,0-.4-.2-.1,0-.2-.2-.2-.4s0-.3.2-.4.2-.2.4-.2h13.4c.1,0,.3,0,.4.2.1.1.2.2.2.4s0,.3-.2.4c-.1.1-.2.2-.4.2ZM275.4,183.2h-26.7c-.1,0-.3,0-.4-.2-.1,0-.2-.2-.2-.4s0-.3.2-.4.2-.2.4-.2h26.7c.1,0,.3,0,.4.2.1.1.2.2.2.4s0,.3-.2.4c-.1.1-.2.2-.4.2ZM275.4,143.1h-106.9c-.1,0-.3,0-.4-.2s-.2-.2-.2-.4,0-.3.2-.4c.1-.1.2-.2.4-.2h106.9c.1,0,.3,0,.4.2.1,0,.2.2.2.4s0,.3-.2.4c-.1.1-.2.2-.4.2ZM155.1,143.1h-13.4c-.1,0-.3,0-.4-.2-.1-.1-.2-.2-.2-.4s0-.3.2-.4c.1-.1.2-.2.4-.2h13.4c.1,0,.3,0,.4.2.1,0,.2.2.2.4s0,.3-.2.4c0,.1-.2.2-.4.2ZM181.9,156.5h-53.5c-.1,0-.3,0-.4-.2-.1-.1-.2-.2-.2-.4s0-.3.2-.4c.1-.1.2-.2.4-.2h53.5c.1,0,.3,0,.4.2,0,0,.2.2.2.4s0,.3-.2.4c-.1.1-.2.2-.4.2ZM275.4,156.5h-13.4c-.1,0-.3,0-.4-.2-.1-.1-.2-.2-.2-.4s0-.3.2-.4c.1-.1.2-.2.4-.2h13.4c.1,0,.3,0,.4.2.1,0,.2.2.2.4s0,.3-.2.4c-.1.1-.2.2-.4.2ZM248.7,116.4h-26.7c-.1,0-.3,0-.4-.2-.1-.1-.2-.2-.2-.4s0-.3.2-.4c.1-.1.2-.2.4-.2h26.7c.1,0,.3,0,.4.2.1.1.2.2.2.4s0,.3-.2.4c-.1.1-.2.2-.4.2ZM181.9,116.4h-40.1c-.1,0-.3,0-.4-.2-.1-.1-.2-.2-.2-.4s0-.3.2-.4c.1-.1.2-.2.4-.2h40.1c.1,0,.3,0,.4.2,0,.1.2.2.2.4s0,.3-.2.4c-.1.1-.2.2-.4.2ZM195.2,129.8h-40.1c-.1,0-.3,0-.4-.2-.1-.1-.2-.2-.2-.4s0-.3.2-.4c0-.1.2-.2.4-.2h40.1c.1,0,.3,0,.4.2,0,.1.2.2.2.4s0,.3-.2.4c-.1.1-.2.2-.4.2ZM141.8,129.8h-13.4c-.1,0-.3,0-.4-.2-.1-.1-.2-.2-.2-.4s0-.3.2-.4c.1-.1.2-.2.4-.2h13.4c.1,0,.3,0,.4.2.1.1.2.2.2.4s0,.3-.2.4c-.1.1-.2.2-.4.2ZM262,129.8h-26.7c-.1,0-.3,0-.4-.2-.1-.1-.2-.2-.2-.4s0-.3.2-.4c.1-.1.2-.2.4-.2h26.7c.1,0,.3,0,.4.2.1.1.2.2.2.4s0,.3-.2.4c-.1.1-.2.2-.4.2ZM275.4,89.7h-13.4c-.1,0-.3,0-.4-.2-.1-.1-.2-.2-.2-.4s0-.3.2-.4c.1-.1.2-.2.4-.2h13.4c.1,0,.3,0,.4.2.1.1.2.2.2.4s0,.3-.2.4c-.1.1-.2.2-.4.2ZM248.7,89.7h-26.7c-.1,0-.3,0-.4-.2-.1-.1-.2-.2-.2-.4s0-.3.2-.4c.1-.1.2-.2.4-.2h26.7c.1,0,.3,0,.4.2.1.1.2.2.2.4s0,.3-.2.4c-.1.1-.2.2-.4.2ZM195.2,89.7h-13.4c-.1,0-.3,0-.4-.2-.1-.1-.2-.2-.2-.4s0-.3.2-.4c.1-.1.2-.2.4-.2h13.4c.1,0,.3,0,.4.2,0,.1.2.2.2.4s0,.3-.2.4c-.1.1-.2.2-.4.2ZM168.5,89.7h-26.7c-.1,0-.3,0-.4-.2-.1-.1-.2-.2-.2-.4s0-.3.2-.4c.1-.1.2-.2.4-.2h26.7c.1,0,.3,0,.4.2.1.1.2.2.2.4s0,.3-.2.4c0,.1-.2.2-.4.2ZM195.2,103.1h-66.8c-.1,0-.3,0-.4-.2s-.2-.2-.2-.4,0-.3.2-.4.2-.2.4-.2h66.8c.1,0,.3,0,.4.2,0,.1.2.2.2.4s0,.3-.2.4c-.1.1-.2.2-.4.2ZM262,103.1h-26.7c-.1,0-.3,0-.4-.2-.1-.1-.2-.2-.2-.4s0-.3.2-.4c.1-.1.2-.2.4-.2h26.7c.1,0,.3,0,.4.2.1.1.2.2.2.4s0,.3-.2.4c-.1.1-.2.2-.4.2ZM195.2,63h-13.4c-.1,0-.3,0-.4-.2-.1-.1-.2-.2-.2-.4s0-.3.2-.4c.1-.1.2-.2.4-.2h13.4c.1,0,.3,0,.4.2,0,.1.2.2.2.4s0,.3-.2.4c-.1.1-.2.2-.4.2ZM248.7,63h-40.1c-.1,0-.3,0-.4-.2s-.2-.2-.2-.4,0-.3.2-.4c.1-.1.2-.2.4-.2h40.1c.1,0,.3,0,.4.2.1.1.2.2.2.4s0,.3-.2.4-.2.2-.4.2ZM181.9,76.3h-13.4c-.1,0-.3,0-.4-.2-.1-.1-.2-.2-.2-.4s0-.3.2-.4c.1-.1.2-.2.4-.2h13.4c.1,0,.3,0,.4.2,0,.1.2.2.2.4s0,.3-.2.4c-.1.1-.2.2-.4.2ZM222,76.3h-26.7c-.1,0-.3,0-.4-.2-.1-.1-.2-.2-.2-.4s0-.3.2-.4c.1-.1.2-.2.4-.2h26.7c.1,0,.3,0,.4.2.1.1.2.2.2.4s0,.3-.2.4c-.1.1-.2.2-.4.2ZM288.8,76.3h-13.4c-.1,0-.3,0-.4-.2-.1-.1-.2-.2-.2-.4s0-.3.2-.4c.1-.1.2-.2.4-.2h13.4c.1,0,.3,0,.4.2.1.1.2.2.2.4s0,.3-.2.4c-.1.1-.2.2-.4.2Z"/>
  <path class="st7" d="M141.9,260.1c1.1,4.2,12.2,11.3,18.1,15,8.1,3,9.7,3.5,12.9-2,4.2-7.3,10.6-53.8,10.6-53.8,3.7-4.1,10.3-8.1,8.8-11-.8-1.5-1.5-1.1-1.5-1.1,0,0,1.8-2.7.2-4.2-.9-.9-2.6-.4-2.6-.4.2-.3,1.9-2.7-.3-4.1-2.2-1.4-3.9,1.1-4,1.3.2-.4,4.8-9.1,2.9-10.3-1.9-1.2-10.6,11-11.9,12.8,0-.2.3-8.3-1.8-8.6-2.1-.4-6.7,10.6-3.9,18.6-2.1,9.8-6.9,27-9.4,37.4-3.4,3.7-14,6.2-18.3,6.4l.2,4.1Z"/>
  <path d="M176.7,212.9c-.1,0-.2,0-.3,0s-.2-.1-.2-.2c0,0,0-.2,0-.3,0,0,0-.2.1-.3,2.9-3.7.2-7.7.1-7.9,0-.1-.1-.3,0-.4,0-.1.1-.3.2-.3.1,0,.3-.1.4,0,.1,0,.3.1.3.2,0,0,3.2,4.8-.2,9.2,0,0-.1.1-.2.2,0,0-.2,0-.2,0ZM187.4,214.6c-.3,0-.5,0-.8-.1-.2,0-.5-.2-.7-.4-.2-.2-.3-.4-.4-.7,0-.2-.1-.5-.1-.8,0-.7.3-1.4.8-2-1.2.4-2.3.3-3.1-.5-.8-1-.3-2.3.4-3.5-1.2.5-2.4.7-3.2-.5-1.1-1.7,1.1-4.1,2.1-5,0,0,.1,0,.2-.1,0,0,.1,0,.2,0,0,0,.1,0,.2,0,0,0,.1,0,.2.1,0,0,0,.1.1.2,0,0,0,.1,0,.2,0,0,0,.1,0,.2,0,0,0,.1-.1.2-1.3,1.3-2.5,2.9-2,3.7.5.8,1.4.4,3.2-.6.2-.1.5-.3.7-.4.1,0,.2,0,.4,0,.1,0,.2,0,.3.2,0,0,.1.2.1.3,0,.1,0,.2-.1.3-2.1,2.6-2.2,3.7-1.8,4.1.7.9,2.8,0,4-.8.1,0,.2-.1.4,0,.1,0,.3,0,.3.2,0,.1.1.2.1.4,0,.1,0,.3-.2.4-.9.8-2.7,3-1.9,3.9,0,0,.2.1.3.2.1,0,.2,0,.4,0,.8,0,1.8-.6,2.8-1.6,0,0,.1,0,.2-.1,0,0,.1,0,.2,0,0,0,.1,0,.2,0,0,0,.1,0,.2.1s0,.1.1.2c0,0,0,.1,0,.2,0,0,0,.1,0,.2,0,0,0,.1-.1.2-.9,1-2.3,2-3.6,2Z"/>
  <path class="st3" d="M270.1,96.3v39.4c0,.6-.2,1.1-.6,1.5-.4.4-.9.6-1.5.6h-52.1c-.6,0-1.1-.2-1.5-.6s-.6-.9-.6-1.5v-50.8h-10.5v52c0,.6-.2,1.1-.6,1.5s-.9.6-1.5.6h-37.3v6.9h37.3c.6,0,1.1.2,1.5.6.4.4.6.9.6,1.5v26.2h25c.6,0,1.1.2,1.5.6.4.4.6.9.6,1.5v33h-4.3v-30.9h-25c-.6,0-1.1-.2-1.5-.6-.4-.4-.6-.9-.6-1.5v-26.2h-37.3c-.6,0-1.1-.2-1.5-.6-.4-.4-.6-.9-.6-1.5v-11.1c0-.6.2-1.1.6-1.5.4-.4.9-.6,1.5-.6h37.3v-52c0-.6.2-1.1.6-1.5.4-.4.9-.6,1.5-.6h14.7c.6,0,1.1.2,1.5.6.4.4.6.9.6,1.5v50.9h47.8v-35.2h-11.4c-.6,0-1.1-.2-1.5-.6-.4-.4-.6-.9-.6-1.5v-38.2h-37c-.6,0-1.1-.2-1.5-.6-.4-.4-.6-.9-.6-1.5v-10.1h-5.1l7.4-10.8,7.2,10.8h-5.2v8h32.2c2.4,2.1,4.7,4.3,7,6.5v33.8h11.4c.6,0,1.1.2,1.5.6.4.4.6.9.6,1.5Z"/>
  <path class="st8" d="M226,209.4h4.3v11.2c0,.6-.2,1.1-.6,1.5-.4.4-.9.6-1.5.6s-1.1-.2-1.5-.6c-.4-.4-.6-.9-.6-1.5v-11.2Z"/>
  <path class="st8" d="M256.5,56v4.4c-2.3-2.2-4.6-4.4-7-6.5h4.8c.6,0,1.1.2,1.5.6s.6.9.6,1.5Z"/>
  <path class="st0" d="M95.6,61c-1-2.7-2.7-5.2-4.9-7.1-2.2-1.9-4.8-3.2-7.7-3.9-2.8-.6-5.8-.5-8.6.3-2.8.8-5.3,2.3-7.4,4.4-2,2.1-3.5,4.6-4.3,7.4-.8,2.8-.9,5.8-.2,8.6.6,2.8,2,5.5,3.9,7.6,1.9,2.2,4.4,3.8,7.1,4.8,1.2.4,2.3,1.1,3.2,2,.9.9,1.6,2,2,3.2l14.9-5.5c-.4-1.2-.6-2.5-.5-3.7.1-1.3.5-2.5,1.1-3.6,1.3-2.2,2.1-4.7,2.3-7.2.2-2.5-.1-5.1-1-7.5Z"/>
  <path class="st5" d="M83.7,86.9c-.1,0-.2,0-.3,0,0,0-.2-.2-.2-.3l-3.4-9.3-6.5-7c0-.1-.1-.2-.1-.4,0-.1,0-.3.2-.4.1,0,.2-.1.4-.1.1,0,.3,0,.4.2l6.6,7.1c.1.1-.1-.5,3.6,9.6,0,0,0,.2,0,.3,0,0,0,.2,0,.2,0,0-.1.1-.2.2,0,0-.2,0-.3,0ZM88.6,85.1c-.1,0-.2,0-.3,0,0,0-.2-.2-.2-.3l-3.5-9.4c0-.1,0,.5.4-9.9,0-.1,0-.3.2-.4s.2-.1.4-.1.3,0,.4.2c0,.1.1.2.1.4l-.4,9.6,3.4,9.3c0,0,0,.2,0,.3,0,0,0,.2,0,.2,0,0-.1.1-.2.2,0,0-.2,0-.2,0Z"/>
  <path class="st9" d="M97.6,92.8c0-.1-.1-.3-.2-.3-.1,0-.3,0-.4,0l-.5-1.5c0,0,.2-.1.2-.2,0-.1,0-.3,0-.4,0-.1-.1-.3-.2-.3-.1,0-.3,0-.4,0l-.5-1.5c0,0,.2-.1.2-.2,0-.1,0-.3,0-.4,0-.1-.1-.2-.2-.3-.1,0-.3,0-.4,0l-.8-2c.4-.1.7-.3,1.1-.4.1,0,.2-.1.3-.3,0-.1,0-.3,0-.4l-1.3-3.5c0,0,0-.1-.1-.2s-.1,0-.2-.1c0,0-.1,0-.2,0,0,0-.1,0-.2,0l-16.7,6.1c0,0-.1,0-.2.1,0,0,0,.1-.1.2,0,0,0,.1,0,.2,0,0,0,.1,0,.2l1.3,3.5c0,.1.1.2.2.3,0,0,.2,0,.3,0s-.1,0,1.3-.4l.2.6c0,0-.1,0-.2.2,0,.1-.1.2,0,.4,0,.1,0,.3.2.3s.2.1.4.1,0,0,.1,0l.5,1.5c0,0-.1.1-.2.2,0,.1,0,.2,0,.4,0,.1,0,.2.2.3,0,0,.2.1.3.1,0,0,0,0,.1,0l.5,1.5.4,1,.5,1.4c0,.1.1.2.3.3,5.1,2.4,4.7,2.2,4.9,2.2s-.4.2,6.8-2.5c.1,0,.2-.1.3-.3,0-.2,2.1-4.6,2.2-4.7,0,0,0-.2,0-.3,0,0,.2-.1.2-.2,0-.1,0-.3,0-.4ZM81.1,91.1l-.2-.6h0s.6-.2.6-.2l.4-.2h0s.5-.2.5-.2l.6-.2.6-.2,2.3-.8.7-.3,6.5-2.4.7,1.9-13,3.3ZM82,93.6l-.5-1.4c1.5-.4,4.9-1.3,13-3.3l.5,1.4-13,3.3ZM82.9,96l-.5-1.4c1.5-.4,5-1.3,13-3.3l.5,1.4-13,3.3ZM95.2,95.6l-9.5,3.5-2.1-1-.4-1.1c1.5-.4,4.9-1.2,12.7-3.2l-.8,1.8Z"/>
  <path class="st2" d="M81.9,96.3c0,0-.1,0-.2.2,0,.1,0,.2,0,.4,0,.1,0,.2.2.3,0,0,.2.1.3.1s0,0,.1,0l-.4-1Z"/>
  <path class="st5" d="M75.5,70l-3.1-2.2c0,0-.1,0-.2-.2,0,0,0-.1,0-.2,0,0,0-.1,0-.2,0,0,0-.1,0-.2,0,0,0-.1.2-.1,0,0,.1,0,.2,0,0,0,.1,0,.2,0,0,0,.1,0,.2,0l2.5,1.8.7-2.9c0,0,0-.2.1-.2,0,0,.1-.1.2-.1,0,0,.2,0,.3,0,0,0,.2,0,.2,0l2.5,1.8.7-2.9c0,0,0-.2.1-.2,0,0,.1-.1.2-.1,0,0,.2,0,.3,0,0,0,.2,0,.2,0l2.5,1.8.7-2.9c0-.1.1-.3.2-.3s.3,0,.4,0c.1,0,.3.1.3.2s0,.3,0,.4l-.9,3.7c0,0,0,.2-.1.2,0,0-.1.1-.2.1,0,0-.2,0-.3,0s-.2,0-.2,0l-2.5-1.8-.7,2.9c0,0,0,.2-.1.2,0,0-.1.1-.2.1,0,0-.2,0-.3,0,0,0-.2,0-.2,0l-2.5-1.8-.7,2.9c0,0,0,.2-.1.2,0,0-.1.1-.2.1,0,0-.2,0-.3,0,0,0-.2,0-.2-.1Z"/>
  <path class="st8" d="M98.4,54c0,0-.2,0-.3,0,0,0-.2-.1-.2-.2,0,0,0-.2,0-.3,0,0,0-.2,0-.3l4.1-5.9c0,0,0-.1.1-.1,0,0,.1,0,.2,0,0,0,.1,0,.2,0,0,0,.1,0,.2,0,0,0,.1,0,.1.1,0,0,0,.1,0,.2,0,0,0,.1,0,.2,0,0,0,.1,0,.2l-4.1,5.9c0,0-.1.1-.2.2,0,0-.2,0-.2,0ZM101.7,57.9c-.1,0-.2,0-.3-.1,0,0-.2-.2-.2-.3,0-.1,0-.2,0-.4,0-.1.1-.2.3-.2l6.5-3.1c0,0,.1,0,.2,0,0,0,.2,0,.2,0,0,0,.1,0,.2.1s.1.1.1.2c0,0,0,.1,0,.2,0,0,0,.1,0,.2,0,0,0,.1-.1.2,0,0-.1,0-.2.1-7.1,3.4-6.5,3.1-6.7,3.1ZM109.7,63.5s.5,0-8-.6c0,0-.1,0-.2,0,0,0-.1,0-.2-.1,0-.1-.1-.2-.1-.4,0,0,0-.1,0-.2,0,0,0-.1.1-.2.1,0,.2-.1.4-.1l7.9.6c.1,0,.3,0,.4.2,0,.1.1.2.1.4,0,.1,0,.3-.2.4-.1,0-.2.1-.4.1ZM55.1,83.5c0,0-.2,0-.3,0,0,0-.2-.1-.2-.2,0,0,0-.2,0-.3,0,0,0-.2,0-.3l4.1-5.9c0,0,0-.1.1-.1,0,0,.1,0,.2,0,0,0,.1,0,.2,0,0,0,.1,0,.2,0,0,0,.1,0,.1.2,0,0,0,.1,0,.2s0,.1,0,.2c0,0,0,.1,0,.2l-4.1,5.9c0,0-.1.1-.2.2,0,0-.2,0-.2,0ZM49.4,76.8c-.1,0-.2,0-.3-.1,0,0-.2-.2-.2-.3,0-.1,0-.2,0-.4,0-.1.1-.2.3-.2l6.5-3.1c0,0,.1,0,.2,0,0,0,.1,0,.2,0,0,0,.1,0,.2.1,0,0,0,.1.1.2,0,0,0,.1,0,.2,0,0,0,.1,0,.2,0,0,0,.1-.1.2,0,0-.1,0-.2.1-7.1,3.4-6.5,3.1-6.7,3.1ZM55.7,68.8s.5,0-8-.6c-.1,0-.3,0-.4-.2,0-.1-.1-.2-.1-.4,0-.1,0-.3.2-.4.1,0,.2-.1.4-.1l7.9.6c.1,0,.3,0,.4.2,0,.1.1.2.1.4,0,.1,0,.3-.2.4-.1,0-.2.1-.4.1Z"/>
  <path class="st1" d="M77.2,261.6c-.3-6.8.4-13.5,2-20.1s-1.1-1.2-1.3-.4c-1.7,6.7-2.4,13.6-2.1,20.4s1.4.9,1.4,0h0Z"/>
  <path class="st1" d="M142.2,254.4c0-4.8,0-9.6,0-14.3s-1.4-.9-1.4,0c0,4.8,0,9.6,0,14.3s1.4.9,1.4,0h0Z"/>
  <path class="st7" d="M51.4,261.3s1.3,28.5,7.2,30.4h22.5c0,0-6.1-16.8-6.1-16.8-.6-1.7-.8-3.6-.6-5.4l.9-6.7s-8.8,2.5-24-1.5Z"/>
  <g>
    <path class="st2" d="M138.1,154.4c-5.7,14.5-9.2,24.3-9.2,41.3-3.9-1.5-8.5-2.3-12.4-2.7l-5.5-49.6,27.1,10.9Z"/>
    <path class="st2" d="M129.4,196c0,0-.1.1-.2.2,0,0-.2,0-.3,0,0,0-.2,0-.3,0-3.4-1.3-7.7-2.2-12.2-2.6-.1,0-.2,0-.3-.2,0,0-.2-.2-.2-.3l-5.5-49.6c0,0,0-.2,0-.3,0,0,0-.2.2-.2,0,0,.2,0,.3-.1,0,0,.2,0,.3,0l27.1,10.9c.1,0,.2.2.3.3,0,.1,0,.3,0,.4-5.7,14.4-9.2,24.1-9.2,41.1,0,0,0,.2,0,.3ZM111.7,144.3l5.4,48.2c3.9.4,7.7,1.2,11.3,2.4.1-16.5,3.5-26.2,9-40.2l-25.7-10.4Z"/>
    <path class="st7" d="M95,162.3l-.2,30.5s10,13,18.6,11.2c4.9-1,3-11.4,3-11.4l-1.4-14.1-20-16.2Z"/>
    <path class="st7" d="M103.2,177.4c2.7,5.1,11.3,9,18.5,7.1,13.2-3.5,14.8-17.8,16.5-29,2.8-18.4-9.5-25.5-23-25.1s-24.1,12.4-23.7,26.9c.1,4,1.4,7.8,3.6,11.3"/>
    <path class="st2" d="M121.9,185.1c13.1-3.5,15.1-17.2,16.8-28.2l.2-1.2c1.2-7.9-.2-14.2-4.3-18.8-4.2-4.7-11-7.2-19.3-7-13.8.4-24.7,12.7-24.3,27.4.1,3.9,1.3,7.8,3.7,11.6,0,0,0,.1.1.2,0,0,.1,0,.2,0,0,0,.1,0,.2,0,0,0,.1,0,.2,0,0,0,.1,0,.2-.1,0,0,0-.1,0-.2,0,0,0-.1,0-.2,0,0,0-.1,0-.2-2.2-3.6-3.4-7.3-3.5-11.1-.4-14.1,10-25.9,23.2-26.3,7.9-.2,14.4,2.1,18.4,6.6,3.8,4.3,5.1,10.3,4,17.9-.9,5.9-1.8,12.4-4.2,17.8-2.6,5.7-6.5,9.2-12,10.7-5.8,1.5-14.8-1.1-17.8-6.8,0-.1-.2-.2-.3-.3,0,0-.1,0-.2,0,0,0-.1,0-.2,0,0,0-.1,0-.2.1,0,0,0,.1-.1.2,0,0,0,.1,0,.2,0,0,0,.1,0,.2,2.8,5.3,11.6,9.4,19.1,7.4Z"/>
    <path class="st2" d="M120.1,170.3c0,0-.1,0-.2-.1,0,0,0-.1-.1-.2,0,0,0-.1,0-.2,0,0,0-.1,0-.2,0,0,0-.1.1-.2,0,0,.1,0,.2-.1,0,0,.1,0,.2,0,0,0,.1,0,.2,0,.4.1,1.6.4,2-.2.3-.3-.5-1.9-1.5-3.3,0,0,0-.1-.1-.2,0,0,0-.1,0-.2,0,0,0-.1,0-.2,0,0,0-.1.1-.2,0,0,.1,0,.2,0,0,0,.2,0,.2,0,0,0,.1,0,.2,0,0,0,.1,0,.2.2,2.3,3.1,1.7,4.4,1.5,4.7-.2.3-.5.5-.8.6-.3.1-.7.2-1,.2-.5,0-1,0-1.4-.2ZM113.3,163.8c0,0-.1,0-.2-.1,0,0,0-.1-.1-.2,0,0,0-.1,0-.2v-1.9c.1-.1.2-.3.3-.4.1,0,.3-.1.4-.1,0,0,.1,0,.2,0,0,0,.1,0,.2.1,0,0,0,.1.1.2,0,0,0,.1,0,.2v1.9c-.1.1-.2.3-.3.4-.1,0-.2.2-.4.2s-.2,0-.2,0ZM127.3,162.4c0,0-.1,0-.2-.1,0,0,0-.1-.1-.2,0,0,0-.1,0-.2v-1.9c.1-.1.2-.3.3-.4.1,0,.3-.1.4-.1.1,0,.3,0,.4.2,0,.1.1.3.1.4v1.9c-.1.1-.2.3-.3.4-.1,0-.2.2-.4.2s-.2,0-.2,0ZM112.3,155.5c0,0-.2-.1-.2-.2,0,0,0-.2,0-.3s0-.2.1-.3c.4-.5.9-.8,1.4-.9.6-.1,1.2,0,1.7.2.1,0,.2.2.3.3,0,.1,0,.3,0,.4,0,.1-.2.2-.3.3-.1,0-.3,0-.4,0-.1,0-1.1-.5-1.8.4,0,0-.1.1-.2.2,0,0-.2,0-.2,0-.1,0-.2,0-.3,0ZM129.1,154.5c0,0-.1,0-.2-.1,0,0-.8-.9-1.8-.3,0,0-.1,0-.2,0,0,0-.2,0-.2,0,0,0-.1,0-.2,0,0,0-.1-.1-.2-.2,0,0,0-.1,0-.2,0,0,0-.2,0-.2,0,0,0-.1.1-.2,0,0,.1-.1.2-.1,1.4-.8,2.7,0,3.2.5,0,0,.1.2.1.3s0,.2,0,.3c0,0-.1.2-.2.2,0,0-.2,0-.3,0,0,0-.2,0-.2,0ZM115.6,176.8c-.6-.3-1.1-.8-1.4-1.4,0,0,0-.1,0-.2,0,0,0-.1,0-.2,0,0,0-.1,0-.2,0,0,0-.1.2-.1,0,0,.1,0,.2,0,0,0,.1,0,.2,0,0,0,.1,0,.2,0,0,0,.1,0,.1.2,1.5,2.5,4.5.8,4.7.7.1,0,.3,0,.4,0,.1,0,.3.1.3.3,0,.1,0,.3,0,.4,0,.1-.1.3-.3.3-.9.5-1.8.8-2.8.8-.7,0-1.3-.2-1.9-.5Z"/>
    <path class="st2" d="M98.8,163.7c-.2.8-1.4-5.4-2.5-6.5-2.5,0-1.2,5.2-1.3,12.4-.1,6.5,1.4,21.7,3.7,29.6,2.2,7.9-18,8.1-24.5-4,.1-21.3-4.7-62.4,14.7-66.1,8-15.1,33.5-9.6,43.7-3.4,14-2.5,27.3,14.4,5.9,29.4-3-1.1-6.4-4.5-7.8-8.3-9.4,7.6-28.2-5.8-31.9,17Z"/>
    <path class="st7" d="M95.8,168.9c-1.2.9-2.7,1.7-4.3,1.7-4.1.1-7.6-4.2-7.8-9.5-.1-4.1,3.7-7.9,7.7-6.8,1.8.6,3.5,1.6,4.9,2.9"/>
  </g>
</svg>
