<?xml version="1.0" encoding="UTF-8"?>
<svg id="Calque_1" xmlns="http://www.w3.org/2000/svg" version="1.1" width="327" height="327" viewBox="0 0 327 327">
  <!-- Generator: Adobe Illustrator 29.4.0, SVG Export Plug-In . SVG Version: 2.1.0 Build 152)  -->
  <defs>
    <style>
      .st0 {
        fill: #f6bd5f;
      }

      .st1 {
        fill: #3a3a3a;
      }

      .st2 {
        fill: #6868f5;
      }

      .st3 {
        fill: #e4794a;
      }

      .st4 {
        fill: #fff;
      }

      .st5 {
        fill: #f0f0fc;
      }
    </style>
  </defs>
  <path class="st5" d="M320.1,250.2c-14.6,33.9-67.2,54.5-128.2,66.2-61,11.7-173.5-58.3-189.6-116.8C-13.7,141.1,57.5,80.6,100.4,52.6c42.8-28,126.7-15.5,169.4,19.8,42.7,35.3,70.9,129.9,50.3,177.8Z"/>
  <g>
    <path class="st1" d="M183.9,224.7c-.3,0,2,1.5-33-22.4-12.8-8.7-23.2-20.4-30.5-34.1-7.2-13.7-11-28.9-11-44.4V54.1c0,0,0-.2,0-.3,0,0,.1-.1.2-.2,0,0,8.5-5.3,21.8-10.5,12.3-4.8,31.3-10.5,52.5-10.5s40.2,5.7,52.5,10.5c13.3,5.2,21.7,10.4,21.8,10.5,0,0,.1.1.2.2,0,0,0,.2,0,.3v69.6c0,15.5-3.8,30.7-11,44.4-7.2,13.7-17.7,25.4-30.5,34.1-35.1,24-32.8,22.4-33,22.4ZM110.5,54.4v69.3c0,15.3,3.7,30.4,10.9,43.9,7.1,13.5,17.5,25.1,30.1,33.8l32.4,22.1,32.4-22.1c12.6-8.6,23-20.2,30.1-33.8,7.1-13.5,10.9-28.6,10.9-43.9V54.4c-1.5-.9-9.4-5.6-21.4-10.2-12.2-4.7-31.1-10.4-52.1-10.4s-39.9,5.6-52.1,10.4c-11.9,4.6-19.9,9.3-21.3,10.2Z"/>
    <path class="st0" d="M157.2,193c-11.3-7.7-20.5-18-26.9-30.1-6.4-12.1-9.7-25.5-9.7-39.2v-63.3c10.2-5.3,34.9-16.5,63.3-16.5s53.1,11.1,63.3,16.5v63.3c0,13.7-3.3,27.1-9.7,39.2-6.4,12.1-15.6,22.4-26.9,30.1l-26.7,18.3-26.7-18.3Z"/>
    <path class="st3" d="M62.9,160.5h125.3v22.5H62.9v-22.5Z"/>
    <path class="st4" d="M79,178.2c-.1,0-.3,0-.4-.2,0,0-.2-.2-.2-.4v-12.3c0-.1,0-.3.2-.4,0,0,.2-.2.4-.2s.3,0,.4.2c0,0,.2.2.2.4v12.3c0,.1,0,.3-.2.4,0,0-.2.2-.4.2Z"/>
    <path class="st4" d="M73.7,175.2c-.1,0-.2,0-.3-.1,0,0-.2-.2-.2-.3,0-.1,0-.2,0-.3,0-.1.1-.2.2-.3l10.7-6.2c0,0,.1,0,.2,0,0,0,.1,0,.2,0,0,0,.1,0,.2,0,0,0,.1,0,.1.2,0,0,0,.1,0,.2,0,0,0,.1,0,.2,0,0,0,.1,0,.2,0,0-.1.1-.2.1-11.4,6.6-10.7,6.2-10.9,6.2Z"/>
    <path class="st4" d="M84.4,175.2c-.2,0,.4.3-10.9-6.2-.1,0-.2-.2-.2-.3,0-.1,0-.3,0-.4,0-.1.2-.2.3-.2.1,0,.3,0,.4,0l10.7,6.2c.1,0,.2.1.2.3,0,.1,0,.2,0,.3,0,.1,0,.2-.2.3,0,0-.2.1-.3.1ZM97.8,178.4c-.1,0-.3,0-.4-.2,0,0-.2-.2-.2-.4v-12.3c0-.1,0-.3.2-.4s.2-.2.4-.2.3,0,.4.2.2.2.2.4v12.3c0,.1,0,.3-.2.4,0,0-.2.2-.4.2Z"/>
    <path class="st4" d="M92.5,175.3c-.1,0-.2,0-.3-.1,0,0-.2-.2-.2-.3,0-.1,0-.2,0-.3,0-.1.1-.2.2-.3l10.7-6.2c0,0,.1,0,.2,0,0,0,.1,0,.2,0,0,0,.1,0,.2,0,0,0,.1,0,.1.2,0,0,0,.1,0,.2,0,0,0,.1,0,.2,0,0,0,.1,0,.2,0,0-.1.1-.2.1-11.4,6.6-10.7,6.2-10.9,6.2Z"/>
    <path class="st4" d="M103.1,175.3c-.2,0,.4.3-10.9-6.2-.1,0-.2-.2-.2-.3,0-.1,0-.3,0-.4,0-.1.2-.2.3-.2s.3,0,.4,0l10.7,6.2c.1,0,.2.1.2.3,0,.1,0,.2,0,.3,0,.1,0,.2-.2.3,0,0-.2.1-.3.1ZM116.6,178.5c-.1,0-.3,0-.4-.2,0,0-.2-.2-.2-.4v-12.3c0-.1,0-.3.2-.4,0,0,.2-.2.4-.2s.3,0,.4.2c0,0,.2.2.2.4v12.3c0,.1,0,.3-.2.4,0,0-.2.2-.4.2Z"/>
    <path class="st4" d="M111.2,175.4c-.1,0-.2,0-.3-.1,0,0-.2-.2-.2-.3s0-.2,0-.3c0-.1.1-.2.2-.3l10.6-6.2c.1,0,.3,0,.4,0,.1,0,.3.1.3.2,0,.1,0,.3,0,.4,0,.1-.1.3-.2.3-11.4,6.6-10.7,6.2-10.9,6.2Z"/>
    <path class="st4" d="M121.9,175.4c-.2,0,.4.3-10.9-6.2-.1,0-.2-.2-.2-.3,0-.1,0-.3,0-.4,0-.1.2-.2.3-.2.1,0,.3,0,.4,0l10.7,6.1c.1,0,.2.1.2.3,0,.1,0,.2,0,.4,0,.1-.1.2-.2.3,0,0-.2.1-.3.1ZM135.3,178.6c-.1,0-.3,0-.4-.2,0,0-.2-.2-.2-.4v-12.3c0-.1,0-.3.2-.4,0,0,.2-.2.4-.2s.3,0,.4.2c0,0,.2.2.2.4v12.3c0,.1,0,.3-.2.4,0,0-.2.2-.4.2Z"/>
    <path class="st4" d="M130,175.5c-.1,0-.2,0-.3-.1,0,0-.2-.2-.2-.3,0-.1,0-.2,0-.3,0-.1.1-.2.2-.3l10.7-6.2c0,0,.1,0,.2,0,0,0,.1,0,.2,0,0,0,.1,0,.2,0,0,0,.1,0,.1.2,0,0,0,.1,0,.2,0,0,0,.1,0,.2,0,0,0,.1,0,.2,0,0-.1.1-.2.1-11.4,6.6-10.7,6.2-10.9,6.2Z"/>
    <path class="st4" d="M140.6,175.5c-.2,0,.4.3-10.9-6.2,0,0-.1,0-.2-.1,0,0,0-.1,0-.2,0,0,0-.1,0-.2,0,0,0-.1,0-.2,0,0,0-.1.1-.2,0,0,.1,0,.2,0,0,0,.1,0,.2,0,0,0,.1,0,.2,0l10.7,6.2c.1,0,.2.1.2.3,0,.1,0,.2,0,.3,0,.1,0,.2-.2.3,0,0-.2.1-.3.1ZM158.3,177.5h-11.7c-.1,0-.3,0-.4-.2,0,0-.2-.2-.2-.4s0-.3.2-.4c0,0,.2-.2.4-.2h11.7c.1,0,.3,0,.4.2,0,0,.2.2.2.4s0,.3-.2.4c0,0-.2.2-.4.2h0ZM177.4,177.5h-11.7c-.1,0-.3,0-.4-.2,0,0-.2-.2-.2-.4s0-.3.2-.4c0,0,.2-.2.4-.2h11.7c.1,0,.3,0,.4.2,0,0,.2.2.2.4s0,.3-.2.4c0,0-.2.2-.4.2Z"/>
    <path class="st2" d="M207.3,99.3h-3.5v-4.7c0-5.3-2.1-10.4-5.8-14.1-3.7-3.7-8.8-5.8-14.1-5.8s-10.4,2.1-14.1,5.8c-3.7,3.7-5.8,8.8-5.8,14.1v4.7h-3.5c-2.2,0-3.9,1.7-3.9,3.9v34.2c0,2.2,1.7,3.9,3.9,3.9h46.9c2.2,0,3.9-1.7,3.9-3.9v-34.2c0-2.2-1.7-3.9-3.9-3.9ZM197.1,99.3h-26.4v-4.7c0-3.5,1.4-6.8,3.9-9.3,2.5-2.5,5.8-3.9,9.3-3.9s6.8,1.4,9.3,3.9c2.5,2.5,3.9,5.8,3.9,9.3v4.7Z"/>
    <path class="st4" d="M188.5,117.3c0,1.8-1,3.3-2.5,4.1v6.6h-4.3v-6.6c-1.5-.8-2.5-2.3-2.5-4.1,0-2.5,2.1-4.6,4.6-4.6s4.6,2.1,4.6,4.6Z"/>
    <path class="st2" d="M79.3,18.8h45c.9,0,1.7.4,2.4,1,.6.6,1,1.5,1,2.4v40.2l6,7.1h-54.4c-.4,0-.9,0-1.3-.3-.4-.2-.8-.4-1.1-.7s-.6-.7-.7-1.1c-.2-.4-.3-.8-.3-1.3V22.2c0-.9.4-1.7,1-2.4.6-.6,1.5-1,2.4-1Z"/>
    <path class="st0" d="M276.9,209.9c0,0,.2.2.2.4s0,.3-.2.4c0,0-.2.2-.4.2h-.4c0-.4,0-.7,0-1.1h.3c.1,0,.3,0,.4.2Z"/>
    <path class="st1" d="M295,192.4c-7.8,0-14.5,4.7-17.3,11.4h-45.3l-5.7,7.6,5.7,7.2h9.5l2.7-2.3,3.5,2.3,3.4-2.3,3.4,2.3h8.8c0-.8.4-1.6,1-2.2.6-.6,1.4-.9,2.2-.9s1.6.3,2.2.9c.6.6,1,1.3,1,2.2h7.6c2.9,6.7,9.6,11.4,17.3,11.4s18.9-8.4,18.9-18.9-8.4-18.9-18.9-18.9ZM235.8,210.8c-.1,0-.3,0-.4-.2,0,0-.2-.2-.2-.4s0-.3.2-.4c0,0,.2-.2.4-.2h40.8c.1,0,.3,0,.4.2,0,0,.2.2.2.4s0,.3-.2.4c0,0-.2.2-.4.2h-40.8ZM303.1,216.9c-3.1,0-5.6-2.5-5.6-5.6s2.5-5.6,5.6-5.6,5.6,2.5,5.6,5.6-2.5,5.6-5.6,5.6Z"/>
    <path class="st0" d="M277,210.3c0,.1,0,.3-.2.4,0,0-.2.2-.4.2h-40.8c-.1,0-.3,0-.4-.2,0,0-.2-.2-.2-.4s0-.3.2-.4c0,0,.2-.2.4-.2h40.8c.1,0,.3,0,.4.2,0,0,.2.2.2.4Z"/>
    <path class="st4" d="M277,210.3c0,.1,0,.3-.2.4,0,0-.2.2-.4.2h-40.8c-.1,0-.3,0-.4-.2,0,0-.2-.2-.2-.4s0-.3.2-.4c0,0,.2-.2.4-.2h40.8c.1,0,.3,0,.4.2,0,0,.2.2.2.4Z"/>
    <path class="st1" d="M297,184c-.1,0-.3,0-.4-.2s-.2-.2-.2-.4v-3.2c0-.1,0-.3.2-.4,0,0,.2-.2.4-.2s.3,0,.4.2c0,0,.2.2.2.4v3.2c0,.1,0,.3-.2.4s-.2.2-.4.2ZM297,177.6c-.1,0-.3,0-.4-.2,0,0-.2-.2-.2-.4v-3.2c0-.1,0-.3.2-.4,0,0,.2-.2.4-.2s.3,0,.4.2c0,0,.2.2.2.4v3.2c0,.1,0,.3-.2.4,0,0-.2.2-.4.2ZM297,171.2c-.1,0-.3,0-.4-.2,0,0-.2-.2-.2-.4v-3.2c0-.1,0-.3.2-.4,0,0,.2-.2.4-.2s.3,0,.4.2c0,0,.2.2.2.4v3.2c0,.1,0,.3-.2.4,0,0-.2.2-.4.2ZM297,164.8c-.1,0-.3,0-.4-.2,0,0-.2-.2-.2-.4v-3.2c0-.1,0-.3.2-.4s.2-.2.4-.2.3,0,.4.2.2.2.2.4v3.2c0,.1,0,.3-.2.4,0,0-.2.2-.4.2ZM297,158.4c-.1,0-.3,0-.4-.2s-.2-.2-.2-.4v-3.2c0-.1,0-.3.2-.4,0,0,.2-.2.4-.2s.3,0,.4.2c0,0,.2.2.2.4v3.2c0,.1,0,.3-.2.4s-.2.2-.4.2ZM297,152.1c-.1,0-.3,0-.4-.2,0,0-.2-.2-.2-.4v-3.2c0-.1,0-.3.2-.4,0,0,.2-.2.4-.2s.3,0,.4.2c0,0,.2.2.2.4v3.2c0,.1,0,.3-.2.4,0,0-.2.2-.4.2ZM297,145.7c-.1,0-.3,0-.4-.2,0,0-.2-.2-.2-.4v-3.2c0-.1,0-.3.2-.4,0,0,.2-.2.4-.2s.3,0,.4.2c0,0,.2.2.2.4v3.2c0,.1,0,.3-.2.4,0,0-.2.2-.4.2ZM297,139.3c-.1,0-.3,0-.4-.2,0,0-.2-.2-.2-.4v-3.2c0-.1,0-.3.2-.4s.2-.2.4-.2.3,0,.4.2.2.2.2.4v3.2c0,.1,0,.3-.2.4,0,0-.2.2-.4.2ZM297,132.9c-.1,0-.3,0-.4-.2s-.2-.2-.2-.4v-3.2c0-.1,0-.3.2-.4,0,0,.2-.2.4-.2s.3,0,.4.2c0,0,.2.2.2.4v3.2c0,.1,0,.3-.2.4s-.2.2-.4.2ZM297,126.5c-.1,0-.3,0-.4-.2s-.2-.2-.2-.4v-3.2c0-.1,0-.3.2-.4,0,0,.2-.2.4-.2s.3,0,.4.2c0,0,.2.2.2.4v3.2c0,.1,0,.3-.2.4s-.2.2-.4.2ZM297,120.1c-.1,0-.3,0-.4-.2,0,0-.2-.2-.2-.4v-3.2c0-.1,0-.3.2-.4,0,0,.2-.2.4-.2s.3,0,.4.2c0,0,.2.2.2.4v3.2c0,.1,0,.3-.2.4,0,0-.2.2-.4.2ZM295.3,115.5h-3.2c-.1,0-.3,0-.4-.2,0,0-.2-.2-.2-.4s0-.3.2-.4c0,0,.2-.2.4-.2h3.2c.1,0,.3,0,.4.2,0,0,.2.2.2.4s0,.3-.2.4c0,0-.2.2-.4.2ZM288.9,115.5h-3.2c-.1,0-.3,0-.4-.2,0,0-.2-.2-.2-.4s0-.3.2-.4c0,0,.2-.2.4-.2h3.2c.1,0,.3,0,.4.2,0,0,.2.2.2.4s0,.3-.2.4c0,0-.2.2-.4.2ZM282.5,115.5h-3.2c-.1,0-.3,0-.4-.2,0,0-.2-.2-.2-.4s0-.3.2-.4c0,0,.2-.2.4-.2h3.2c.1,0,.3,0,.4.2,0,0,.2.2.2.4s0,.3-.2.4c0,0-.2.2-.4.2ZM276.2,115.5h-3.2c-.1,0-.3,0-.4-.2,0,0-.2-.2-.2-.4s0-.3.2-.4c0,0,.2-.2.4-.2h3.2c.1,0,.3,0,.4.2,0,0,.2.2.2.4s0,.3-.2.4c0,0-.2.2-.4.2ZM269.8,115.5h-3.2c-.1,0-.3,0-.4-.2,0,0-.2-.2-.2-.4s0-.3.2-.4c0,0,.2-.2.4-.2h3.2c.1,0,.3,0,.4.2,0,0,.2.2.2.4s0,.3-.2.4c0,0-.2.2-.4.2ZM263.4,115.5h-3.2c-.1,0-.3,0-.4-.2,0,0-.2-.2-.2-.4s0-.3.2-.4c0,0,.2-.2.4-.2h3.2c.1,0,.3,0,.4.2,0,0,.2.2.2.4s0,.3-.2.4c0,0-.2.2-.4.2Z"/>
    <path class="st3" d="M245.5,31.4c0,0-.2,0-.2,0,0,0-.1,0-.2-.1,0,0,0-.1-.1-.2,0,0,0-.2,0-.2l3.8-21.1c0-.1.1-.3.2-.3.1,0,.3-.1.4,0,.1,0,.3.1.3.2,0,.1.1.3,0,.4l-3.8,21.1c0,.1,0,.2-.2.3,0,0-.2.1-.3.1ZM259.3,37.9c-.1,0-.2,0-.3,0,0,0-.2-.1-.2-.2,0,0,0-.2,0-.3,0-.1,0-.2.1-.3l13.9-16.3c0-.1.2-.2.4-.2.1,0,.3,0,.4.1.1,0,.2.2.2.4,0,.1,0,.3-.1.4l-13.9,16.3c0,0-.1.1-.2.1,0,0-.1,0-.2,0ZM265.7,51.3c-.1,0-.2,0-.3,0,0,0-.2-.2-.2-.3,0-.1,0-.3,0-.4,0-.1.2-.2.3-.3l22.4-8c.1,0,.3,0,.4,0,.1,0,.2.2.3.3s0,.3,0,.4c0,.1-.2.2-.3.3-24,8.6-22.4,8-22.6,8ZM90,250.2c-4.8,0-9.6-1.3-13.8-3.7,0,0-.1,0-.2-.1,0,0,0-.1,0-.2,0,0,0-.1,0-.2s0-.1,0-.2c0,0,0-.1.1-.2,0,0,.1,0,.2,0,0,0,.1,0,.2,0,0,0,.1,0,.2,0,5.9,3.4,12.8,4.4,19.4,2.8,6.6-1.6,12.3-5.6,16.1-11.2,3.7-5.7,5.2-12.5,4-19.2-1.2-6.7-4.8-12.7-10.2-16.7-5.4-4.1-12.2-5.9-18.9-5.2-6.7.7-12.9,4-17.3,9.2-4.4,5.1-6.7,11.8-6.4,18.5.3,6.8,3.2,13.2,8.1,17.9,0,.1.1.2.1.4,0,.1,0,.2-.2.3,0,0-.2.1-.3.2-.1,0-.3,0-.4-.1-4.6-4.5-7.5-10.4-8.2-16.8-.7-6.4.8-12.8,4.3-18.2,3.5-5.4,8.8-9.4,14.9-11.3,6.1-1.9,12.7-1.6,18.7.8,5.9,2.4,10.9,6.8,13.9,12.5,3.1,5.6,4.1,12.2,2.8,18.5-1.2,6.3-4.6,12-9.6,16-4.9,4.1-11.2,6.3-17.6,6.3h0Z"/>
    <path class="st3" d="M109.7,233.9c-2,3.5-4.9,6.3-8.3,8.3-3.5,2-7.4,3.1-11.4,3.1s-7.9-1.1-11.4-3.1c-3.5-2-6.3-4.9-8.3-8.3,2-3.5,4.9-6.3,8.3-8.3,3.5-2,7.4-3.1,11.4-3.1s7.9,1.1,11.4,3.1c3.5,2,6.3,4.9,8.3,8.3h0Z"/>
    <path class="st3" d="M90,223.5c5.5,0,9.9-4.5,9.9-9.9s-4.5-9.9-9.9-9.9-9.9,4.5-9.9,9.9,4.5,9.9,9.9,9.9Z"/>
    <path class="st1" d="M138.2,222.8h-3.2c-.1,0-.3,0-.4-.2,0,0-.2-.2-.2-.4s0-.3.2-.4c0,0,.2-.2.4-.2h3.2c.1,0,.3,0,.4.2,0,0,.2.2.2.4s0,.3-.2.4c0,0-.2.2-.4.2ZM131.8,222.8h-3.2c-.1,0-.3,0-.4-.2,0,0-.2-.2-.2-.4s0-.3.2-.4c0,0,.2-.2.4-.2h3.2c.1,0,.3,0,.4.2,0,0,.2.2.2.4s0,.3-.2.4c0,0-.2.2-.4.2ZM125.4,222.8h-3.2c-.1,0-.3,0-.4-.2,0,0-.2-.2-.2-.4s0-.3.2-.4c0,0,.2-.2.4-.2h3.2c.1,0,.3,0,.4.2,0,0,.2.2.2.4s0,.3-.2.4c0,0-.2.2-.4.2ZM140.8,222.3c-.1,0-.3,0-.4-.2,0,0-.2-.2-.2-.4v-3.2c0-.1,0-.3.2-.4,0,0,.2-.2.4-.2s.3,0,.4.2c0,0,.2.2.2.4v3.2c0,.1,0,.3-.2.4,0,0-.2.2-.4.2ZM140.8,215.9c-.1,0-.3,0-.4-.2,0,0-.2-.2-.2-.4v-3.2c0-.1,0-.3.2-.4s.2-.2.4-.2.3,0,.4.2c0,0,.2.2.2.4v3.2c0,.1,0,.3-.2.4,0,0-.2.2-.4.2ZM140.8,209.5c-.1,0-.3,0-.4-.2s-.2-.2-.2-.4v-3.2c0-.1,0-.3.2-.4s.2-.2.4-.2.3,0,.4.2c0,0,.2.2.2.4v3.2c0,.1,0,.3-.2.4,0,0-.2.2-.4.2ZM140.8,203.2c-.1,0-.3,0-.4-.2s-.2-.2-.2-.4v-3.2c0-.1,0-.3.2-.4,0,0,.2-.2.4-.2s.3,0,.4.2c0,0,.2.2.2.4v3.2c0,.1,0,.3-.2.4,0,0-.2.2-.4.2ZM140.8,196.8c-.1,0-.3,0-.4-.2,0,0-.2-.2-.2-.4v-3.2c0-.1,0-.3.2-.4,0,0,.2-.2.4-.2s.3,0,.4.2c0,0,.2.2.2.4v3.2c0,.1,0,.3-.2.4,0,0-.2.2-.4.2ZM140.8,190.4c-.1,0-.3,0-.4-.2,0,0-.2-.2-.2-.4v-3.2c0-.1,0-.3.2-.4,0,0,.2-.2.4-.2s.3,0,.4.2c0,0,.2.2.2.4v3.2c0,.1,0,.3-.2.4,0,0-.2.2-.4.2Z"/>
  </g>
</svg>
