<?xml version="1.0" encoding="UTF-8"?>
<svg id="Calque_1" xmlns="http://www.w3.org/2000/svg" version="1.1" width="350" height="327" viewBox="0 0 350 327">
  <!-- Generator: Adobe Illustrator 29.4.0, SVG Export Plug-In . SVG Version: 2.1.0 Build 152)  -->
  <defs>
    <style>
      .st0 {
        fill: #f6bd5f;
      }

      .st1 {
        fill: #3a3a3a;
      }

      .st2 {
        fill: #e4794a;
      }

      .st3 {
        fill: #fff;
      }

      .st4 {
        fill: #f0f0fc;
      }

      .st5 {
        fill: #6a6af4;
      }
    </style>
  </defs>
  <path class="st4" d="M337.1,256.2c-14.8,36.7-76.2,73.6-131.8,70.7-64.1-3.4-179.8-64.9-196.9-128.6-17.1-63.7,70.9-45.7,67.7-101.2-9.7-166.8,163-73.2,207.5-34.4,44.5,38.8,74.5,141.7,53.6,193.6Z"/>
  <path class="st0" d="M149.8,250.5l-50,15.9c-24.2-81,72.9-111.8,99.9-31.8l-50,15.9Z"/>
  <path class="st5" d="M85.4,274.2c0,0-.2,0-.3,0,0,0-.2-.1-.2-.2,0,0-5.5-9.7-7.3-23.9-1.6-11.9,0-24,4.6-35.1,5.6-13.7,12-21.6,17.1-27.9,6.5-8.1,10.5-12.9,7.3-23.4-3.5-10.4-9.5-12.1-19.5-14.8-7.9-2.2-17.6-4.9-30.1-12.8-15-9.5-22.9-22.5-26.9-31.7-4.3-10-5.1-17.9-5.1-18,0-.1,0-.3,0-.4,0-.1.2-.2.3-.2l124.1-39.6c.1,0,.3,0,.4,0,.1,0,.2.1.3.2,0,0,4,6.9,6.3,17.6,2.1,9.8,3.2,25-3.5,41.4-5.6,13.7-12,21.6-17.1,27.9-6.5,8.1-10.5,12.9-7.3,23.4,3.5,10.4,9.5,12.1,19.5,14.8,7.9,2.2,17.6,4.9,30.1,12.8.7.4,1.3.9,2,1.3,0,0,.1,0,.2.2,0,0,0,.1,0,.2,0,0,0,.1,0,.2,0,0,0,.1,0,.2,0,0,0,.1-.2.2,0,0-.1,0-.2,0,0,0-.1,0-.2,0s-.1,0-.2,0c-.6-.4-1.3-.9-2-1.3-12.4-7.8-22-10.5-29.8-12.7-10-2.8-16.6-4.6-20.3-15.6-3.4-11.1.9-16.4,7.5-24.5,5.1-6.3,11.4-14.1,16.9-27.6,6.6-16.2,5.5-31.1,3.4-40.8-1.9-9-5.1-15.3-5.9-16.9L26.1,86.4c.2,1.8,1.3,8.7,5,17.2,3.9,9.1,11.7,21.8,26.4,31.2,12.4,7.8,22,10.5,29.8,12.7,10,2.8,16.6,4.6,20.3,15.6,3.4,11.1-.9,16.4-7.5,24.5-5.1,6.3-11.4,14.1-16.9,27.6-4.5,10.9-6,22.9-4.5,34.6,1.6,12.3,5.9,21.1,7,23.1l123.2-39.4c-.3-2.2-1.8-11.9-7.7-22.8,0,0,0-.1,0-.2,0,0,0-.2,0-.2,0,0,0-.1.1-.2,0,0,.1-.1.2-.1,0,0,.1,0,.2,0,0,0,.2,0,.2,0s.1,0,.2.1c0,0,.1.1.1.2,6.8,12.6,7.9,23.6,7.9,23.7,0,.1,0,.3,0,.4,0,.1-.2.2-.3.2l-124.1,39.6c0,0-.1,0-.2,0Z"/>
  <path class="st5" d="M89.4,249.1c-.1,0-.3,0-.4-.1-.1,0-.2-.2-.2-.4-1.3-10,0-20.1,3.8-29.4,5-12.1,10.5-19,15.4-25.1,0-.1.2-.2.4-.2.1,0,.3,0,.4.1.1,0,.2.2.2.4,0,.1,0,.3-.1.4-4.9,6-10.4,12.8-15.3,24.8-3.7,9.1-5,19.1-3.7,28.9,0,0,0,.1,0,.2,0,0,0,.1,0,.2,0,0-.1.1-.2.1,0,0-.1,0-.2,0h0ZM90.2,137.7c0,0-.1,0-.2,0-7.5-2.1-16-4.5-27.1-11.5-9.8-6.2-17.3-15-22.2-25.9,0,0,0-.1,0-.2,0,0,0-.1,0-.2,0,0,0-.1.1-.2,0,0,.1,0,.2-.1s.1,0,.2,0c0,0,.1,0,.2,0,0,0,.1,0,.2.1,0,0,0,.1.1.2,4.8,10.7,12.1,19.3,21.8,25.4,10.9,6.9,19.4,9.3,26.8,11.4.1,0,.2.1.3.2,0,.1.1.3,0,.4,0,.1,0,.3-.2.4-.1,0-.2.1-.4.1h0Z"/>
  <path class="st1" d="M18.1,82.4l135.5-43.3,2.5,7.7L20.5,90.1l-2.5-7.7Z"/>
  <path class="st1" d="M79,273.1l135.5-43.3,2.5,7.7-135.5,43.3-2.5-7.7Z"/>
  <path class="st2" d="M149.2,140c-.1,0-.3,0-.4-.2-.1-.1-.2-.2-.2-.4,0-.1,0-.3.2-.4l10.9-11.5c.1-.1.2-.2.4-.2.2,0,.3,0,.4.2.1.1.2.2.2.4,0,.2,0,.3-.2.4l-10.9,11.5c0,0-.1.1-.2.1,0,0-.1,0-.2,0ZM155,149.6c-.1,0-.3,0-.4-.1-.1,0-.2-.2-.2-.3,0-.1,0-.3,0-.4,0-.1.2-.2.3-.2l15.2-4.5c.1,0,.3,0,.4,0,.1,0,.2.2.3.3,0,.1,0,.3,0,.4,0,.1-.2.2-.3.3l-15.2,4.5c0,0-.1,0-.2,0ZM170.7,164.6s0,0-.1,0l-17.1-4.2c0,0-.1,0-.2,0,0,0-.1-.1-.1-.2,0,0,0-.1,0-.2,0,0,0-.1,0-.2,0,0,0-.1,0-.2,0,0,.1-.1.2-.1,0,0,.1,0,.2,0,0,0,.1,0,.2,0l17.1,4.2c.1,0,.3.1.3.2,0,.1.1.3,0,.4,0,.1,0,.3-.2.4-.1,0-.2.1-.4.1h0ZM79.7,162.1s0,0-.1,0l-15.5-3c0,0-.1,0-.2,0,0,0-.1,0-.2-.2,0,0,0-.1,0-.2,0,0,0-.1,0-.2,0,0,0-.1,0-.2,0,0,0-.1.2-.2,0,0,.1,0,.2,0,0,0,.1,0,.2,0l15.6,3c.2,0,.3,0,.4.2,0,.1.1.3.1.4,0,.2,0,.3-.2.4-.1,0-.3.1-.4.1h0ZM65.6,178.6c-.1,0-.3,0-.4-.1-.1,0-.2-.2-.2-.3,0-.1,0-.3,0-.4s.2-.2.3-.2l15-5.2c0,0,.1,0,.2,0,0,0,.2,0,.2,0,0,0,.1,0,.2.1,0,0,0,.1.1.2,0,0,0,.1,0,.2,0,0,0,.2,0,.2,0,0,0,.1-.1.2,0,0-.1,0-.2.1l-15,5.2c0,0-.1,0-.2,0ZM76.5,194.7c-.1,0-.2,0-.3,0,0,0-.2-.1-.2-.2,0,0,0-.2,0-.3,0-.1,0-.2.1-.3l11.5-13.3c0,0,.1-.1.2-.2,0,0,.1,0,.2,0,0,0,.2,0,.2,0,0,0,.1,0,.2.1,0,0,.1.1.1.2,0,0,0,.1,0,.2,0,0,0,.2,0,.2,0,0,0,.1-.1.2l-11.5,13.3c0,0-.1.1-.2.1,0,0-.2,0-.2,0Z"/>
  <path class="st3" d="M229.8,277.1c28.8,0,52.2-23.4,52.2-52.2s-23.4-52.2-52.2-52.2-52.2,23.4-52.2,52.2,23.4,52.2,52.2,52.2Z"/>
  <path class="st1" d="M224.7,173.5c-.2,0-.3,0-.4-.2-.1-.1-.2-.3-.2-.4v-11.5c0-.2,0-.3.2-.4.1-.1.3-.2.4-.2h9c.2,0,.3,0,.4.2.1.1.2.3.2.4v11.4c0,.2,0,.3-.2.4s-.3.2-.4.2-.3,0-.4-.2c-.1-.1-.2-.3-.2-.4v-10.8h-7.8v10.9c0,.2,0,.3-.2.4-.1.1-.3.2-.4.2Z"/>
  <path class="st1" d="M229.8,277.7c-7.1,0-14.1-1.4-20.7-4.2-6.5-2.8-12.4-6.9-17.3-12-.1-.1-.2-.3-.2-.4s0-.3.2-.4c0,0,.1,0,.2-.1,0,0,.1,0,.2,0s.1,0,.2,0c0,0,.1,0,.2.1,4.8,5,10.6,9,17,11.7,6.4,2.7,13.3,4.1,20.2,4.1,28.5,0,51.7-23.2,51.7-51.7s-23.2-51.7-51.7-51.7-51.6,23.2-51.6,51.7c0,9.9,2.8,19.5,8.1,27.8,0,.1.1.3,0,.4,0,.1-.1.3-.2.4-.1,0-.3.1-.4,0-.1,0-.3-.1-.4-.2-5.4-8.5-8.3-18.4-8.3-28.4,0-29.1,23.7-52.8,52.8-52.8s52.8,23.7,52.8,52.8-23.7,52.8-52.8,52.8Z"/>
  <path class="st5" d="M229.8,270.4c25.1,0,45.5-20.4,45.5-45.5s-20.4-45.5-45.5-45.5-45.5,20.4-45.5,45.5,20.4,45.5,45.5,45.5Z"/>
  <path class="st1" d="M233.7,166.7c-.1,0-.3,0-.4-.1-.1,0-.2-.2-.2-.3,0-.1,0-.3,0-.4,0-.1.2-.2.3-.3,2.2-1,4-2.7,5.1-4.8,1.1-2.1,1.4-4.6.9-6.9-.5-2.3-1.8-4.5-3.7-6-1.9-1.5-4.2-2.3-6.6-2.3s-4.7.8-6.6,2.3c-1.9,1.5-3.2,3.6-3.7,6-.5,2.3-.2,4.8.9,6.9,1.1,2.1,2.9,3.8,5.1,4.8,0,0,.1,0,.2.1,0,0,0,.1.1.2,0,0,0,.1,0,.2s0,.1,0,.2c0,0,0,.1-.1.2,0,0-.1,0-.2.1,0,0-.1,0-.2,0,0,0-.1,0-.2,0-2.4-1.1-4.4-3-5.6-5.3-1.2-2.4-1.6-5.1-1-7.7.6-2.6,2-4.9,4.1-6.6,2.1-1.7,4.6-2.6,7.3-2.6s5.2.9,7.3,2.6c2.1,1.7,3.5,4,4.1,6.6.6,2.6.2,5.3-1,7.7-1.2,2.4-3.2,4.3-5.6,5.3,0,0-.1,0-.2,0Z"/>
  <path class="st3" d="M229.8,189.6c-.2,0-.3,0-.4-.2s-.2-.3-.2-.4v-3.4c0-.2,0-.3.2-.4s.3-.2.4-.2.3,0,.4.2c.1.1.2.3.2.4v3.4c0,.2,0,.3-.2.4-.1.1-.3.2-.4.2ZM229.8,264.8c-.2,0-.3,0-.4-.2-.1-.1-.2-.3-.2-.4v-3.4c0-.2,0-.3.2-.4.1-.1.3-.2.4-.2s.3,0,.4.2.2.3.2.4v3.4c0,0,0,.2,0,.2,0,0,0,.1-.1.2,0,0-.1,0-.2.1,0,0-.1,0-.2,0ZM269.1,225.5h-3.4c-.2,0-.3,0-.4-.2-.1-.1-.2-.3-.2-.4s0-.3.2-.4c.1-.1.3-.2.4-.2h3.4c.2,0,.3,0,.4.2.1.1.2.3.2.4s0,.3-.2.4c-.1.1-.3.2-.4.2ZM193.8,225.5h-3.4c-.2,0-.3,0-.4-.2s-.2-.3-.2-.4,0-.3.2-.4c.1-.1.3-.2.4-.2h3.4c.2,0,.3,0,.4.2s.2.3.2.4,0,.3-.2.4c-.1.1-.3.2-.4.2ZM211.8,194.4c-.1,0-.2,0-.3,0,0,0-.2-.1-.2-.2l-1.7-2.9c0,0,0-.1,0-.2,0,0,0-.2,0-.2,0,0,0-.1,0-.2,0,0,.1-.1.2-.2,0,0,.1,0,.2,0,0,0,.2,0,.2,0,0,0,.1,0,.2.1,0,0,.1.1.1.2l1.7,2.9c0,.1,0,.3,0,.4,0,.1-.1.3-.3.3,0,0-.2,0-.3,0ZM249.4,259.5c0,0-.2,0-.3,0,0,0-.2-.1-.2-.2l-1.7-2.9c0-.1,0-.3,0-.4,0-.1.1-.3.3-.3.1,0,.3,0,.4,0,.1,0,.3.1.3.3l1.7,2.9c0,.1,0,.3,0,.4,0,.1-.1.3-.3.3,0,0-.2,0-.3,0ZM260.9,207.5c-.1,0-.2,0-.3-.1s-.2-.2-.2-.3c0-.1,0-.2,0-.4,0-.1.1-.2.2-.3l2.9-1.7c.1,0,.3,0,.4,0,.1,0,.3.1.3.3,0,.1,0,.3,0,.4,0,.1-.1.3-.2.3l-2.9,1.7c0,0-.2,0-.3,0ZM195.7,245.2c0,0-.2,0-.3,0s-.2-.1-.2-.2c0,0,0-.1,0-.2,0,0,0-.1,0-.2,0,0,0-.1,0-.2,0,0,.1-.1.2-.1l2.9-1.7c0,0,.1,0,.2,0,0,0,.2,0,.2,0,0,0,.1,0,.2,0,0,0,.1.1.2.2,0,0,0,.1,0,.2,0,0,0,.2,0,.2,0,0,0,.1-.1.2,0,0-.1.1-.2.1l-2.9,1.7c0,0-.2,0-.3,0ZM247.7,194.4c0,0-.2,0-.3,0,0,0-.1,0-.2-.1,0,0,0-.1,0-.2,0,0,0-.1,0-.2,0,0,0-.1,0-.2l1.7-2.9c0-.1.2-.2.3-.3.1,0,.3,0,.4,0,.1,0,.2.2.3.3s0,.3,0,.4l-1.7,2.9c0,0-.1.2-.2.2,0,0-.2,0-.3,0ZM210.1,259.5c-.1,0-.2,0-.3,0-.1,0-.2-.2-.3-.3,0-.1,0-.3,0-.4l1.7-2.9c0-.1.2-.2.3-.3.1,0,.3,0,.4,0,.1,0,.2.2.3.3,0,.1,0,.3,0,.4l-1.7,2.9c0,0-.1.2-.2.2,0,0-.2,0-.3,0ZM198.6,207.5c0,0-.2,0-.3,0l-2.9-1.7c-.1,0-.2-.2-.2-.3s0-.3,0-.4.2-.2.3-.3c.1,0,.3,0,.4,0l2.9,1.7c.1,0,.2.2.2.3,0,.1,0,.2,0,.4,0,.1-.1.2-.2.3s-.2.1-.3.1ZM263.8,245.2c0,0-.2,0-.3,0l-2.9-1.7c0,0-.1,0-.2-.1,0,0,0-.1-.1-.2,0,0,0-.2,0-.2,0,0,0-.1,0-.2,0,0,0-.1.2-.2,0,0,.1,0,.2,0,0,0,.2,0,.2,0,0,0,.1,0,.2,0l2.9,1.7c.1,0,.2.2.2.3,0,.1,0,.2,0,.4,0,.1-.1.2-.2.3,0,0-.2.1-.3.1Z"/>
  <path class="st3" d="M227.9,193.3h3.7v39.3h-3.7v-39.3Z"/>
  <path class="st3" d="M229.8,229.2c2.4,0,4.3-1.9,4.3-4.3s-1.9-4.3-4.3-4.3-4.3,1.9-4.3,4.3,1.9,4.3,4.3,4.3Z"/>
  <path class="st2" d="M204.5,116.7h-61.7c-1,0-2-.3-2.9-.8-.9-.5-1.6-1.3-2.2-2.2-.5-.9-.8-1.9-.8-2.9s.3-2,.8-2.9l30.8-53.4c.5-.9,1.3-1.6,2.2-2.2.9-.5,1.9-.8,2.9-.8s2,.3,2.9.8c.9.5,1.6,1.3,2.2,2.2l30.8,53.4c.5.9.8,1.9.8,2.9,0,1-.3,2-.8,2.9-.5.9-1.3,1.6-2.2,2.2-.9.5-1.9.8-2.9.8Z"/>
  <path class="st3" d="M204.5,113.7h-61.7c-.5,0-1-.1-1.4-.4-.4-.2-.8-.6-1-1-.2-.4-.4-.9-.4-1.4,0-.5.1-1,.4-1.4l30.8-53.4c.3-.4.6-.8,1-1,.4-.2.9-.4,1.4-.4s1,.1,1.4.4c.4.2.8.6,1,1l30.8,53.4c.2.4.4.9.4,1.4,0,.5-.1,1-.4,1.4-.2.4-.6.8-1,1s-.9.4-1.4.4ZM172.4,56.7l-30.8,53.4c-.1.2-.2.5-.2.7,0,.3,0,.5.2.7.1.2.3.4.5.5.2.1.5.2.7.2h61.7c.3,0,.5,0,.7-.2.2-.1.4-.3.5-.5s.2-.5.2-.7c0-.3,0-.5-.2-.7l-30.8-53.4c-.1-.2-.3-.4-.5-.5-.2-.1-.5-.2-.7-.2s-.5,0-.7.2-.4.3-.5.5Z"/>
  <path class="st3" d="M173.7,98.2c-.5,0-1.1-.2-1.4-.6-.4-.4-.6-.9-.6-1.4l-1.2-22.5c0-.3,0-.6.1-.8,0-.3.2-.5.4-.7.2-.2.4-.4.7-.5.3-.1.5-.2.8-.2h2.4c.3,0,.6,0,.8.2.3.1.5.3.7.5.2.2.3.4.4.7,0,.3.1.5.1.8l-1.2,22.5c0,.5-.3,1-.6,1.4-.4.4-.9.6-1.4.6Z"/>
  <path class="st3" d="M173.7,106.5c1.4,0,2.5-1.1,2.5-2.5s-1.1-2.5-2.5-2.5-2.5,1.1-2.5,2.5,1.1,2.5,2.5,2.5Z"/>
  <path class="st2" d="M254.4,181l4.3-4.3,23.3,23.3-4.3,4.3-23.3-23.3Z"/>
  <path class="st2" d="M277.7,176.7l4.3,4.3-23.3,23.3-4.3-4.3,23.3-23.3Z"/>
</svg>
