<svg width="120" height="120" viewBox="0 0 120 120" fill="none" xmlns="http://www.w3.org/2000/svg">
<path fill-rule="evenodd" clip-rule="evenodd" d="M102 19.5C101.173 19.5 100.5 18.8271 100.5 18C100.5 17.1728 101.173 16.5 102 16.5C102.827 16.5 103.5 17.1728 103.5 18C103.5 18.8271 102.827 19.5 102 19.5Z" fill="#CACAFB"/>
<path fill-rule="evenodd" clip-rule="evenodd" d="M45 120C44.1729 120 43.5 119.327 43.5 118.5C43.5 117.673 44.1729 117 45 117C45.8271 117 46.5 117.673 46.5 118.5C46.5 119.327 45.8271 120 45 120Z" fill="#CACAFB"/>
<path fill-rule="evenodd" clip-rule="evenodd" d="M22.5 15C21.6729 15 21 14.3271 21 13.5C21 12.6728 21.6729 12 22.5 12C23.3271 12 24 12.6728 24 13.5C24 14.3271 23.3271 15 22.5 15Z" fill="#CACAFB"/>
<path fill-rule="evenodd" clip-rule="evenodd" d="M81 52.5C66.9168 52.5 55.5 63.9167 55.5 78C55.5 78.0955 55.5006 78.1909 55.5016 78.2862C55.4447 83.256 56.9016 88.2646 59.9332 92.6124C64.542 99.2221 71.9327 103.074 79.6878 103.467C80.0255 103.484 80.3649 103.494 80.7059 103.498C84.0603 103.537 87.4628 102.926 90.7198 101.611C90.8152 101.573 90.9052 101.525 90.989 101.469C94.658 99.9057 97.8855 97.5069 100.433 94.5117C100.614 94.4208 100.784 94.2868 100.933 94.1047C104.633 89.5677 106.561 83.964 106.499 78.2765C106.5 78.1844 106.5 78.0923 106.5 78C106.5 63.9167 95.0833 52.5 81 52.5ZM88.2331 56.6878C85.9631 55.9177 83.5303 55.5 81 55.5C74.9125 55.5 69.3896 57.9176 65.3391 61.845C65.6038 62.1815 65.8255 62.5478 65.9971 62.9335C66.1511 63.2704 66.2779 63.617 66.3803 63.9744C66.5831 64.6829 66.6775 65.283 66.7178 66.0907L66.7388 66.7404C66.7429 66.9732 66.7446 67.2239 66.7446 67.4974L66.7455 67.7975L66.7542 68.3041L66.7735 68.6965L66.8049 68.9938C66.8303 69.1646 66.8649 69.285 66.9108 69.3805C66.9182 69.396 66.9539 69.4189 67.0181 69.4483L67.1847 69.5156L67.4278 69.5985L67.748 69.6953L68.3739 69.8627L69.1759 70.0515L71.0029 70.4426L71.6432 70.6023C72.7692 70.9066 73.6018 71.4163 74.567 72.3371L74.769 72.534L74.753 72.5003C73.8586 70.4248 73.7364 67.7072 74.3002 65.8932L74.4068 65.5828C75.1828 63.5232 76.9253 62.7241 79.3137 62.6689C79.387 62.6672 79.4589 62.6661 79.5306 62.6656L79.9667 62.6697C80.0418 62.6716 80.1189 62.674 80.1989 62.6771L81.8228 62.767L82.2911 62.7811L82.5166 62.777L82.6973 62.7623C82.9506 62.7313 83.2564 62.4288 83.5988 61.7583L84.1074 60.6177L84.2964 60.219C84.3868 60.0363 84.4682 59.887 84.527 59.8083C85.0232 59.1443 85.8091 58.4412 86.9629 57.5879L87.6292 57.1068L88.2331 56.6878ZM81.737 100.488C81.4923 100.496 81.2466 100.5 81 100.5C68.67 100.5 58.6564 90.5821 58.5018 78.2887C58.5632 73.5269 60.2092 68.807 63.3713 64.9243L63.489 64.7805L63.4962 64.8003C63.6069 65.187 63.6708 65.547 63.7059 66.0166L63.7322 66.5277L63.7434 67.142L63.7492 68.1753C63.7692 69.3708 63.8637 69.9654 64.2073 70.681C64.7442 71.7951 65.5345 72.2617 67.4454 72.7362L68.0871 72.8871L68.8094 73.043L70.0945 73.3131L70.5063 73.4079L70.8598 73.4982C71.6612 73.7148 72.3422 74.2704 73.5007 75.5639L74.2968 76.4527C74.7494 76.9411 75.0554 77.2309 75.3977 77.426C75.8982 77.7112 76.5177 77.6846 76.9919 77.3576C77.5636 76.9634 78.1716 76.0811 78.4585 75.0753C78.7419 74.0815 78.6836 73.0912 78.1601 72.3497L78.0057 72.1539C76.9722 70.9618 76.7024 67.993 77.2134 66.6425C77.4621 65.9825 78.082 65.6982 79.3831 65.6681L79.731 65.666L80.3292 65.686L81.5464 65.7573L82.0212 65.7777C82.092 65.7798 82.159 65.7813 82.2232 65.782L82.5787 65.7784L82.8999 65.7576C82.9526 65.7526 83.0054 65.7469 83.059 65.7404C84.4435 65.5711 85.388 64.7167 86.1175 63.4096L86.3314 63.0002L86.4661 62.7116L86.7951 61.9524L86.9297 61.6128C86.9325 61.6038 86.9328 61.6005 86.9303 61.6039C87.1398 61.3235 87.5181 60.9673 88.054 60.5375L88.5517 60.1512L89.1251 59.7292C89.2268 59.6559 89.3317 59.5811 89.4396 59.5049L90.1235 59.03L90.6045 58.704L90.9097 58.8457C96.8365 61.6809 101.205 66.9247 102.822 73.201L102.957 73.7543C103.301 75.2532 103.479 76.7694 103.498 78.2792C103.459 81.5173 102.736 84.5907 101.466 87.3617C101.241 85.4306 100.568 84.4481 98.8406 83.4826C98.2483 83.1564 97.7792 82.922 97.2214 82.6663L96.7832 82.4689C95.5448 81.9217 95.2534 81.713 94.5904 80.7651L94.2478 80.2688C92.5595 77.7588 91.2549 76.954 88.1596 77.4325C82.6702 78.2836 81.0773 79.3377 80.6525 82.1414L80.5067 83.1444C80.4913 83.2591 80.4769 83.3705 80.4636 83.4788L80.3984 84.093C80.2378 85.9297 80.5271 86.7816 81.6072 87.8898L82.3967 88.7063L83.1376 89.4878L83.8295 90.2337L84.4722 90.9432L85.0652 91.6159L85.6083 92.2511L86.1011 92.8481L86.5433 93.4064L86.9345 93.9253C86.9955 94.0085 87.0543 94.09 87.1109 94.1698L87.4251 94.6285C87.7135 95.0668 87.9242 95.4438 88.0557 95.7566L88.1939 96.1066C88.5032 96.9385 88.7158 97.8709 88.7456 98.8011L88.746 99.1311C86.5498 99.9364 84.1931 100.409 81.737 100.488ZM91.6818 97.8077C94.2714 96.4082 96.5555 94.5158 98.4082 92.256C98.5104 91.5903 98.5643 90.881 98.5643 90.1275L98.5641 89.4914L98.5602 88.8956L98.548 88.3872L98.5242 87.9568C98.437 86.8386 98.1701 86.5446 97.3853 86.106L97.0151 85.9061C96.5403 85.6553 96.1242 85.4588 95.5682 85.2119L95.2421 85.065C93.7776 84.3908 93.0878 83.8509 92.1269 82.4771L91.6149 81.7315L91.3352 81.3358C90.6752 80.4397 90.2715 80.224 89.2862 80.3114L88.8591 80.3616L88.2227 80.4592L87.1645 80.6352L86.2867 80.8004L85.793 80.9077L85.3664 81.0147C84.1819 81.3372 83.8323 81.6814 83.6816 82.2684L83.6378 82.4734L83.5331 83.1644L83.4246 83.9278L83.3783 84.3266L83.3534 84.6514L83.3505 84.9143C83.3603 85.1897 83.4162 85.3634 83.5225 85.522L83.6261 85.6563C83.6648 85.7011 83.7078 85.7468 83.755 85.7953L84.2009 86.2544L85.0509 87.143L85.8451 87.9922L86.5835 88.8022L87.2663 89.5734L87.8933 90.306L88.4646 91.0002L88.9802 91.6564C89.8745 92.8246 90.4883 93.8021 90.8222 94.5962C91.234 95.5804 91.5482 96.6684 91.6818 97.8077Z" fill="#E1000F"/>
<path d="M100.49 26.8251C100.403 26.0791 99.7693 25.5 99 25.5H18L17.8251 25.5101C17.0791 25.5967 16.5 26.2307 16.5 27V96L16.5101 96.1749C16.5967 96.9209 17.2307 97.5 18 97.5H54L54.1749 97.4899C54.9209 97.4033 55.5 96.7693 55.5 96L55.4899 95.8251C55.4033 95.0791 54.7693 94.5 54 94.5H19.5V40.5H75L75.1749 40.4899C75.9209 40.4033 76.5 39.7693 76.5 39C76.5 38.1716 75.8284 37.5 75 37.5H19.5V28.5H97.5V37.5H84L83.8251 37.5101C83.0791 37.5967 82.5 38.2307 82.5 39C82.5 39.8284 83.1716 40.5 84 40.5H97.5V51L97.5101 51.1749C97.5967 51.9209 98.2307 52.5 99 52.5C99.8284 52.5 100.5 51.8284 100.5 51V27L100.49 26.8251Z" fill="#000091"/>
<path d="M24 34.5C23.1729 34.5 22.5 33.8271 22.5 33C22.5 32.1728 23.1729 31.5 24 31.5C24.8271 31.5 25.5 32.1728 25.5 33C25.5 33.8271 24.8271 34.5 24 34.5Z" fill="#000091"/>
<path d="M28.5 33C28.5 33.8271 29.1729 34.5 30 34.5C30.8271 34.5 31.5 33.8271 31.5 33C31.5 32.1728 30.8271 31.5 30 31.5C29.1729 31.5 28.5 32.1728 28.5 33Z" fill="#000091"/>
<path d="M36 34.5C35.1729 34.5 34.5 33.8271 34.5 33C34.5 32.1728 35.1729 31.5 36 31.5C36.8271 31.5 37.5 32.1728 37.5 33C37.5 33.8271 36.8271 34.5 36 34.5Z" fill="#000091"/>
<path d="M93 31.5C93.8284 31.5 94.5 32.1716 94.5 33C94.5 33.7693 93.9209 34.4033 93.1749 34.4899L93 34.5H48C47.1716 34.5 46.5 33.8284 46.5 33C46.5 32.2307 47.0791 31.5967 47.8251 31.5101L48 31.5H93Z" fill="#000091"/>
<path d="M58.5 51C58.5 50.1716 57.8284 49.5 57 49.5H30L29.8251 49.5101C29.0791 49.5967 28.5 50.2307 28.5 51C28.5 51.8284 29.1716 52.5 30 52.5H57L57.1749 52.4899C57.9209 52.4033 58.5 51.7693 58.5 51Z" fill="#000091"/>
<path d="M51 58.5C51.8284 58.5 52.5 59.1716 52.5 60C52.5 60.7693 51.9209 61.4033 51.1749 61.4899L51 61.5H30C29.1716 61.5 28.5 60.8284 28.5 60C28.5 59.2307 29.0791 58.5967 29.8251 58.5101L30 58.5H51Z" fill="#000091"/>
<path d="M49.5 69C49.5 68.1716 48.8284 67.5 48 67.5H30L29.8251 67.5101C29.0791 67.5967 28.5 68.2307 28.5 69C28.5 69.8284 29.1716 70.5 30 70.5H48L48.1749 70.4899C48.9209 70.4033 49.5 69.7693 49.5 69Z" fill="#000091"/>
</svg>
