<svg width="120" height="120" viewBox="0 0 120 120" fill="none" xmlns="http://www.w3.org/2000/svg">
<path fill-rule="evenodd" clip-rule="evenodd" d="M25.5 12C24.6729 12 24 11.3271 24 10.5C24 9.67283 24.6729 9 25.5 9C26.3271 9 27 9.67283 27 10.5C27 11.3271 26.3271 12 25.5 12Z" fill="#CACAFB"/>
<path fill-rule="evenodd" clip-rule="evenodd" d="M22.5 108C21.6729 108 21 107.327 21 106.5C21 105.673 21.6729 105 22.5 105C23.3271 105 24 105.673 24 106.5C24 107.327 23.3271 108 22.5 108Z" fill="#CACAFB"/>
<path fill-rule="evenodd" clip-rule="evenodd" d="M97.5 108C96.6729 108 96 107.327 96 106.5C96 105.673 96.6729 105 97.5 105C98.3271 105 99 105.673 99 106.5C99 107.327 98.3271 108 97.5 108Z" fill="#CACAFB"/>
<path fill-rule="evenodd" clip-rule="evenodd" d="M97.5 15C96.6729 15 96 14.3271 96 13.5C96 12.6728 96.6729 12 97.5 12C98.3271 12 99 12.6728 99 13.5C99 14.3271 98.3271 15 97.5 15Z" fill="#CACAFB"/>
<path fill-rule="evenodd" clip-rule="evenodd" d="M47.1054 57.9941C51.0546 59.6179 53.8454 63.0713 53.9938 67.157L54 67.5H51C51 63.4136 47.0175 60 42 60C37.102 60 33.1902 63.253 33.0067 67.2093L33 67.5H30C30 63.2652 32.8354 59.6632 36.8946 57.9941C35.4215 56.6246 34.5 54.6699 34.5 52.5C34.5 48.3579 37.8579 45 42 45C46.1421 45 49.5 48.3579 49.5 52.5C49.5 54.6699 48.5785 56.6246 47.1054 57.9941ZM42 57C44.4853 57 46.5 54.9853 46.5 52.5C46.5 50.0147 44.4853 48 42 48C39.5147 48 37.5 50.0147 37.5 52.5C37.5 54.9853 39.5147 57 42 57Z" fill="#E1000F"/>
<path fill-rule="evenodd" clip-rule="evenodd" d="M28.5 36H55.5C57.9853 36 60 38.0147 60 40.5V70.5C60 72.9853 57.9853 75 55.5 75H28.5C26.0147 75 24 72.9853 24 70.5V40.5C24 38.0147 26.0147 36 28.5 36ZM55.5 39H28.5C27.6716 39 27 39.6716 27 40.5V70.5C27 71.3284 27.6716 72 28.5 72H55.5C56.3284 72 57 71.3284 57 70.5V40.5C57 39.6716 56.3284 39 55.5 39Z" fill="#E1000F"/>
<path d="M12.0069 88.8325C12.1721 92.802 15.2805 96 19.1364 96H22.5L22.6749 95.9899C23.4209 95.9033 24 95.2693 24 94.5L23.9899 94.3251C23.9033 93.5791 23.2693 93 22.5 93H19.1364L18.8955 92.9924C16.7422 92.8569 15 90.916 15 88.5V31.5L15.0071 31.2336C15.1343 28.8546 16.9544 27 19.1364 27H85.5L85.6749 26.9899C86.4209 26.9033 87 26.2693 87 25.5C87 24.6716 86.3284 24 85.5 24H19.1364L18.8168 24.0074C15.0042 24.1831 12 27.4895 12 31.5V88.5L12.0069 88.8325Z" fill="#000091"/>
<path d="M107.993 31.1675C107.828 27.198 104.72 24 100.864 24H94.5L94.3251 24.0101C93.5791 24.0967 93 24.7307 93 25.5C93 26.3284 93.6716 27 94.5 27H100.864L101.105 27.0076C103.258 27.1431 105 29.084 105 31.5V88.5L104.993 88.7664C104.866 91.1454 103.046 93 100.864 93H58.5L58.3251 93.0101C57.5791 93.0967 57 93.7307 57 94.5C57 95.3284 57.6716 96 58.5 96H100.864L101.183 95.9926C104.996 95.8169 108 92.5105 108 88.5V31.5L107.993 31.1675Z" fill="#000091"/>
<path d="M52.5 84C53.3284 84 54 84.6716 54 85.5C54 86.2693 53.4209 86.9033 52.6749 86.9899L52.5 87H22.5C21.6716 87 21 86.3284 21 85.5C21 84.7307 21.5791 84.0967 22.3251 84.0101L22.5 84H52.5Z" fill="#000091"/>
<path d="M84 85.5C84 84.6716 83.3284 84 82.5 84H79.5L79.3251 84.0101C78.5791 84.0967 78 84.7307 78 85.5C78 86.3284 78.6716 87 79.5 87H82.5L82.6749 86.9899C83.4209 86.9033 84 86.2693 84 85.5Z" fill="#000091"/>
<path d="M97.5 84C98.3284 84 99 84.6716 99 85.5C99 86.2693 98.4209 86.9033 97.6749 86.9899L97.5 87H88.5C87.6716 87 87 86.3284 87 85.5C87 84.7307 87.5791 84.0967 88.3251 84.0101L88.5 84H97.5Z" fill="#000091"/>
<path d="M57 85.5C57 86.3271 57.6729 87 58.5 87C59.3271 87 60 86.3271 60 85.5C60 84.6728 59.3271 84 58.5 84C57.6729 84 57 84.6728 57 85.5Z" fill="#000091"/>
<path d="M64.5 87C63.6729 87 63 86.3271 63 85.5C63 84.6728 63.6729 84 64.5 84C65.3271 84 66 84.6728 66 85.5C66 86.3271 65.3271 87 64.5 87Z" fill="#000091"/>
<path d="M96 37.5C96 36.6716 95.3284 36 94.5 36H67.5L67.3251 36.0101C66.5791 36.0967 66 36.7307 66 37.5C66 38.3284 66.6716 39 67.5 39H94.5L94.6749 38.9899C95.4209 38.9033 96 38.2693 96 37.5Z" fill="#000091"/>
<path d="M79.5 42C80.3284 42 81 42.6716 81 43.5C81 44.2693 80.4209 44.9033 79.6749 44.9899L79.5 45H67.5C66.6716 45 66 44.3284 66 43.5C66 42.7307 66.5791 42.0967 67.3251 42.0101L67.5 42H79.5Z" fill="#000091"/>
<path d="M84 43.5C84 44.3271 84.6729 45 85.5 45C86.3271 45 87 44.3271 87 43.5C87 42.6728 86.3271 42 85.5 42C84.6729 42 84 42.6728 84 43.5Z" fill="#000091"/>
<path d="M85.5 48C86.3284 48 87 48.6716 87 49.5C87 50.2693 86.4209 50.9033 85.6749 50.9899L85.5 51H67.5C66.6716 51 66 50.3284 66 49.5C66 48.7307 66.5791 48.0967 67.3251 48.0101L67.5 48H85.5Z" fill="#000091"/>
<path fill-rule="evenodd" clip-rule="evenodd" d="M71.25 57C68.3505 57 66 59.3505 66 62.25C66 65.1495 68.3505 67.5 71.25 67.5C74.1495 67.5 76.5 65.1495 76.5 62.25C76.5 59.3505 74.1495 57 71.25 57ZM71.25 60C72.4926 60 73.5 61.0074 73.5 62.25C73.5 63.4926 72.4926 64.5 71.25 64.5C70.0074 64.5 69 63.4926 69 62.25C69 61.0074 70.0074 60 71.25 60Z" fill="#000091"/>
<path d="M94.5 72C95.3284 72 96 72.6716 96 73.5C96 74.2693 95.4209 74.9033 94.6749 74.9899L94.5 75H67.5C66.6716 75 66 74.3284 66 73.5C66 72.7307 66.5791 72.0967 67.3251 72.0101L67.5 72H94.5Z" fill="#000091"/>
<path d="M75 85.5C75 84.6716 74.3284 84 73.5 84H70.5L70.3251 84.0101C69.5791 84.0967 69 84.7307 69 85.5C69 86.3284 69.6716 87 70.5 87H73.5L73.6749 86.9899C74.4209 86.9033 75 86.2693 75 85.5Z" fill="#000091"/>
</svg>
