<?xml version="1.0" encoding="UTF-8"?>
<svg version="1.1" viewBox="0 0 151 70" xmlns="http://www.w3.org/2000/svg">
<title>logo fc+</title>
<defs>
<linearGradient id="a" x1="-.024576%" x2="100.08%" y1="49.996%" y2="49.996%">
<stop stop-color="#000091" offset="0"/>
<stop stop-color="#844470" offset=".4888"/>
<stop stop-color="#E1000F" offset="1"/>
</linearGradient>
</defs>
<g fill="none" fill-rule="evenodd">
<g transform="translate(-300 -585)">
<g transform="translate(300 585)">
<g fill-rule="nonzero">
<path id="Path" d="m31.401 1.208c-0.3253-0.19446-0.91085-0.19446-1.2362 0l-28.497 16.4c-0.3253 0.19446-0.58555 0.6482-0.58555 1.0371v32.734c0 0.38892 0.26024 0.84266 0.58555 1.0371l28.497 16.4c0.3253 0.19446 0.91085 0.19446 1.2362 0l28.497-16.4c0.3253-0.19446 0.58555-0.6482 0.58555-1.0371v-32.734c0-0.38892-0.26024-0.84266-0.58555-1.0371l-28.497-16.4z" fill="#fff"/>
<path d="m31.336 1.208 28.497 16.4c0.3253 0.19446 0.58555 0.6482 0.58555 1.0371v32.734c0 0.38892-0.26024 0.84266-0.58555 1.0371l-28.497 16.4c-0.19518 0.06482-0.39037 0.12964-0.58555 0.12964s-0.45543-0.06482-0.58555-0.12964l-28.497-16.4c-0.3253-0.19446-0.58555-0.6482-0.58555-1.0371v-32.734c0-0.38892 0.26024-0.84266 0.58555-1.0371l28.497-16.4c0.13012-0.06482 0.39037-0.12964 0.58555-0.12964s0.45543 0.06482 0.58555 0.12964zm-1.6916-0.90749-28.497 16.4c-0.65061 0.38892-1.106 1.2316-1.106 1.9446v32.734c0 0.77784 0.45543 1.5557 1.106 1.9446l28.497 16.4c0.39037 0.25928 0.84579 0.25928 1.106 0.25928s0.71567-0.06482 1.106-0.25928l28.497-16.4c0.65061-0.38892 1.106-1.2316 1.106-1.9446v-32.734c0-0.77784-0.45543-1.5557-1.106-1.9446l-28.432-16.4c-0.45543-0.25928-0.84579-0.25928-1.1711-0.25928-0.26024 0-0.71567 0.06482-1.106 0.25928z" fill="url(#a)"/>
<path id="Path" d="m22.42 17.742-0.066826-0.066826c0.066826 0 0.066826 0 0.066826 0.066826z" fill="#EA212E"/>
<path d="m30.675 61.48-22.201-12.806c-0.25967-0.13001-0.45442-0.52003-0.45442-0.78005v-25.222c0-0.32502 0.19475-0.65004 0.45442-0.78005l22.266-12.871" fill="#0053CC"/>
<path d="m8.084 47.78-0.064916-25.256c0-0.32547 0.19475-0.65094 0.45442-0.78112l22.266-12.889" fill="#000091"/>
<polygon id="Path" points="8.5203 21.635 15.351 35.418 23.222 21.764 16.522 17.041" fill="#E1000F"/>
<path id="b" d="m39.06 17.742 0.066826-0.066826c-0.066826 0-0.066826 0-0.066826 0.066826z" fill="#EA212E"/>
<path d="m30.805 61.313 22.201-12.79c0.25967-0.12985 0.45442-0.51939 0.45442-0.77908v-25.19c0-0.32462-0.19475-0.64924-0.45442-0.77908l-22.266-12.92" fill="#000091"/>
<path d="m53.396 47.78 0.064916-25.237c0-0.32438-0.19475-0.64877-0.45442-0.77852l-22.266-12.91" fill="#E1000F"/>
<polygon points="52.792 21.566 46.092 35.251 38.091 21.5 44.726 16.874" fill="#0053CC"/>
</g>
<path d="m39.179 20.979c0.5229 0.26264 1.0086 0.60013 1.3449 1.1254 0.14933 0.22546 0.33635 0.63826 0.22424 0.93856-0.14981 0.33748-0.22424 0.93808-0.56059 1.0506-0.41078 0.22546-0.97137 0.22546-1.4943 0.15015-0.29866 0-0.56011-0.074837-0.85926-0.15015 1.0463 0.4128 2.0549 0.93808 2.7643 1.9143 0.074904 0.14967 0.33635 0.22499 0.63502 0.22499 0.074905 0 0.074905 0.15015 0.074905 0.22499-0.14933 0.15015-0.29866 0.22546-0.22424 0.4128h0.22424c0.33635-0.15015 0.29914-0.86277 0.78435-0.63778 0.33635 0.22499 0.48569 0.7131 0.29914 1.0511-0.29914 0.29982-0.56059 0.48763-0.85926 0.71262-0.074905 0.15015-0.074905 0.33796 0 0.48811 0.22424 0.3003 0.29866 0.56295 0.33588 0.86325 0.22424 0.48763 0.29914 1.0506 0.48616 1.5759 0.29866 1.0511 0.56011 2.1393 0.48521 3.1903 0 0.56295-0.29866 1.0506-0.074428 1.6135 0.14933 0.56295 0.48521 0.97574 0.78435 1.501 0.29866 0.41327 0.56011 0.7131 0.78435 1.1264 0.091126 0.15825 0.20086 0.31651 0.31298 0.47619l0.11212 0.16016c0.3521 0.50861 0.6708 1.0344 0.43416 1.615-0.22424 0.48811-0.97137 0.41327-1.4943 0.7131-0.41078 0.33796-0.074428 0.93856 0.14933 1.276 0.33636 0.63826-0.41078 1.0511-0.93368 1.276 0.14933 0.22546 0.41078 0.15015 0.48521 0.3003 0.074904 0.33748 0.41126 0.56295 0.22471 0.93808-0.085878 0.11821-0.21374 0.2207-0.34351 0.32175l-0.097328 0.076267c-0.28817 0.22832-0.5334 0.46761-0.26908 0.87802 0.29866 0.48811 0.11212 1.0506-0.074905 1.5763-0.22424 0.63778-0.78435 0.93808-1.27 1.0511-0.41078 0.14967-0.93416 0.14967-1.3445 0.074837-0.14981-0.074837-0.29914-0.15015-0.41126-0.15015-1.1956-0.15015-2.3907-0.48811-3.5859-0.48811-0.33635 0.075314-0.70992 0.15015-0.97137 0.26312-0.33635 0.22499-0.59781 0.48763-0.85926 0.75028-0.037214 0.075314-0.11212 0.11249-0.14933 0.18781-0.037214 0.037657-0.074428 0.074837-0.074428 0.11249l-0.052958 0.05291c-0.0057252 0.00572-0.012882 0.01287-0.021946 0.021927-0.22424 0.26312-0.37357 0.52577-0.56011 0.82559 0 0.037657-0.037691 0.037657-0.037691 0.037657 0 0.037657-0.037214 0.075314-0.074428 0.11249-0.22471 0.41327-0.41126 0.86325-0.52338 1.3137-0.48569 1.6135-0.26145 3.0025 0.074904 3.3405 0.22376 0.22499 2.9142 1.0591 5.2801 1.8347-4.1339 3.4527-7.4752 5.179-10.024 5.179-3.5195 0-9.4225-2.3389-17.709-7.0167 2.0057 0 1.7203 0.80383 3.5881-0.13187 0.89647-0.37419 2.9136-1.3099 3.5864-1.9834 0.41078-0.41184 0.82156-0.82321 1.1951-1.2722 0.74714-0.86086 1.4943-1.6469 2.3535-2.3957 0.26145-0.22403 0.5229-0.44902 0.78435-0.5987 0.074904-0.074837 0.074904-0.22451 0.14933-0.29935-0.33588 0.14967-0.56059 0.41184-0.93368 0.56152-0.074905 0-0.14933-0.074837-0.074905-0.14967 0.26145-0.18733 0.5229-0.37419 0.74714-0.56152h-0.037214c-0.074905 0-0.074905-0.074837-0.074905-0.14967-0.93368-0.14967-1.6064 0.48668-2.2414 1.0477-0.14933 0.075314-0.29866-0.07436-0.33588-0.07436-1.0463 0.33653-1.8306 1.2722-2.8764 1.6841v-0.15015c-0.41078 0.15015-0.82204 0.41184-1.27 0.48668-0.63502 0.14967-1.1956 0.074837-1.7557 0.074837-0.85926 0.074837-1.7185 0.26217-2.5778 0.4495-0.037214 0-0.037214 0-0.074427 0.03718-0.44847 0.11202-0.89647 0.29935-1.3077 0.52386l-0.037214 0.037657c-0.037214 0.03718-0.074905 0.074837-0.11212 0.11202-0.14933 0.14967-0.29866 0.337-0.48569 0.41184-0.448 0.22451-0.78435 0.5987-1.1579 0.9357-0.037214 0.03718-0.074427 0.03718-0.11212 0.03718-0.37357 0.37466 0.074905-0.74837 0.48569-1.0105-0.037214 0-0.11212-0.03718-0.074905-0.07436 0.037691-0.075314 0.074905-0.11249 0.11212-0.18733 0-0.037657 0-0.037657 0.037214-0.074837l-0.0057252-0.022403-0.025286-0.030507c-0.0038168-0.00572-0.0062023-0.012393-0.0062023-0.021927-0.11212 0.074837-0.22376 0.14967-0.33588 0.22451-0.18702 0.14967-0.11212-0.71119 0.074427-0.82321h-0.037214c0.26145-0.15015 0.56059-0.29982 0.82204-0.4495l0.11164-0.11202c-0.41078 0.14967-0.74714 0.337-1.1202 0.56152 0 0 0-0.26217 0.11212-0.37419 0.074427 0 0.14933 0 0.14933 0.07436 1.3545-1.0458 3-1.3242 4.6613-1.5668l0.45324-0.06578c0.98187-0.14348 1.9604-0.29744 2.8793-0.613 0.22424-0.14967 0.41078-0.29935 0.63502-0.41137 0.33636-0.14967 0.63502-0.48668 1.0458-0.71119 0.56059-0.41184 0.97137-0.9357 1.1956-1.6092 0-0.074837-0.074428-0.14967-0.074428-0.14967-0.93416 0.97288-1.98 1.7589-3.1007 2.3204-1.4943 0.78603-3.1007 0.63635-4.6694 0.86086 0.074428-0.15015 0.22424-0.15015 0.33588-0.15015 0-0.22403 0.14933-0.29935 0.29866-0.41137h0.22471c0.074427 0 0.074427-0.14967 0.14933-0.14967 0.14933 0 0.37309-0.074837 0.29866-0.074837-0.22424-0.29982-0.63502 0.22451-0.97137 0 0.14933-0.14967 0.074905-0.337 0.22424-0.41184h0.29914c0-0.14967 0.14933-0.29935 0.14933-0.29935 1.0458-0.63635 2.0544-1.1226 3.0253-1.6841-0.22376 0-0.33588 0.22451-0.56011 0.074837 0.14981 0 0-0.22451 0.14981-0.22451 0.78435-0.22451 1.4194-0.63635 2.2037-0.9357-0.29866 0-0.48569 0.22451-0.78435 0 0.14933-0.074837 0.22376-0.22451 0.41078-0.22451v-0.22451c0-0.075314 0.074904-0.075314 0.14933-0.075314-0.074428 0-0.14933-0.07436-0.14933-0.07436 0.074904-0.15015 0.29914-0.074837 0.41078-0.22451-0.074428 0-0.22376 0-0.22376-0.075314 0.22376-0.29935 0.56011-0.33653 0.93368-0.41137-0.074905-0.14967-0.29866 0-0.29866-0.14967 0-0.06435 0.054389-0.073407 0.11737-0.074837h-0.11737c-0.14981-0.074837-0.074905-0.22451-0.074905-0.29982 0.41078-0.4862 0.41078-1.1226 0.63502-1.6841-0.074905 0-0.14933 0-0.14933-0.07436-0.70992 0.78555-1.8306 1.0477-2.8764 1.3471h-0.48569c-0.33588 0.14967-0.85926 0.14967-1.1951-0.074837-0.29914-0.14967-0.41126-0.337-0.70992-0.56152-0.56011-0.33653-1.1207-0.63635-1.7557-0.86039-1.7557-0.56152-3.5859-0.86134-5.4165-0.78603 0.78435-0.41184 1.6436-0.4495 2.4656-0.71119 1.1951-0.337 2.3158-0.78603 3.5859-0.71119-0.22424-0.074837-0.48569 0-0.70945 0-0.97185-0.074837-1.98 0.22451-3.0262 0.41184-0.70992 0.1492-1.3449 0.41137-2.0544 0.56104-0.41078 0.14967-0.63502 0.56152-1.1207 0.48668v-0.22451c0.70992-0.86086 1.5692-1.6841 2.6899-1.7589 1.27-0.22499 2.4652 0 3.7352 0.14967 0.93416 0.074837 1.7557 0.29935 2.6894 0.48668 0.33635 0 0.41126 0.56104 0.70992 0.63588 0.41126 0.14967 0.85926 0 1.27 0.29935 0-0.14967-0.074428-0.29935 0-0.41137 0.29866-0.29935 0.63502 0.074837 0.93368-0.075314 0.56059-0.33653-0.48521-0.97288-0.78435-1.4967 0-0.074837 0.074905-0.14967 0.074905-0.14967 0.56011 0.48668 0.97137 1.0482 1.6813 1.4224 0.33588 0.14967 1.1951 0.33653 1.0453-0.074837-0.33588-0.78603-1.0453-1.4224-1.6431-2.1336v-0.29935c-0.14933 0-0.14933-0.074837-0.22424-0.14967v-0.29935c-0.29914-0.14967-0.22424-0.41184-0.33636-0.63635-0.22376-0.33653-0.074427-0.86086-0.22376-1.2722-0.14981-0.41184-0.22471-0.78603-0.29914-1.1979-0.22424-1.1974-0.48569-2.2456-0.63502-3.4058-0.14933-1.3471 0.78435-2.3953 1.4194-3.5927 0.48569-0.86086 1.0463-1.6841 1.98-2.2456 0.22424-0.86086 0.78435-1.5721 1.3445-2.2456 0.56059-0.67401 1.4948-1.1226 2.167-1.4224 0.90172-0.41661 1.3793-0.5639 1.8545-0.7069 0.0028626-9.534e-4 0.010019-0.00286 0.012882-0.00429 0.69036-0.30316 9.7552-2.2098 14.158 0 0.093511 0.04719 0.074904 0 0.37357 0.18781 0.33636 0.18781 0.74714 0.4128 1.0086 0.52577zm-34.202 20.527c0 0.32904-0.22118 0.6222-0.55247 0.6949 0.55247 0.14634 1.1049 0.14634 1.6579 0.40268-0.073882 0.14634-0.22118 0.073172-0.29459 0.073172 0.33129 0.21952 0.77364 0.073172 1.1054 0.32951-0.22118 0.21952-0.40517 0-0.62635 0 2.1736 0.62173 4.4579 1.0976 6.2635 2.4883-1.5473 0.76854-3.1317 1.0976-4.7896 1.4634-0.22118 0-0.33176 0-0.55294-0.073172 0 0.073172 0 0.21952-0.073411 0.21952-0.29506 0-0.47953 0-0.70023 0.14634-0.25835 0.21952-0.66306 0.29316-0.8847 0.073172-0.073411-0.073172 0.22165 0 0.29506-0.14588h-0.55247c-0.073882 0-0.073882-0.073638-0.073882-0.14634-0.33176 0.072706-0.77364 0.21905-1.1054 0.29222-0.47906 0.14634-0.25788-2.232 0.073882-2.3783-0.073882-0.073172-0.22118-0.073172-0.22118-0.21952-0.29459 0-0.40517-0.73219-0.22118-0.76854 0.29459-0.073172 0.62635-0.073172 0.84753-0.29269-0.47906-0.073172-0.62635-1.793 0.184-2.2325 0.073882 0 0.22118 0 0.22118 0.073638zm3.2097 6.4637c-0.44698 0.45851-1.0057 0.24995-1.4893 0.45851-0.14931 0-0.40989 0.083318-0.33524-0.083318 0.0466-0.23456 0.25297-0.32213 0.47409-0.39589l0.13314-0.043516c0.088445-0.029718 0.17451-0.060498 0.24917-0.10242 0.14884-0.083318 0.33476-0.24995 0.4836-0.16664 0.14884 0.24995 0.33524 0.16664 0.48455 0.33327zm-2.5353-9.5868c-0.074894 0-0.15027 0-0.22564-0.075281 0.075374-0.075281 0.075374-0.15056 0.075374-0.22584-0.71438 0.79021-2.3308 0.52697-0.8272-0.18844 0.56411-0.22584 1.278-0.15056 1.8421 0.075281-0.22564 0.3016-0.56411 0.22584-0.86465 0.41429zm34.403-4.7037c-0.065147 0.013624-0.13078 0.026778-0.19544 0.038053-0.34226 0-0.72294 0.22127-1.0657 0.29503-0.49492 0.14751-0.95144 0.4059-1.37 0.70092 0.49444-0.22127 0.98936-0.29503 1.5606-0.4059 0.41859-0.073757 0.76134-0.14751 1.2179-0.073757 0.30434 0.073757 0.72342 0.073757 0.72342 0.22127-0.15217 0.55341-0.98984 0.70092-1.4464 1.2543h-0.2285c-0.2285 0.14751-0.15217 0.47918-0.34275 0.47918-0.2285-0.073287-0.41859 0-0.64709 0.074226 0.30434 0.29503 0.64709 0.47918 1.0657 0.40543 0.076329 0 0.2285 0.14751 0.2285 0.29503 0 0 0.076329 0 0.15217-0.073757 0.076329 0 0.15217 0 0.15217 0.073757v0.29503c-0.13661 0.17711-0.31504 0.19496-0.50124 0.19684l-0.12543 4.698e-4c-0.083135 4.698e-4 -0.16724 0.0042281-0.24843 0.023959 0.57076 0.14751 1.142 0.14751 1.6744 0 0.41908-0.14751 0-0.84797 0.30483-1.1801-0.15217 0 0-0.22127-0.15217-0.22127 0.15217-0.14751 0.30434-0.33214 0.41859-0.4059 0.15217 0 0.34275-0.073757 0.41908-0.22127 0-0.14751-0.30483-0.22127-0.2285-0.33167 0.41859-0.29503 0.79926-0.70092 0.64661-1.1068-0.075843-0.22127-0.64661-0.22127-0.98936-0.36878-0.23725-0.10194-0.52895-0.062952-0.82503-0.0046979l-0.19787 0.040402z" fill="#fff"/>
<g transform="translate(70.547 22.053)" fill-rule="nonzero">
<path d="m3.3747 11.695v-4.9451h3.7757v-2.0215h-3.7757v-2.7064h4.4439v-2.0215h-6.8162v11.695h2.3723zm7.852 0v-5.2792c0.15593-0.25617 0.40374-0.50119 0.74344-0.73508 0.3397-0.23389 0.76571-0.35084 1.278-0.35084 0.18934 0 0.35919 0.011138 0.50955 0.033413 0.15036 0.022275 0.29236 0.050119 0.42601 0.083532v-2.222c-0.10024-0.033413-0.21162-0.061257-0.33413-0.083532-0.12251-0.022275-0.25617-0.033413-0.40095-0.033413-0.47892 0-0.89936 0.097454-1.2613 0.29236-0.36197 0.19491-0.68218 0.43158-0.96062 0.71002v-0.83532h-2.1217v8.42h2.1217zm6.4988 0.33413c0.49006 0 0.9634-0.10302 1.42-0.30907s0.81862-0.47613 1.0859-0.81026v0.7852h2.1384v-5.4463c0-0.45664-0.077964-0.88823-0.23389-1.2947s-0.38703-0.75736-0.69332-1.0525c-0.30628-0.29515-0.69332-0.52904-1.1611-0.70167s-1.0024-0.25895-1.6038-0.25895c-0.75736 0-1.4395 0.15036-2.0465 0.45107-0.607 0.30072-1.0998 0.70724-1.4785 1.2196l1.5704 1.1862c0.18934-0.32299 0.44829-0.5708 0.77685-0.74344 0.32856-0.17263 0.69889-0.25895 1.111-0.25895 0.47892 0 0.86874 0.13087 1.1695 0.3926 0.30072 0.26173 0.45107 0.61535 0.45107 1.0609v0.21718l-2.5394 0.43437c-0.90215 0.14479-1.5955 0.45107-2.08 0.91885-0.48449 0.46778-0.72673 1.0191-0.72673 1.6539 0 0.79077 0.26452 1.4145 0.79356 1.8711s1.2112 0.68496 2.0465 0.68496zm0.43437-1.7041c-0.3564 0-0.64041-0.089101-0.85203-0.2673-0.21162-0.1782-0.31742-0.40095-0.31742-0.66826s0.097454-0.49006 0.29236-0.66826c0.19491-0.1782 0.51512-0.30628 0.96062-0.38425l1.9881-0.35084v1.1527c-0.21162 0.34527-0.49006 0.62928-0.83532 0.85203-0.34527 0.22275-0.75736 0.33413-1.2363 0.33413zm8.5871 1.3699v-5.4964c0.15593-0.2673 0.38703-0.54296 0.69332-0.82697 0.30628-0.28401 0.72673-0.42601 1.2613-0.42601 0.51233 0 0.91607 0.16428 1.2112 0.49284 0.29515 0.32856 0.44272 0.77128 0.44272 1.3282v4.9284h2.1551v-5.0119c0-0.62371-0.086317-1.1695-0.25895-1.6372-0.17263-0.46778-0.40652-0.8576-0.70167-1.1695-0.29515-0.31185-0.64041-0.54574-1.0358-0.70167-0.39539-0.15593-0.8214-0.23389-1.278-0.23389-0.55688 0-1.0386 0.097454-1.4451 0.29236-0.40652 0.19491-0.75457 0.43158-1.0442 0.71002v-0.66826h-2.1217v8.42h2.1217zm12.045 0.33413c0.7685 0 1.4562-0.15593 2.0632-0.46778s1.1054-0.72395 1.4952-1.2363l-1.6874-1.2864c-0.20048 0.28958-0.45943 0.52625-0.77685 0.71002-0.31742 0.18377-0.68218 0.27566-1.0943 0.27566-0.70167 0-1.2836-0.23946-1.7458-0.71838s-0.69332-1.0859-0.69332-1.821c0-0.73508 0.22832-1.3421 0.68496-1.821 0.45664-0.47892 1.0302-0.71838 1.7208-0.71838 0.43437 0 0.81026 0.091885 1.1277 0.27566 0.31742 0.18377 0.57637 0.42045 0.77685 0.71002l1.6874-1.2864c-0.38982-0.51233-0.88823-0.92442-1.4952-1.2363-0.607-0.31185-1.2947-0.46778-2.0632-0.46778-0.72395 0-1.3755 0.12251-1.9547 0.36754-0.57916 0.24503-1.0664 0.57359-1.4618 0.98568-0.39539 0.41209-0.69889 0.89379-0.9105 1.4451-0.21162 0.55131-0.31742 1.1333-0.31742 1.7458 0 0.61257 0.10581 1.1945 0.31742 1.7458s0.51512 1.033 0.9105 1.4451c0.39539 0.41209 0.88266 0.74065 1.4618 0.98568 0.57916 0.24503 1.2307 0.36754 1.9547 0.36754zm8.7208 0c0.79077 0 1.5036-0.15314 2.1384-0.45943s1.1472-0.72116 1.537-1.2446l-1.5203-1.2029c-0.22275 0.30072-0.5179 0.54296-0.88544 0.72673-0.36754 0.18377-0.77963 0.27566-1.2363 0.27566-0.71281 0-1.2975-0.19491-1.7542-0.58473-0.45664-0.38982-0.71838-0.92999-0.7852-1.6205h5.8974c0.033413-0.14479 0.064041-0.32299 0.091885-0.53461 0.027844-0.21162 0.041766-0.43437 0.041766-0.66826 0-1.1026-0.3564-2.0076-1.0692-2.7148-0.71281-0.70724-1.6484-1.0609-2.8067-1.0609-0.69053 0-1.3031 0.11973-1.8377 0.35919-0.53461 0.23946-0.98568 0.56523-1.3532 0.97733-0.36754 0.41209-0.64877 0.89379-0.84368 1.4451s-0.29236 1.1388-0.29236 1.7625c0 0.61257 0.10302 1.1945 0.30907 1.7458 0.20605 0.55131 0.50676 1.033 0.90215 1.4451 0.39539 0.41209 0.88544 0.74065 1.4702 0.98568 0.58473 0.24503 1.2502 0.36754 1.9964 0.36754zm1.42-5.7136h-3.7924c0.14479-0.54574 0.38982-0.94948 0.73508-1.2112 0.34527-0.26173 0.77407-0.3926 1.2864-0.3926 0.55688 0 0.98846 0.16428 1.2947 0.49284s0.465 0.69889 0.47613 1.111z" fill="#19199C"/>
<path d="m6.2148 26.396c1.0581 0 2.0103-0.21718 2.8568-0.65155 0.84646-0.43437 1.537-1.0135 2.0716-1.7375l-1.8711-1.4368c-0.33413 0.47892-0.76014 0.86595-1.278 1.1611-0.5179 0.29515-1.111 0.44272-1.7792 0.44272-0.54574 0-1.0525-0.10302-1.5203-0.30907-0.46778-0.20605-0.86595-0.48449-1.1945-0.83532-0.32856-0.35084-0.58751-0.7685-0.77685-1.253-0.18934-0.48449-0.28401-1.0052-0.28401-1.5621 0-0.55688 0.09467-1.0776 0.28401-1.5621 0.18934-0.48449 0.44829-0.90215 0.77685-1.253 0.32856-0.35084 0.72673-0.62928 1.1945-0.83532 0.46778-0.20605 0.97454-0.30907 1.5203-0.30907 0.66826 0 1.2613 0.14757 1.7792 0.44272s0.94391 0.68218 1.278 1.1611l1.8711-1.4535c-0.53461-0.70167-1.2251-1.2725-2.0716-1.7124-0.84646-0.43994-1.7987-0.6599-2.8568-0.6599-0.91329 0-1.7542 0.16706-2.5227 0.50119-0.7685 0.33413-1.4256 0.77963-1.9714 1.3365s-0.96897 1.2112-1.2697 1.963c-0.30072 0.75179-0.45107 1.5453-0.45107 2.3807s0.15036 1.6289 0.45107 2.3807c0.30072 0.75179 0.72395 1.4061 1.2697 1.963 0.54574 0.55688 1.2029 1.0024 1.9714 1.3365 0.7685 0.33413 1.6094 0.50119 2.5227 0.50119zm10.375 0c0.6794 0 1.3031-0.11973 1.8711-0.35919 0.56802-0.23946 1.0553-0.56245 1.4618-0.96897s0.72116-0.88823 0.94391-1.4451 0.33413-1.1472 0.33413-1.7709c0-0.62371-0.11138-1.214-0.33413-1.7709s-0.53739-1.0386-0.94391-1.4451-0.89379-0.72951-1.4618-0.96897c-0.56802-0.23946-1.1917-0.35919-1.8711-0.35919s-1.3031 0.11973-1.8711 0.35919c-0.56802 0.23946-1.0553 0.56245-1.4618 0.96897-0.40652 0.40652-0.72116 0.88823-0.94391 1.4451s-0.33413 1.1472-0.33413 1.7709c0 0.62371 0.11138 1.214 0.33413 1.7709s0.53739 1.0386 0.94391 1.4451c0.40652 0.40652 0.89379 0.72951 1.4618 0.96897 0.56802 0.23946 1.1917 0.35919 1.8711 0.35919zm0.033413-2.0048c-0.70167 0-1.2836-0.23946-1.7458-0.71838-0.46221-0.47892-0.69332-1.0859-0.69332-1.821 0-0.73508 0.23111-1.3421 0.69332-1.821 0.46221-0.47892 1.0442-0.71838 1.7458-0.71838 0.66826 0 1.2307 0.23946 1.6874 0.71838 0.45664 0.47892 0.68496 1.0859 0.68496 1.821 0 0.72395-0.22832 1.3282-0.68496 1.8126s-1.0191 0.72673-1.6874 0.72673zm8.4702 1.6706v-5.4964c0.15593-0.2673 0.38703-0.54296 0.69332-0.82697 0.30628-0.28401 0.72673-0.42601 1.2613-0.42601 0.51233 0 0.91607 0.16428 1.2112 0.49284 0.29515 0.32856 0.44272 0.77128 0.44272 1.3282v4.9284h2.1551v-5.0119c0-0.62371-0.086317-1.1695-0.25895-1.6372-0.17263-0.46778-0.40652-0.8576-0.70167-1.1695-0.29515-0.31185-0.64041-0.54574-1.0358-0.70167-0.39539-0.15593-0.8214-0.23389-1.278-0.23389-0.55688 0-1.0386 0.097454-1.4451 0.29236s-0.75457 0.43158-1.0442 0.71002v-0.66826h-2.1217v8.42h2.1217zm10.124 0v-5.4964c0.15593-0.2673 0.38703-0.54296 0.69332-0.82697 0.30628-0.28401 0.72673-0.42601 1.2613-0.42601 0.51233 0 0.91607 0.16428 1.2112 0.49284 0.29515 0.32856 0.44272 0.77128 0.44272 1.3282v4.9284h2.1551v-5.0119c0-0.62371-0.086317-1.1695-0.25895-1.6372-0.17263-0.46778-0.40652-0.8576-0.70167-1.1695-0.29515-0.31185-0.64041-0.54574-1.0358-0.70167-0.39539-0.15593-0.8214-0.23389-1.278-0.23389-0.55688 0-1.0386 0.097454-1.4451 0.29236s-0.75457 0.43158-1.0442 0.71002v-0.66826h-2.1217v8.42h2.1217zm12.079 0.33413c0.79077 0 1.5036-0.15314 2.1384-0.45943 0.63484-0.30628 1.1472-0.72116 1.537-1.2446l-1.5203-1.2029c-0.22275 0.30072-0.5179 0.54296-0.88544 0.72673-0.36754 0.18377-0.77963 0.27566-1.2363 0.27566-0.71281 0-1.2975-0.19491-1.7542-0.58473-0.45664-0.38982-0.71838-0.92999-0.7852-1.6205h5.8974c0.033413-0.14479 0.064041-0.32299 0.091886-0.53461 0.027844-0.21162 0.041766-0.43437 0.041766-0.66826 0-1.1026-0.3564-2.0076-1.0692-2.7148-0.71281-0.70724-1.6484-1.0609-2.8067-1.0609-0.69053 0-1.3031 0.11973-1.8377 0.35919-0.53461 0.23946-0.98568 0.56523-1.3532 0.97733s-0.64877 0.89379-0.84368 1.4451c-0.19491 0.55131-0.29236 1.1388-0.29236 1.7625 0 0.61257 0.10302 1.1945 0.30907 1.7458 0.20605 0.55131 0.50676 1.033 0.90215 1.4451 0.39539 0.41209 0.88544 0.74065 1.4702 0.98568 0.58473 0.24503 1.2502 0.36754 1.9964 0.36754zm1.42-5.7136h-3.7924c0.14479-0.54574 0.38982-0.94948 0.73508-1.2112s0.77407-0.3926 1.2864-0.3926c0.55688 0 0.98846 0.16428 1.2947 0.49284 0.30628 0.32856 0.465 0.69889 0.47613 1.111zm7.9857 5.7136c0.7685 0 1.4562-0.15593 2.0632-0.46778 0.607-0.31185 1.1054-0.72395 1.4952-1.2363l-1.6874-1.2864c-0.20048 0.28958-0.45943 0.52625-0.77685 0.71002-0.31742 0.18377-0.68218 0.27566-1.0943 0.27566-0.70167 0-1.2836-0.23946-1.7458-0.71838-0.46221-0.47892-0.69332-1.0859-0.69332-1.821 0-0.73508 0.22832-1.3421 0.68496-1.821 0.45664-0.47892 1.0302-0.71838 1.7208-0.71838 0.43437 0 0.81026 0.091885 1.1277 0.27566 0.31742 0.18377 0.57637 0.42045 0.77685 0.71002l1.6874-1.2864c-0.38982-0.51233-0.88823-0.92442-1.4952-1.2363s-1.2947-0.46778-2.0632-0.46778c-0.72395 0-1.3755 0.12251-1.9547 0.36754-0.57916 0.24503-1.0664 0.57359-1.4618 0.98568-0.39539 0.41209-0.69889 0.89379-0.9105 1.4451-0.21162 0.55131-0.31742 1.1333-0.31742 1.7458s0.10581 1.1945 0.31742 1.7458c0.21162 0.55131 0.51512 1.033 0.9105 1.4451 0.39539 0.41209 0.88266 0.74065 1.4618 0.98568s1.2307 0.36754 1.9547 0.36754zm8.7041-0.16706c0.34527 0 0.64877-0.022275 0.9105-0.066826s0.49841-0.11138 0.71002-0.20048v-1.8544c-0.14479 0.055688-0.31742 0.10024-0.5179 0.13365s-0.44551 0.050119-0.73508 0.050119c-0.41209 0-0.73787-0.10024-0.97733-0.30072-0.23946-0.20048-0.35919-0.53461-0.35919-1.0024v-3.4081h2.5728v-1.9379h-2.5728v-2.105h-2.1384v2.105h-1.5704v1.9379h1.5704v3.4081c0 1.0247 0.25617 1.821 0.7685 2.389 0.51233 0.56802 1.292 0.85203 2.3389 0.85203z" fill="#ED1C24"/>
<polygon points="75.793 25.947 75.793 22.247 79.473 22.247 79.473 19.567 75.793 19.567 75.793 15.867 73.113 15.867 73.113 19.567 69.413 19.567 69.413 22.247 73.113 22.247 73.113 25.947" fill="#19199C"/>
</g>
</g>
</g>
</g>
</svg>
